<?xml version="1.0" encoding="UTF-8"?>
<svg version="1.1" xmlns="http://www.w3.org/2000/svg" width="360" height="450">
<path d="M0 0 C3.82222222 2.26944444 3.82222222 2.26944444 5 4.625 C6.90433007 5.30511788 8.80892188 5.98451199 10.71484375 6.66015625 C13.07753279 7.65773607 14.96403373 8.84317542 17.0625 10.3125 C21.78213648 13.61045964 26.76237755 16.25340373 31.85961914 18.90893555 C34.67513241 20.3771211 37.3543714 21.8612476 40 23.625 C45.11335038 23.3919128 48.86350093 21.24605104 53.125 18.625 C60.42086929 14.19481185 60.42086929 14.19481185 64 13.625 C64 12.965 64 12.305 64 11.625 C65.3303125 10.9753125 65.3303125 10.9753125 66.6875 10.3125 C69.93166049 8.71756111 69.93166049 8.71756111 72.625 7 C75 5.625 75 5.625 77.125 5.125 C79.07022099 4.77398238 79.07022099 4.77398238 80.3125 3.3125 C83.93316219 -0.30816219 87.52642449 -2.13817537 92.5 -2.9375 C101.40440673 -2.46884701 110.78243214 1.90400427 118.734375 5.65234375 C122.55405239 7.29217077 126.52781222 8.4688449 130.49609375 9.6953125 C133 10.625 133 10.625 135 12.625 C135.25726891 15.03073692 135.25726891 15.03073692 135.26742554 18.11557007 C135.28022049 19.86537422 135.28022049 19.86537422 135.29327393 21.65052795 C135.29191437 23.57994484 135.29191437 23.57994484 135.29052734 25.54833984 C135.29650926 26.91158925 135.30331402 28.27483526 135.31088257 29.63807678 C135.32858527 33.34680436 135.33323976 37.05543972 135.33451414 40.76420546 C135.33641093 43.85817241 135.343766 46.95211776 135.35085833 50.04607642 C135.36715649 57.34518182 135.37202603 64.64423787 135.37060547 71.94335938 C135.36940398 79.47675095 135.39050372 87.00985604 135.4220928 94.5431751 C135.44823267 101.00693245 135.45897372 107.47059611 135.45769465 113.93440592 C135.45718429 117.79669861 135.46290771 121.65873689 135.48405075 125.52097702 C135.50339466 129.15393002 135.50358456 132.78638497 135.48901749 136.41935539 C135.48592434 138.38906637 135.50263317 140.35877717 135.51989746 142.32841492 C135.51150848 143.50059067 135.50311951 144.67276642 135.49447632 145.88046265 C135.49556585 146.89921164 135.49665539 147.91796062 135.49777794 148.9675808 C134.74571468 152.98251836 132.37784731 154.63660846 129.17578125 156.93359375 C127.12423804 158.17656228 125.06707809 159.40800323 123 160.625 C121.82244141 161.35009766 121.82244141 161.35009766 120.62109375 162.08984375 C119.83863281 162.55519531 119.05617188 163.02054688 118.25 163.5 C117.53328125 163.93054688 116.8165625 164.36109375 116.078125 164.8046875 C113.53000846 165.81052298 112.52278194 165.61591234 110 164.625 C108.31640625 163.6796875 108.31640625 163.6796875 106.5625 162.5 C103.10654912 160.2682974 99.5751444 158.29660576 95.9375 156.375 C94.88965332 155.77921143 93.84180664 155.18342285 92.76220703 154.56958008 C90.2377149 153.18298483 87.82785287 152.21434549 85.07421875 151.38208008 C80.43910675 149.72903178 76.74415908 147.83702592 74 143.625 C71.54942532 134.35916533 72.52214029 124.224497 72.97003174 114.72973633 C73.12443711 111.11084137 73.1921801 107.49039055 73.26757812 103.86914062 C73.42770712 96.78392231 73.68311861 89.70508348 74 82.625 C72.24821744 83.57809765 70.49672802 84.53173409 68.74536133 85.4855957 C67.76996902 86.01659378 66.79457672 86.54759186 65.78962708 87.09468079 C61.23940068 89.59082048 56.75477981 92.19549787 52.26171875 94.79296875 C43.52133975 99.70223552 43.52133975 99.70223552 39.625 99.125 C36.21296661 97.71312412 33.37814865 96.137546 30.30859375 94.12109375 C27.54384934 92.32938968 24.71904558 90.66283506 21.875 89 C20.41707031 88.14535156 20.41707031 88.14535156 18.9296875 87.2734375 C16.0051384 85.62789121 13.00144099 84.12572049 10 82.625 C10 102.755 10 122.885 10 143.625 C3.07 147.585 -3.86 151.545 -11 155.625 C-18.38828585 159.76226399 -18.38828585 159.76226399 -25.4375 164.43359375 C-28 165.625 -28 165.625 -30.79296875 165.12890625 C-34.84350707 163.22944553 -38.5538927 160.98045756 -42.3125 158.5625 C-43.04017578 158.10294922 -43.76785156 157.64339844 -44.51757812 157.16992188 C-49.82099011 153.80400989 -49.82099011 153.80400989 -51 152.625 C-51.1073286 150.8224608 -51.14410837 149.01569661 -51.15390015 147.20999146 C-51.16250061 146.0349707 -51.17110107 144.85994995 -51.17996216 143.64932251 C-51.18422211 142.34852753 -51.18848206 141.04773254 -51.19287109 139.70751953 C-51.20076885 138.33294465 -51.20903759 136.95837185 -51.21765137 135.58380127 C-51.24390736 131.05849193 -51.25918163 126.53317316 -51.2734375 122.0078125 C-51.27879554 120.45236072 -51.28417304 118.89690901 -51.28956985 117.34145737 C-51.31120303 110.87334814 -51.32994144 104.40524145 -51.34119225 97.93710518 C-51.35744223 88.65470621 -51.3906399 79.37272516 -51.44759309 70.09048378 C-51.48623831 63.57072532 -51.50581841 57.0510789 -51.51111281 50.53120887 C-51.51477354 46.63363431 -51.52687013 42.7365051 -51.55921555 38.83905411 C-51.58920198 35.17323977 -51.59564252 31.50814242 -51.58383179 27.84223175 C-51.58350444 25.85199801 -51.6080325 23.86180914 -51.63320923 21.87173462 C-51.62489075 20.69107422 -51.61657227 19.51041382 -51.60800171 18.29397583 C-51.61131186 17.26563189 -51.614622 16.23728794 -51.61803246 15.17778206 C-51 12.625 -51 12.625 -48.6297245 10.84148979 C-42.36413194 7.94307614 -35.90621149 5.37161746 -29 4.625 C-29 3.965 -29 3.305 -29 2.625 C-9.01487038 -4.74764334 -9.01487038 -4.74764334 0 0 Z " fill="#2075B7" transform="translate(138,85.375)"/>
<path d="M0 0 C0.99 0.495 0.99 0.495 2 1 C2.09340641 19.05422438 2.16396101 37.10838612 2.20724869 55.16279984 C2.2278814 63.54562707 2.2560154 71.92830424 2.30175781 80.31103516 C2.34160405 87.61671286 2.36742766 94.9222819 2.37635398 102.22806525 C2.38157254 106.09712915 2.39385233 109.96588216 2.42292023 113.8348465 C2.45005465 117.47593643 2.45844918 121.11658719 2.45243073 124.75776863 C2.45405722 126.73230207 2.4755904 128.70678759 2.49768066 130.68119812 C2.49218201 131.85626419 2.48668335 133.03133026 2.48101807 134.24200439 C2.48470524 135.26335102 2.48839241 136.28469765 2.49219131 137.33699417 C1.74870244 141.35964788 -0.61837388 143.00889775 -3.82421875 145.30859375 C-5.87576196 146.55156228 -7.93292191 147.78300323 -10 149 C-10.78503906 149.48339844 -11.57007813 149.96679688 -12.37890625 150.46484375 C-13.16136719 150.93019531 -13.94382812 151.39554688 -14.75 151.875 C-15.46671875 152.30554688 -16.1834375 152.73609375 -16.921875 153.1796875 C-19.46999154 154.18552298 -20.47721806 153.99091234 -23 153 C-24.68359375 152.0546875 -24.68359375 152.0546875 -26.4375 150.875 C-29.89345088 148.6432974 -33.4248556 146.67160576 -37.0625 144.75 C-38.11034668 144.15421143 -39.15819336 143.55842285 -40.23779297 142.94458008 C-42.7622851 141.55798483 -45.17214713 140.58934549 -47.92578125 139.75708008 C-52.56089325 138.10403178 -56.25584092 136.21202592 -59 132 C-61.45057468 122.73416533 -60.47785971 112.599497 -60.02996826 103.10473633 C-59.87556289 99.48584137 -59.8078199 95.86539055 -59.73242188 92.24414062 C-59.57229288 85.15892231 -59.31688139 78.08008348 -59 71 C-60.7525656 71.95300438 -62.50477533 72.90666323 -64.25683594 73.8605957 C-65.23263611 74.39159378 -66.20843628 74.92259186 -67.21380615 75.46968079 C-71.73738638 77.95426087 -76.18424455 80.56499077 -80.640625 83.16796875 C-84.04262129 85.02324347 -87.43228291 86.49756645 -91 88 C-91.12375079 83.2312159 -91.21440646 78.46336923 -91.2746582 73.69335938 C-91.29977772 72.07144895 -91.33388028 70.44965146 -91.37719727 68.828125 C-91.43796853 66.49450829 -91.46623294 64.16238952 -91.48828125 61.828125 C-91.51408768 61.10506165 -91.5398941 60.38199829 -91.56648254 59.63702393 C-91.56857742 55.86278665 -91.33666396 54.34242636 -88.64648438 51.60620117 C-85.88024045 49.92731568 -83.11283905 48.44657261 -80.1875 47.0625 C-76.06278836 45.05020136 -72.15178359 42.956354 -68.30078125 40.46875 C-59.6804748 34.96580395 -50.80475614 29.85334689 -41.9128418 24.80493164 C-37.8462419 22.49340882 -33.82624404 20.11637243 -29.82421875 17.6953125 C-25.32661101 14.9955037 -20.79972792 12.34541391 -16.27197266 9.6965332 C-11.38920516 6.83559637 -6.56007753 3.90186752 -1.78515625 0.86328125 C-1.19605469 0.57839844 -0.60695313 0.29351562 0 0 Z " fill="#1C5A8F" transform="translate(271,97)"/>
<path d="M0 0 C3.82222222 2.26944444 3.82222222 2.26944444 5 4.625 C6.90433007 5.30511788 8.80892188 5.98451199 10.71484375 6.66015625 C13.07753279 7.65773607 14.96403373 8.84317542 17.0625 10.3125 C21.78213648 13.61045964 26.76237755 16.25340373 31.85961914 18.90893555 C34.67513241 20.3771211 37.3543714 21.8612476 40 23.625 C45.11335038 23.3919128 48.86350093 21.24605104 53.125 18.625 C60.42086929 14.19481185 60.42086929 14.19481185 64 13.625 C64 12.965 64 12.305 64 11.625 C65.3303125 10.9753125 65.3303125 10.9753125 66.6875 10.3125 C69.93166049 8.71756111 69.93166049 8.71756111 72.625 7 C75 5.625 75 5.625 77.125 5.125 C79.07022099 4.77398238 79.07022099 4.77398238 80.3125 3.3125 C83.93316219 -0.30816219 87.52642449 -2.13817537 92.5 -2.9375 C101.40716834 -2.46870167 110.76661475 1.90854045 118.7265625 5.64453125 C123.35750504 7.64172468 128.19783391 9.0974074 133 10.625 C131.84741935 14.08274196 131.57239537 14.13357696 128.5 15.6875 C123.92119661 18.10731065 119.45587975 20.67578005 115 23.3125 C114.27127686 23.74232178 113.54255371 24.17214355 112.79174805 24.61499023 C110.52725043 25.95067752 108.26356237 27.2877285 106 28.625 C97.98415441 33.35865545 89.96955321 38.08935673 81.875 42.6875 C74.50932101 46.87831736 67.2524951 51.24206149 60 55.625 C57.38512977 57.20161293 54.77007118 58.77715923 52.14453125 60.3359375 C50.75291335 61.17242913 49.37411687 62.03077885 48.01171875 62.9140625 C43.60764965 65.68664562 43.60764965 65.68664562 40.57421875 65.37890625 C37.90309652 64.59662007 35.97405563 63.60861408 33.625 62.125 C32.75617188 61.58617187 31.88734375 61.04734375 30.9921875 60.4921875 C30.00476563 59.87601563 29.01734375 59.25984375 28 58.625 C25.58919 57.15688741 23.17023389 55.70251301 20.75 54.25 C20.11376709 53.86739014 19.47753418 53.48478027 18.82202148 53.09057617 C13.89059949 50.13444923 8.91213137 47.26823557 3.91235352 44.4296875 C-0.15405382 42.11819538 -4.17391158 39.74127828 -8.17578125 37.3203125 C-11.93575921 35.06328562 -15.71803822 32.84493619 -19.5 30.625 C-24.87515831 27.46907751 -30.23580569 24.29201868 -35.57421875 21.07421875 C-40.35826936 18.21611444 -45.18100912 15.42365793 -50 12.625 C-48.40240318 9.42980636 -45.20132098 8.79747663 -42 7.625 C-32.98636364 4.625 -32.98636364 4.625 -29 4.625 C-29 3.965 -29 3.305 -29 2.625 C-9.01487038 -4.74764334 -9.01487038 -4.74764334 0 0 Z " fill="#4495D0" transform="translate(138,85.375)"/>
<path d="M0 0 C4.62 0 9.24 0 14 0 C17.10797626 5.35262579 19.7377696 10.58492404 21.953125 16.359375 C23.78738961 20.98610216 25.90613833 25.48618345 28 30 C30.01730184 29.27592957 30.01730184 29.27592957 32 28 C32.50291335 25.9212915 32.98886702 23.83611945 33.36328125 21.73046875 C34.56316196 16.58496804 36.86474549 11.81654739 39 7 C39.66 7 40.32 7 41 7 C41.144375 6.030625 41.28875 5.06125 41.4375 4.0625 C42 1 42 1 43 0 C47.95 0 52.9 0 58 0 C58.33 18.15 58.66 36.3 59 55 C61.31 48.4 63.62 41.8 66 35 C66.66 35 67.32 35 68 35 C68.226875 33.783125 68.45375 32.56625 68.6875 31.3125 C70.39470584 23.59349075 73.54459736 16.29438311 76.6875 9.0625 C77.95446462 6.10624922 78.98291505 3.05125486 80 0 C84.62 0 89.24 0 94 0 C94.495 3.465 94.495 3.465 95 7 C95.66 7 96.32 7 97 7 C102.77702703 22.34763514 102.77702703 22.34763514 105.125 28.875 C106.96649446 33.96574296 108.96520023 38.98398195 111 44 C111.7092258 45.77047609 112.41757025 47.5413055 113.125 49.3125 C113.43695313 50.09238281 113.74890625 50.87226563 114.0703125 51.67578125 C114.37710938 52.44277344 114.68390625 53.20976562 115 54 C115.36867188 54.85980469 115.73734375 55.71960938 116.1171875 56.60546875 C117 59 117 59 117 62 C111.85153098 63.05609621 104.88867901 64.44433951 100 62 C99.1484375 60.29296875 99.1484375 60.29296875 98.375 58.1875 C98.11460938 57.50042969 97.85421875 56.81335938 97.5859375 56.10546875 C97 54 97 54 97 50 C90.4 50 83.8 50 77 50 C76.67 51.98 76.34 53.96 76 56 C75.36694179 58.01089078 74.70905938 60.01463373 74 62 C68.25640216 62.8177104 62.67382367 63.1826106 56.875 63.1875 C55.71677734 63.20586914 55.71677734 63.20586914 54.53515625 63.22460938 C53.77847656 63.22654297 53.02179688 63.22847656 52.2421875 63.23046875 C51.5704248 63.23457764 50.89866211 63.23868652 50.20654297 63.24291992 C48 63 48 63 42 61 C41.67 54.4 41.34 47.8 41 41 C40.278125 42.93875 39.55625 44.8775 38.8125 46.875 C36.66969522 52.6299614 36.66969522 52.6299614 33.546875 54.35546875 C30.14296543 55.21688758 27.49627408 55.44498034 24 55 C19.62966135 51.12912862 18.45382213 46.5210998 16 41 C15.67 47.93 15.34 54.86 15 62 C12.18772378 62.93742541 10.41253156 63.13470844 7.5 63.125 C6.7265625 63.12757813 5.953125 63.13015625 5.15625 63.1328125 C3 63 3 63 0 62 C0 41.54 0 21.08 0 0 Z M86 23 C84.515 29.435 84.515 29.435 83 36 C85.64 36 88.28 36 91 36 C90.55170486 34.01853549 90.09107502 32.03985789 89.625 30.0625 C89.24214844 28.40927734 89.24214844 28.40927734 88.8515625 26.72265625 C88.57054688 25.82417969 88.28953125 24.92570312 88 24 C87.34 23.67 86.68 23.34 86 23 Z " fill="#030606" transform="translate(22,272)"/>
<path d="M0 0 C31.02 0 62.04 0 94 0 C94 4.62 94 9.24 94 14 C88.72 14 83.44 14 78 14 C78 29.84 78 45.68 78 62 C67.875 63.125 67.875 63.125 63 63 C61.80208827 60.60417654 61.8793256 59.13222462 61.88647461 56.45849609 C61.88655014 55.51767181 61.88662567 54.57684753 61.88670349 53.60751343 C61.89444542 52.08089584 61.89444542 52.08089584 61.90234375 50.5234375 C61.9037587 49.48305328 61.90517365 48.44266907 61.90663147 47.37075806 C61.91224134 44.03880979 61.92479553 40.70692805 61.9375 37.375 C61.94251373 35.11979264 61.94707686 32.86458422 61.95117188 30.609375 C61.96136426 25.07287025 61.9809378 19.53650983 62 14 C46.82 14 31.64 14 16 14 C16 16.97 16 19.94 16 23 C24.25 23 32.5 23 41 23 C41.09765625 33.83984375 41.09765625 33.83984375 41 37 C40 38 40 38 37.68334961 38.11352539 C36.68311768 38.10828857 35.68288574 38.10305176 34.65234375 38.09765625 C33.57275391 38.09443359 32.49316406 38.09121094 31.38085938 38.08789062 C30.24455078 38.07951172 29.10824219 38.07113281 27.9375 38.0625 C26.79732422 38.05798828 25.65714844 38.05347656 24.48242188 38.04882812 C21.65489649 38.03699747 18.8274736 38.0205141 16 38 C16 40.97 16 43.94 16 47 C25.57 47 35.14 47 45 47 C46.125 57.125 46.125 57.125 46 61 C43.13340431 62.62490187 41.08635252 63.24946015 37.7980957 63.24291992 C36.98077469 63.24599655 36.16345367 63.24907318 35.32136536 63.25224304 C34.01180122 63.24146477 34.01180122 63.24146477 32.67578125 63.23046875 C31.77377487 63.23001053 30.87176849 63.22955231 29.94242859 63.2290802 C28.0403003 63.22606391 26.13817434 63.21819625 24.23608398 63.20581055 C21.31290014 63.18750251 18.39003219 63.18530129 15.46679688 63.18554688 C13.61978891 63.18063348 11.7727831 63.17480593 9.92578125 63.16796875 C9.0466658 63.16685593 8.16755035 63.1657431 7.26179504 63.16459656 C1.1160626 63.1160626 1.1160626 63.1160626 0 62 C-0.09396057 60.06693502 -0.11743517 58.13041162 -0.11352539 56.19506836 C-0.11340454 54.93641968 -0.11328369 53.677771 -0.11315918 52.38098145 C-0.10812272 51.03393505 -0.10295608 49.68688913 -0.09765625 48.33984375 C-0.09664917 47.12204224 -0.09564209 45.90424072 -0.09460449 44.64953613 C-0.08935295 40.07884791 -0.07539185 35.50817306 -0.0625 30.9375 C-0.041875 20.728125 -0.02125 10.51875 0 0 Z M45 2 C46 4 46 4 46 4 Z " fill="#030606" transform="translate(244,272)"/>
<path d="M0 0 C4.95 0 9.9 0 15 0 C19 5 19 5 20 8 C20.7425 8.70125 21.485 9.4025 22.25 10.125 C25.09666269 13.10105645 26.74267176 15.88739096 28.59375 19.5234375 C30.47647009 22.83911677 32.78378488 25.89729883 35 29 C35.33 19.43 35.66 9.86 36 0 C41.61 0 47.22 0 53 0 C53 20.46 53 40.92 53 62 C50.36 62.33 47.72 62.66 45 63 C43.96875 63.185625 42.9375 63.37125 41.875 63.5625 C37.8089858 62.76697548 36.74930914 60.67093399 34.4921875 57.33203125 C33.99976563 56.56246094 33.50734375 55.79289062 33 55 C32.52820313 54.30261719 32.05640625 53.60523438 31.5703125 52.88671875 C30.02636118 50.6041745 28.51200155 48.30383175 27 46 C25.58594852 43.85244242 24.16919461 41.70666226 22.75 39.5625 C22.08484375 38.55316406 21.4196875 37.54382813 20.734375 36.50390625 C19.09054216 33.97144481 19.09054216 33.97144481 17 32 C16.67 41.9 16.34 51.8 16 62 C3.55555556 63.77777778 3.55555556 63.77777778 0 62 C0 41.54 0 21.08 0 0 Z " fill="#030606" transform="translate(187,272)"/>
<path d="M0 0 C8.44878534 4.16316959 16.66243063 8.73827598 24.69921875 13.64453125 C28.04896927 15.61798359 31.4979627 17.31383389 35 19 C35 19.66 35 20.32 35 21 C37.64 21.66 40.28 22.32 43 23 C43.11627503 26.58305992 43.1872736 30.16563417 43.25 33.75 C43.30027344 35.27367187 43.30027344 35.27367187 43.3515625 36.828125 C43.45061511 44.35612327 43.45061511 44.35612327 41.21484375 47.55078125 C40.48394531 48.02902344 39.75304687 48.50726563 39 49 C38.39800781 49.43183594 37.79601562 49.86367187 37.17578125 50.30859375 C35.12423804 51.55156228 33.06707809 52.78300323 31 54 C30.21496094 54.48339844 29.42992187 54.96679688 28.62109375 55.46484375 C27.83863281 55.93019531 27.05617188 56.39554688 26.25 56.875 C25.53328125 57.30554688 24.8165625 57.73609375 24.078125 58.1796875 C21.53000846 59.18552298 20.52278194 58.99091234 18 58 C16.31640625 57.0546875 16.31640625 57.0546875 14.5625 55.875 C11.10654912 53.6432974 7.5751444 51.67160576 3.9375 49.75 C2.83921875 49.13511719 1.7409375 48.52023438 0.609375 47.88671875 C-1.92776326 46.49723249 -4.46657928 45.41493888 -7.171875 44.39453125 C-11.45311884 42.60311356 -15.30008884 40.91273807 -18 37 C-19.20033176 32.92696413 -19.41072081 29.04392781 -19.4375 24.8125 C-19.4475708 23.75426025 -19.4576416 22.69602051 -19.46801758 21.60571289 C-19.08790509 14.24736386 -19.08790509 14.24736386 -16.31103516 11.06347656 C-14.27743528 9.5217443 -12.22404017 8.24747936 -10 7 C-9.0203125 6.30132812 -8.040625 5.60265625 -7.03125 4.8828125 C-6.1959375 4.30273438 -5.360625 3.72265625 -4.5 3.125 C-3.6440625 2.52945313 -2.788125 1.93390625 -1.90625 1.3203125 C-1.2771875 0.88460937 -0.648125 0.44890625 0 0 Z " fill="#535454" transform="translate(230,192)"/>
<path d="M0 0 C1.375 1.9375 1.375 1.9375 1.375 3.9375 C2.035 3.9375 2.695 3.9375 3.375 3.9375 C6.375 9.6875 6.375 9.6875 6.375 11.9375 C1.43929224 15.42152901 -3.5612271 17.29419252 -9.625 16.9375 C-10.615 14.9575 -11.605 12.9775 -12.625 10.9375 C-14.06155854 10.85618537 -15.4994483 10.79816441 -16.9375 10.75 C-17.73800781 10.71519531 -18.53851563 10.68039062 -19.36328125 10.64453125 C-21.68329913 10.75315832 -21.68329913 10.75315832 -23.35546875 12.26171875 C-25.82580611 15.52256406 -25.74346609 18.5474099 -25.72265625 22.48046875 C-25.71943359 23.55361328 -25.71621094 24.62675781 -25.71289062 25.73242188 C-25.70451172 26.85197266 -25.69613281 27.97152344 -25.6875 29.125 C-25.68298828 30.25615234 -25.67847656 31.38730469 -25.67382812 32.55273438 C-25.66203498 35.34770927 -25.6455765 38.1425782 -25.625 40.9375 C-21.29834534 42.37971822 -17.13307723 42.75647966 -12.625 41.9375 C-9.91463084 39.12753917 -9.91463084 39.12753917 -8.625 35.9375 C-12.585 35.9375 -16.545 35.9375 -20.625 35.9375 C-20.625 31.3175 -20.625 26.6975 -20.625 21.9375 C-11.385 21.9375 -2.145 21.9375 7.375 21.9375 C7.41625 24.78375 7.4575 27.63 7.5 30.5625 C7.51820801 31.44760254 7.53641602 32.33270508 7.55517578 33.24462891 C7.61525636 41.85553265 5.08585293 47.54644623 -0.625 53.9375 C-3.125 55.8125 -3.125 55.8125 -5.625 56.9375 C-6.8934375 57.5253125 -6.8934375 57.5253125 -8.1875 58.125 C-16.03063651 59.97883227 -23.5457182 59.90189781 -30.625 55.9375 C-31.65625 55.421875 -32.6875 54.90625 -33.75 54.375 C-38.75781494 50.12924386 -41.23709058 44.95590705 -42.07470703 38.43823242 C-42.2236739 34.55120707 -42.2091233 30.70129079 -42.125 26.8125 C-42.12757813 25.49378906 -42.13015625 24.17507813 -42.1328125 22.81640625 C-42.06277297 15.84747276 -41.64629522 10.25329267 -38.625 3.9375 C-37.965 3.9375 -37.305 3.9375 -36.625 3.9375 C-36.295 2.9475 -35.965 1.9575 -35.625 0.9375 C-34.965 0.9375 -34.305 0.9375 -33.625 0.9375 C-33.295 -0.0525 -32.965 -1.0425 -32.625 -2.0625 C-23.85885652 -7.90659565 -8.04879287 -6.32405154 0 0 Z " fill="#030606" transform="translate(176.625,276.0625)"/>
<path d="M0 0 C4.2013491 1.05033728 7.48326975 2.79534024 11.1875 4.9375 C11.82880859 5.29779297 12.47011719 5.65808594 13.13085938 6.02929688 C17.87467617 8.74935233 17.87467617 8.74935233 19 11 C19.0913666 12.97106545 19.11751968 14.94527916 19.11352539 16.91845703 C19.11344986 18.15959259 19.11337433 19.40072815 19.11329651 20.67947388 C19.1081895 22.03892049 19.1029735 23.39836669 19.09765625 24.7578125 C19.09579142 26.14500884 19.09436782 27.53220584 19.09336853 28.91940308 C19.08954848 32.57234512 19.07972255 36.22524748 19.06866455 39.87817383 C19.05843944 43.60497501 19.05386855 47.33178259 19.04882812 51.05859375 C19.03809983 58.37241394 19.02102954 65.68620141 19 73 C18.40050537 73.34224106 17.80101074 73.68448212 17.18334961 74.03709412 C14.43458764 75.60650609 11.68604232 77.17629713 8.9375 78.74609375 C7.99455078 79.28439819 7.05160156 79.82270264 6.08007812 80.37731934 C-5.45990938 86.65912418 -5.45990938 86.65912418 -16.4375 93.80859375 C-19 95 -19 95 -21.79296875 94.5 C-25.83365434 92.61008129 -29.55357846 90.39421754 -33.3125 88 C-34.04017578 87.54882812 -34.76785156 87.09765625 -35.51757812 86.6328125 C-40.86946216 83.26107568 -40.86946216 83.26107568 -42 81 C-41.47535156 80.82726562 -40.95070313 80.65453125 -40.41015625 80.4765625 C-31.29851279 77.17150714 -23.2472513 72.0086515 -15 67 C-13.06297566 65.83254376 -11.12557279 64.66571489 -9.1875 63.5 C-8.45917969 63.0565625 -7.73085937 62.613125 -6.98046875 62.15625 C-5.03385925 61.01976792 -3.01611112 60.00805556 -1 59 C-0.67 39.53 -0.34 20.06 0 0 Z " fill="#555656" transform="translate(129,156)"/>
<path d="M0 0 C0.33 0 0.66 0 1 0 C2.9455066 20.43530203 2.9455066 20.43530203 -1.07421875 25.734375 C-3.68267237 27.1720493 -6.24264296 28.26452764 -9.05664062 29.23193359 C-12.8436078 30.72864198 -16.22487394 33.00403669 -19.6875 35.125 C-21.14130661 35.9824348 -22.59698499 36.83670537 -24.0546875 37.6875 C-26.35583848 39.03483425 -28.65283147 40.38788925 -30.9453125 41.75 C-32.11707031 42.430625 -32.11707031 42.430625 -33.3125 43.125 C-33.94800781 43.49882812 -34.58351563 43.87265625 -35.23828125 44.2578125 C-37 45 -37 45 -41 45 C-41.4142617 39.6847037 -41.65423753 34.38286359 -41.55078125 29.05078125 C-41.53700439 28.17848877 -41.52322754 27.30619629 -41.5090332 26.4074707 C-40.85511601 23.31477168 -39.61699059 22.10371809 -37.25 20.0625 C-34.76953125 18.9765625 -34.76953125 18.9765625 -32 18 C-29.97022945 16.99705455 -27.94957257 15.97549424 -25.9375 14.9375 C-24.9165625 14.44121094 -23.895625 13.94492188 -22.84375 13.43359375 C-19.78693257 11.89258826 -16.95264362 10.15962919 -14.0859375 8.296875 C-10.56025843 6.10487977 -6.88398087 4.18842445 -3.22265625 2.234375 C-1.09356875 1.18519029 -1.09356875 1.18519029 0 0 Z " fill="#AEB0B0" transform="translate(128,192)"/>
<path d="M0 0 C2.0837598 1.18675669 4.16708116 2.37426859 6.25 3.5625 C6.88244629 3.92311523 7.51489258 4.28373047 8.16650391 4.65527344 C12.25411756 6.99017566 16.31965455 9.35931681 20.375 11.75 C24.8371059 14.36386096 29.33999042 16.75961078 34 19 C34 19.66 34 20.32 34 21 C36.64 21.66 39.28 22.32 42 23 C42.10808032 30.09727428 41.93854006 36.96094956 41 44 C38 45 38 45 35.08203125 43.78515625 C34.00308594 43.21667969 32.92414063 42.64820313 31.8125 42.0625 C30.72582031 41.49660156 29.63914062 40.93070313 28.51953125 40.34765625 C27.27236328 39.68056641 27.27236328 39.68056641 26 39 C26 38.34 26 37.68 26 37 C25.195625 36.773125 24.39125 36.54625 23.5625 36.3125 C19.94180325 34.97855909 16.81179829 33.42128752 13.5234375 31.41796875 C10.98837842 29.89954246 10.98837842 29.89954246 7.9765625 28.92578125 C4.23811302 27.32564799 2.42776474 26.31260939 0 23 C-1.41392552 15.46145387 -0.66274172 7.5941859 0 0 Z " fill="#6D6D6D" transform="translate(231,192)"/>
<path d="M0 0 C0.27348814 5.12245199 0.4721808 10.24060124 0.60424805 15.36865234 C0.65932002 17.10931435 0.7342122 18.84947303 0.82983398 20.58837891 C1.60524207 35.05989885 1.60524207 35.05989885 -2.37231445 39.8671875 C-5.16511173 41.88771562 -7.92701481 43.45223997 -11 45 C-12.21961854 45.96056592 -13.4146348 46.95474322 -14.5625 48 C-17 50 -17 50 -19 50 C-19.2667273 44.66240994 -19.49980535 39.32480341 -19.7019043 33.984375 C-19.77536115 32.16822318 -19.85797686 30.35241763 -19.94995117 28.53710938 C-20.08064182 25.92615313 -20.17825218 23.31571936 -20.26953125 20.703125 C-20.31721146 19.89256653 -20.36489166 19.08200806 -20.41401672 18.24688721 C-20.47583008 15.94238281 -20.47583008 15.94238281 -20 12 C-16.84662752 8.68751392 -13.16548099 6.85132489 -9 5 C-8.34 5 -7.68 5 -7 5 C-7 4.34 -7 3.68 -7 3 C-2.61538462 0 -2.61538462 0 0 0 Z " fill="#104169" transform="translate(231,155)"/>
<path d="M0 0 C4.15406827 0.90439125 7.53666055 2.82621619 11.1875 4.9375 C11.82880859 5.29779297 12.47011719 5.65808594 13.13085938 6.02929688 C17.87467617 8.74935233 17.87467617 8.74935233 19 11 C19.08691001 13.84429357 19.11553802 16.66379176 19.09765625 19.5078125 C19.0962413 20.34843231 19.09482635 21.18905212 19.09336853 22.05514526 C19.08776237 24.74513275 19.07520886 27.43503759 19.0625 30.125 C19.05748579 31.94661338 19.05292275 33.76822807 19.04882812 35.58984375 C19.03779094 40.05992777 19.0205222 44.52994986 19 49 C15.20955269 47.17204112 11.81790528 44.90542266 8.375 42.5 C7.78976563 42.09652344 7.20453125 41.69304687 6.6015625 41.27734375 C4.23332852 39.63152977 2.04353372 38.04353372 0 36 C-0.17517747 33.27514272 -0.23149133 30.65340638 -0.1953125 27.9296875 C-0.1924826 27.13345978 -0.18965271 26.33723206 -0.18673706 25.51687622 C-0.1755264 22.96943237 -0.15042062 20.42233789 -0.125 17.875 C-0.11497133 16.14974465 -0.10584528 14.42448381 -0.09765625 12.69921875 C-0.07558422 8.46601086 -0.04104867 4.2330647 0 0 Z " fill="#104169" transform="translate(129,156)"/>
<path d="M0 0 C2.64 0 5.28 0 8 0 C9.65 2.97 11.3 5.94 13 9 C13.33 6.03 13.66 3.06 14 0 C16.31 0 18.62 0 21 0 C21 7.92 21 15.84 21 24 C14 24 14 24 12.22265625 22.46875 C11.83980469 21.8190625 11.45695313 21.169375 11.0625 20.5 C10.66160156 19.8503125 10.26070312 19.200625 9.84765625 18.53125 C9.56792969 18.0259375 9.28820312 17.520625 9 17 C8.67 19.31 8.34 21.62 8 24 C5.36 24 2.72 24 0 24 C0 16.08 0 8.16 0 0 Z " fill="#020505" transform="translate(167,343)"/>
<path d="M0 0 C0.58515381 0.40557129 1.17030762 0.81114258 1.77319336 1.22900391 C6.71578707 4.61632043 6.71578707 4.61632043 12.06640625 7.2734375 C15.50370956 8.79036948 16.92329887 9.80213507 19 13 C20.28825002 20.89614662 19.60231319 29.05965892 19 37 C17.57877329 36.07069269 16.15997993 35.13766343 14.7421875 34.203125 C13.95183105 33.68395508 13.16147461 33.16478516 12.34716797 32.62988281 C9.55936802 30.6940234 7.02952991 28.56276601 4.5078125 26.296875 C2.8202097 24.792012 2.8202097 24.792012 0 23 C-0.34057617 20.66162109 -0.34057617 20.66162109 -0.29296875 17.7734375 C-0.28330078 16.7421875 -0.27363281 15.7109375 -0.26367188 14.6484375 C-0.23853516 13.56820312 -0.21339844 12.48796875 -0.1875 11.375 C-0.17396484 10.28703125 -0.16042969 9.1990625 -0.14648438 8.078125 C-0.11104754 5.38492591 -0.06164331 2.69270626 0 0 Z " fill="#424242" transform="translate(129,192)"/>
<path d="M0 0 C2.23381453 19.63302046 2.23381453 19.63302046 -1.34179688 25.02246094 C-5.05753192 28.56581652 -9.46949962 30.67499501 -14 33 C-14.66 33.99 -15.32 34.98 -16 36 C-16.66 36 -17.32 36 -18 36 C-18.23331804 32.12602311 -18.3747313 28.25385576 -18.5 24.375 C-18.56703125 23.28058594 -18.6340625 22.18617188 -18.703125 21.05859375 C-18.89666172 13.07520405 -18.89666172 13.07520405 -16.33740234 10.00634766 C-14.29390117 8.47622198 -12.23809924 7.22297285 -10 6 C-9.18789062 5.37351563 -8.37578125 4.74703125 -7.5390625 4.1015625 C-6.90742188 3.61429688 -6.27578125 3.12703125 -5.625 2.625 C-4.97789062 2.12226563 -4.33078125 1.61953125 -3.6640625 1.1015625 C-2 0 -2 0 0 0 Z " fill="#414142" transform="translate(230,193)"/>
<path d="M0 0 C1.13953125 -0.02578125 2.2790625 -0.0515625 3.453125 -0.078125 C7.10534189 0.28536578 8.96243332 0.86582887 11.75 3.25 C12.30859375 5.66015625 12.30859375 5.66015625 12.1875 8.3125 C12.16558594 9.19035156 12.14367187 10.06820313 12.12109375 10.97265625 C11.75 13.25 11.75 13.25 9.75 15.25 C10.08 15.806875 10.41 16.36375 10.75 16.9375 C11.8809601 19.55284522 11.90662974 21.4306646 11.75 24.25 C9.44 24.25 7.13 24.25 4.75 24.25 C3.76 21.94 2.77 19.63 1.75 17.25 C1.09 19.56 0.43 21.87 -0.25 24.25 C-2.24954746 24.29254356 -4.25041636 24.29080783 -6.25 24.25 C-7.90394117 22.59605883 -7.37999683 20.64684587 -7.3828125 18.375 C-7.38410156 17.39015625 -7.38539062 16.4053125 -7.38671875 15.390625 C-7.38285156 14.35421875 -7.37898438 13.3178125 -7.375 12.25 C-7.38080078 10.69539063 -7.38080078 10.69539063 -7.38671875 9.109375 C-7.38542969 8.12453125 -7.38414063 7.1396875 -7.3828125 6.125 C-7.38168457 5.21492188 -7.38055664 4.30484375 -7.37939453 3.3671875 C-7.10722841 -1.08606652 -3.75620415 0.05053189 0 0 Z M0.75 7.25 C0.75 7.91 0.75 8.57 0.75 9.25 C2.07 8.92 3.39 8.59 4.75 8.25 C3.43 7.92 2.11 7.59 0.75 7.25 Z " fill="#020505" transform="translate(100.25,342.75)"/>
<path d="M0 0 C5.61 0 11.22 0 17 0 C17 2.31 17 4.62 17 7 C13.7 7 10.4 7 7 7 C7 7.66 7 8.32 7 9 C9.97 9 12.94 9 16 9 C16 10.98 16 12.96 16 15 C13.03 15 10.06 15 7 15 C7 15.99 7 16.98 7 18 C10.3 18 13.6 18 17 18 C17 19.98 17 21.96 17 24 C11.39 24 5.78 24 0 24 C0 16.08 0 8.16 0 0 Z " fill="#030505" transform="translate(132,343)"/>
<path d="M0 0 C2.9375 2.4375 2.9375 2.4375 5 5 C5.33 5.33 5.66 5.66 6 6 C7.22195411 17.22452129 7.22195411 17.22452129 4.125 21.75 C0.32414138 24.48661821 -2.02102803 24.6780633 -6.59765625 24.69921875 C-10.108082 23.67748508 -11.14648038 22.10737113 -13 19 C-14.02309877 12.90374249 -14.18967867 7.00758275 -11 1.625 C-7.17853109 -0.44496233 -4.24942929 -1.10742703 0 0 Z M-7 8 C-7.46522293 12.79308342 -7.46522293 12.79308342 -5.5 16.9375 C-5.005 17.288125 -4.51 17.63875 -4 18 C-3.34 17.67 -2.68 17.34 -2 17 C-2 13.7 -2 10.4 -2 7 C-4.9254644 6.7763932 -4.9254644 6.7763932 -7 8 Z " fill="#020505" transform="translate(69,343)"/>
<path d="M0 0 C0.77085937 -0.01417969 1.54171875 -0.02835937 2.3359375 -0.04296875 C4.84334888 0.20948393 6.45761902 0.93556533 8.625 2.1875 C8.11896008 4.35624252 7.62516187 6.18717627 6.625 8.1875 C4.645 8.1875 2.665 8.1875 0.625 8.1875 C1.759375 8.661875 2.89375 9.13625 4.0625 9.625 C7.625 11.1875 7.625 11.1875 8.625 12.1875 C8.86328125 14.1484375 8.86328125 14.1484375 8.9375 16.5625 C8.97488281 17.35398437 9.01226562 18.14546875 9.05078125 18.9609375 C8.625 21.1875 8.625 21.1875 6.953125 22.95703125 C4.1275956 24.45038991 2.24519257 24.55629252 -0.9375 24.5 C-1.88753906 24.49613281 -2.83757812 24.49226563 -3.81640625 24.48828125 C-6.375 24.1875 -6.375 24.1875 -9.375 22.1875 C-9.045 20.2075 -8.715 18.2275 -8.375 16.1875 C-5.10224974 16.1875 -2.528368 16.48675156 0.625 17.1875 C0.07070313 16.96835937 -0.48359375 16.74921875 -1.0546875 16.5234375 C-4.81428734 14.87777636 -6.93933591 13.92974253 -9.0625 10.3125 C-9.4584619 6.35288097 -8.52331275 4.48669458 -6.375 1.1875 C-4.04904054 0.02452027 -2.58776769 0.02149309 0 0 Z " fill="#020505" transform="translate(315.375,342.8125)"/>
<path d="M0 0 C2.3911458 0.39992755 4.1183612 1.18246463 6.21875 2.37109375 C5.71271008 4.53983627 5.21891187 6.37077002 4.21875 8.37109375 C2.23875 8.37109375 0.25875 8.37109375 -1.78125 8.37109375 C-0.93240234 8.66113281 -0.93240234 8.66113281 -0.06640625 8.95703125 C0.66707031 9.21742188 1.40054688 9.4778125 2.15625 9.74609375 C2.88714844 10.00132812 3.61804688 10.2565625 4.37109375 10.51953125 C6.21875 11.37109375 6.21875 11.37109375 7.21875 13.37109375 C7.73292818 17.22743013 7.50130318 18.92290595 5.40625 22.24609375 C0.80253349 25.31523809 -3.3942359 25.30760543 -8.78125 24.37109375 C-11.46875 22.37109375 -11.46875 22.37109375 -12.78125 20.37109375 C-11.79125 18.72109375 -10.80125 17.07109375 -9.78125 15.37109375 C-5.32625 16.36109375 -5.32625 16.36109375 -0.78125 17.37109375 C-1.41933594 17.10554688 -2.05742187 16.84 -2.71484375 16.56640625 C-3.54113281 16.21320313 -4.36742187 15.86 -5.21875 15.49609375 C-6.04246094 15.14804687 -6.86617187 14.8 -7.71484375 14.44140625 C-9.78125 13.37109375 -9.78125 13.37109375 -10.78125 11.37109375 C-11.18316848 7.75382739 -10.98233852 5.77327079 -9.34375 2.49609375 C-6.07838674 -0.21176846 -4.11857459 -0.11989001 0 0 Z " fill="#020505" transform="translate(217.78125,342.62890625)"/>
<path d="M0 0 C3 1.75 3 1.75 5 4 C5 5.32 5 6.64 5 8 C0.58937864 9.0257259 -1.92630576 9.03684712 -6 7 C-5.67 10.3 -5.34 13.6 -5 17 C-4.34 17 -3.68 17 -3 17 C-2.67 16.34 -2.34 15.68 -2 15 C-0.02 15 1.96 15 4 15 C4.75 17.25 4.75 17.25 5 20 C3.6875 22.3125 3.6875 22.3125 1 24 C-2.3912737 24.49871672 -5.62373042 24.62565263 -9 24 C-11.48692795 22.09168616 -11.98398734 21.04803797 -13 18 C-14.04126439 6.72459415 -14.04126439 6.72459415 -11 1.6875 C-7.15095806 -0.47758609 -4.31569454 -0.94840868 0 0 Z " fill="#020505" transform="translate(283,343)"/>
<path d="M0 0 C5.61 0 11.22 0 17 0 C17 2.31 17 4.62 17 7 C13.7 7 10.4 7 7 7 C7 7.66 7 8.32 7 9 C9.64 9 12.28 9 15 9 C15.33 9.66 15.66 10.32 16 11 C15.0625 13.625 15.0625 13.625 14 16 C11.69 16 9.38 16 7 16 C6.67 18.64 6.34 21.28 6 24 C4.02 24 2.04 24 0 24 C0 16.08 0 8.16 0 0 Z " fill="#020505" transform="translate(22,343)"/>
<path d="M0 0 C2.31 0 4.62 0 7 0 C7 7.92 7 15.84 7 24 C4.69 24 2.38 24 0 24 C0 16.08 0 8.16 0 0 Z " fill="#020505" transform="translate(244,343)"/>
<path d="M0 0 C2.9375 0.1875 2.9375 0.1875 3.9375 1.1875 C4.125 4.625 4.125 4.625 3.9375 8.1875 C3.2775 8.8475 2.6175 9.5075 1.9375 10.1875 C-0.67830479 9.8605244 -2.70328137 9.36710932 -5.0625 8.1875 C-5.1875 5.3125 -5.1875 5.3125 -5.0625 2.1875 C-3.0625 0.1875 -3.0625 0.1875 0 0 Z " fill="#020404" transform="translate(334.0625,342.8125)"/>
</svg>
