<?xml version="1.0" encoding="UTF-8"?>
<svg version="1.1" xmlns="http://www.w3.org/2000/svg" width="2048" height="2048">
<path d="M0 0 C1.02609375 0.54269531 2.0521875 1.08539063 3.109375 1.64453125 C17.13286943 9.43325586 29.65542832 19.71682842 41 31 C41.5048291 31.50080078 42.0096582 32.00160156 42.52978516 32.51757812 C69.33304513 59.46711592 85.7305982 95.56719065 91 133 C91.09571289 133.65387695 91.19142578 134.30775391 91.29003906 134.98144531 C92.22959792 142.21167064 92.24153609 149.46895283 92.25 156.75 C92.25133942 157.43230682 92.25267883 158.11461365 92.25405884 158.81759644 C92.24689049 175.73316117 89.60420723 191.51204178 86 208 C86.72251953 208.41137207 87.44503906 208.82274414 88.18945312 209.24658203 C101.85038142 217.02847849 115.49036317 224.84142316 129.06103516 232.7800293 C139.58695224 238.93536851 150.15184167 245.02257111 160.71777344 251.10888672 C166.14659942 254.23680148 171.57319281 257.36858448 177 260.5 C179.16665583 261.75001879 181.3333225 263.00001878 183.5 264.25 C239.83333333 296.75 296.16666667 329.25 352.5 361.75 C353.57266113 362.36883057 354.64532227 362.98766113 355.75048828 363.62524414 C357.91557071 364.87435518 360.08060982 366.12354129 362.24560547 367.37280273 C367.68615706 370.51202309 373.12747216 373.64990563 378.5703125 376.78515625 C389.02206199 382.80747329 399.46299548 388.84669337 409.875 394.9375 C419.14330233 400.35822017 428.45464363 405.70059683 437.78341675 411.01620483 C446.02831328 415.71526826 454.24551488 420.45911583 462.4375 425.25 C463.40526367 425.81332031 464.37302734 426.37664062 465.37011719 426.95703125 C470.27194885 429.81105279 475.15643622 432.68978201 480.01953125 435.609375 C481.92953798 436.739836 483.83968818 437.87005463 485.75 439 C486.6258374 439.5352832 487.5016748 440.07056641 488.40405273 440.62207031 C489.21430908 441.09741211 490.02456543 441.57275391 490.859375 442.0625 C491.56545898 442.48660156 492.27154297 442.91070312 492.99902344 443.34765625 C495.02378569 444.23236129 495.02378569 444.23236129 497.10986328 443.25512695 C499.74253811 441.50692477 501.86015635 439.39104446 504.125 437.1875 C511.79982545 429.95514987 520.29252467 423.92014631 529 418 C529.62213379 417.57444824 530.24426758 417.14889648 530.88525391 416.71044922 C567.51443001 392.0775062 616.61332819 384.16383183 659.56298828 392.50390625 C660.36720215 392.66761719 661.17141602 392.83132813 662 393 C662.82612793 393.16628906 663.65225586 393.33257812 664.50341797 393.50390625 C695.30859538 399.9402753 724.63852577 414.70092994 747.38671875 436.52734375 C749.26864444 438.3079999 751.13462105 439.96471658 753.1328125 441.6015625 C756.89718907 444.75050965 759.87987046 448.22584331 763 452 C764.22203125 453.44826172 764.22203125 453.44826172 765.46875 454.92578125 C795.82145562 491.6618167 809.36363106 539.0309946 805.25 586.25 C800.69042932 632.39850798 778.78049243 675.27427008 743.7265625 705.765625 C724.76359813 721.30547546 694.71713081 743 669 743 C669 900.08 669 1057.16 669 1219 C672.3 1219.66 675.6 1220.32 679 1221 C682.32882417 1222.07372744 685.5565063 1223.18179153 688.8125 1224.4375 C690.1584021 1224.95594482 690.1584021 1224.95594482 691.53149414 1225.48486328 C707.18437687 1231.69587046 721.71775124 1239.6541867 735 1250 C735.87914062 1250.65742187 736.75828125 1251.31484375 737.6640625 1251.9921875 C771.26928441 1278.08445949 792.02354632 1314.04232884 802 1355 C802.17934082 1355.7125293 802.35868164 1356.42505859 802.54345703 1357.15917969 C807.92931695 1379.63324461 807.72237916 1408.62597041 802 1431 C801.76893555 1431.92345215 801.53787109 1432.8469043 801.29980469 1433.79833984 C797.79733691 1447.44915293 793.36158438 1460.41889431 787 1473 C786.62504395 1473.74443359 786.25008789 1474.48886719 785.86376953 1475.25585938 C777.47355856 1491.65189015 766.76849022 1505.7781906 754 1519 C753.19046875 1519.86109375 752.3809375 1520.7221875 751.546875 1521.609375 C721.52448029 1552.79392693 676.6624999 1570.94744752 633.73828125 1572.28515625 C583.25426632 1573.18401955 538.00249913 1556.65980844 501 1522 C498.29971773 1519.36547136 495.6342604 1516.70048483 493 1514 C489.45565573 1515.34455698 486.19200807 1516.91228344 482.88671875 1518.765625 C481.89889404 1519.31847168 480.91106934 1519.87131836 479.89331055 1520.44091797 C478.83539307 1521.03791504 477.77747559 1521.63491211 476.6875 1522.25 C475.57737549 1522.87406738 474.46725098 1523.49813477 473.32348633 1524.14111328 C464.91412229 1528.88369692 456.56308564 1533.72246106 448.23510742 1538.60644531 C440.52145537 1543.12670684 432.76834125 1547.57476045 425 1552 C415.27857016 1557.53953103 405.59104696 1563.13375187 395.93310547 1568.78344727 C385.40915375 1574.93766742 374.84619863 1581.02369996 364.28222656 1587.10888672 C358.85340058 1590.23680148 353.42680719 1593.36858448 348 1596.5 C345.83334417 1597.75001879 343.6666775 1599.00001878 341.5 1600.25 C340.4275 1600.86875 339.355 1601.4875 338.25 1602.125 C172.49999998 1697.75000001 172.49999998 1697.75000001 169.24951172 1699.62524414 C167.08442929 1700.87435518 164.91939018 1702.12354129 162.75439453 1703.37280273 C157.31384294 1706.51202309 151.87252784 1709.64990563 146.4296875 1712.78515625 C135.75188323 1718.93745793 125.08270438 1725.10392787 114.4375 1731.3125 C113.45297852 1731.88637451 112.46845703 1732.46024902 111.45410156 1733.05151367 C106.88956917 1735.7156929 102.33276876 1738.39152139 97.79296875 1741.09765625 C96.99898682 1741.56969482 96.20500488 1742.0417334 95.38696289 1742.52807617 C93.92158983 1743.40065719 92.45838631 1744.27689621 90.99780273 1745.1574707 C86.22194217 1748 86.22194217 1748 84 1748 C84.48919922 1749.80017578 84.48919922 1749.80017578 84.98828125 1751.63671875 C98.40251387 1802.17752246 92.74609375 1852.32884379 66.79101562 1897.74438477 C42.91893968 1938.42726109 2.65898669 1967.01418725 -42.5859375 1979.05029297 C-90.3959226 1990.9609973 -139.58975633 1982.43502362 -181.6875 1957.625 C-222.18561457 1933.11201178 -249.8668805 1892.76612123 -261.74609375 1847.3125 C-268.32472939 1820.38690812 -271.86853566 1779.73707132 -259 1754 C-260.07930786 1753.59056152 -260.07930786 1753.59056152 -261.18041992 1753.17285156 C-263.9533802 1752.01939229 -266.4947937 1750.70261313 -269.11328125 1749.234375 C-270.59526001 1748.40498413 -270.59526001 1748.40498413 -272.10717773 1747.55883789 C-273.16493408 1746.96192139 -274.22269043 1746.36500488 -275.3125 1745.75 C-276.97551147 1744.81498657 -276.97551147 1744.81498657 -278.67211914 1743.86108398 C-288.13940877 1738.52126695 -297.53299965 1733.05876975 -306.91015625 1727.5625 C-313.21570419 1723.8678669 -319.54294436 1720.21147319 -325.875 1716.5625 C-327.49523071 1715.62869507 -327.49523071 1715.62869507 -329.14819336 1714.67602539 C-331.33796334 1713.41423174 -333.52782355 1712.15259466 -335.71777344 1710.89111328 C-341.14659942 1707.76319852 -346.57319281 1704.63141552 -352 1701.5 C-354.16665583 1700.24998121 -356.3333225 1698.99998122 -358.5 1697.75 C-423.5 1660.25 -488.5 1622.75 -553.5 1585.25 C-554.57266113 1584.63116943 -555.64532227 1584.01233887 -556.75048828 1583.37475586 C-558.91557071 1582.12564482 -561.08060982 1580.87645871 -563.24560547 1579.62719727 C-568.68615706 1576.48797691 -574.12747216 1573.35009437 -579.5703125 1570.21484375 C-590.02206236 1564.1925265 -600.46296702 1558.15325836 -610.875 1552.0625 C-620.83529424 1546.23762116 -630.84417223 1540.50044061 -640.86767578 1534.78540039 C-650.60368748 1529.23352087 -660.3103758 1523.63239239 -670 1518 C-673.88164431 1521.28997219 -677.68145001 1524.62367938 -681.375 1528.125 C-707.53593626 1551.66984263 -741.31967166 1566.16492915 -776 1571 C-776.65532715 1571.0942627 -777.3106543 1571.18852539 -777.98583984 1571.28564453 C-821.90798922 1576.96251887 -870.28153114 1565.39177037 -905.7421875 1538.55078125 C-906.83126755 1537.7045498 -907.91722814 1536.85428809 -909 1536 C-909.53786133 1535.57638184 -910.07572266 1535.15276367 -910.62988281 1534.71630859 C-928.62449479 1520.3648769 -943.21993314 1503.75793689 -955 1484 C-955.3697998 1483.38237793 -955.73959961 1482.76475586 -956.12060547 1482.12841797 C-979.86232924 1441.76233751 -985.21783164 1391.74059105 -973.6796875 1346.6796875 C-965.33010597 1316.17720367 -949.88224845 1289.69632019 -928 1267 C-927.236875 1266.17371094 -926.47375 1265.34742188 -925.6875 1264.49609375 C-904.7925661 1242.50699946 -875.29281945 1226.44319779 -846 1219 C-845.01 1219 -844.02 1219 -843 1219 C-843 1061.92 -843 904.84 -843 743 C-846.3 742.34 -849.6 741.68 -853 741 C-856.09277597 740.02194264 -859.0965553 739.01564142 -862.125 737.875 C-863.35041504 737.41649658 -863.35041504 737.41649658 -864.60058594 736.94873047 C-910.07477279 719.523135 -945.03131136 685.3849369 -965.1875 641.25 C-973.98791507 621.22689874 -979.36662907 598.89260373 -980 577 C-980.03996094 575.79988281 -980.07992187 574.59976563 -980.12109375 573.36328125 C-980.90373959 527.09510071 -964.92493208 481.79188717 -933 448 C-931.87037767 446.67058052 -930.74520688 445.33736282 -929.625 444 C-902.35242728 413.00844009 -858.41433932 393.72392773 -817.71142578 390.16333008 C-770.23621363 387.30353205 -722.31831213 398.97701802 -685.7421875 430.7734375 C-683.12574617 433.14748372 -680.5598389 435.56534715 -678 438 C-675.69008573 440.02980164 -673.34950258 442.0159756 -671 444 C-667.60997279 442.70891809 -664.47839169 441.24218459 -661.32421875 439.453125 C-660.42678955 438.94547607 -659.52936035 438.43782715 -658.60473633 437.91479492 C-657.64204834 437.3654126 -656.67936035 436.81603027 -655.6875 436.25 C-654.67131592 435.67290283 -653.65513184 435.09580566 -652.6081543 434.5012207 C-644.48295661 429.87474475 -636.4043584 425.17017856 -628.33666992 420.44433594 C-620.58753226 415.91014007 -612.80082131 411.44435477 -605 407 C-595.27865901 401.46031101 -585.59104908 395.86624937 -575.93310547 390.21655273 C-565.40915375 384.06233258 -554.84619863 377.97630004 -544.28222656 371.89111328 C-538.85340058 368.76319852 -533.42680719 365.63141552 -528 362.5 C-525.83334417 361.24998121 -523.6666775 359.99998122 -521.5 358.75 C-520.4275 358.13125 -519.355 357.5125 -518.25 356.875 C-352.50000001 261.25 -352.50000001 261.25 -349.24951172 259.37475586 C-347.08442929 258.12564482 -344.91939018 256.87645871 -342.75439453 255.62719727 C-337.31384294 252.48797691 -331.87252784 249.35009437 -326.4296875 246.21484375 C-315.87268182 240.13178446 -305.32803881 234.02949642 -294.8125 227.875 C-283.27795817 221.12618855 -271.65373061 214.54042613 -260 208 C-260.14622803 207.25951416 -260.29245605 206.51902832 -260.44311523 205.75610352 C-261.11172059 202.358973 -261.77464803 198.96075761 -262.4375 195.5625 C-262.78264648 193.81549805 -262.78264648 193.81549805 -263.13476562 192.03320312 C-272.17716747 145.51070086 -262.83217125 96.74777419 -236.52734375 57.22265625 C-217.52276163 29.5470686 -192.41504563 8.1207127 -162 -6 C-160.88367188 -6.53367187 -159.76734375 -7.06734375 -158.6171875 -7.6171875 C-107.98717821 -30.71787732 -48.38218559 -25.8481957 0 0 Z M41 282 C39.64172029 283.64639965 38.30745749 285.31295807 37 287 C37.51832397 287.88631104 37.51832397 287.88631104 38.04711914 288.79052734 C46.78499483 303.7373841 55.46694474 318.71523739 64.10888672 333.71777344 C67.23680148 339.14659942 70.36858448 344.57319281 73.5 350 C74.75001879 352.16665583 76.00001878 354.3333225 77.25 356.5 C77.86875 357.5725 78.4875 358.645 79.125 359.75 C174.75 525.5 174.75 525.5 176.62524414 528.75048828 C177.87435518 530.91557071 179.12354129 533.08060982 180.37280273 535.24560547 C183.51202309 540.68615706 186.64990563 546.12747216 189.78515625 551.5703125 C195.80747329 562.02206199 201.84669337 572.46299548 207.9375 582.875 C213.35921178 592.14499777 218.70204915 601.45831752 224.01922607 610.78845215 C229.22045129 619.9128284 234.48027878 629.00132774 239.78344727 638.06689453 C245.93766742 648.59084625 252.02369996 659.15380137 258.10888672 669.71777344 C261.23680148 675.14659942 264.36858448 680.57319281 267.5 686 C268.75001879 688.16665583 270.00001878 690.3333225 271.25 692.5 C271.86875 693.5725 272.4875 694.645 273.125 695.75 C383.75 887.5 383.75 887.5 385.62524414 890.75048828 C386.87435518 892.91557071 388.12354129 895.08060982 389.37280273 897.24560547 C392.51202309 902.68615706 395.64990563 908.12747216 398.78515625 913.5703125 C404.80747329 924.02206199 410.84669337 934.46299548 416.9375 944.875 C422.35921178 954.14499777 427.70204915 963.45831752 433.01922607 972.78845215 C438.22045129 981.9128284 443.48027878 991.00132774 448.78344727 1000.06689453 C454.93766742 1010.59084625 461.02369996 1021.15380137 467.10888672 1031.71777344 C470.23680148 1037.14659942 473.36858448 1042.57319281 476.5 1048 C477.75001879 1050.16665583 479.00001878 1052.3333225 480.25 1054.5 C480.86875 1055.5725 481.4875 1056.645 482.125 1057.75 C547.75 1171.5 547.75 1171.5 549.62817383 1174.75561523 C550.86746267 1176.90364046 552.10688141 1179.05159075 553.34643555 1181.19946289 C556.28202567 1186.28655549 559.21625672 1191.37441847 562.14590454 1196.4649353 C563.53328095 1198.87543748 564.92139624 1201.28551376 566.30957031 1203.69555664 C567.29173815 1205.40143968 568.27283385 1207.10793986 569.25390625 1208.81445312 C569.846875 1209.84376953 570.43984375 1210.87308594 571.05078125 1211.93359375 C571.57325439 1212.84165771 572.09572754 1213.74972168 572.6340332 1214.68530273 C573.69977966 1216.49126201 574.83680752 1218.25521129 576 1220 C578.31 1219.67 580.62 1219.34 583 1219 C583 1061.92 583 904.84 583 743 C574.42 740.03 565.84 737.06 557 734 C518.55920342 717.41253298 487.30666302 689.30773419 468 652 C467.65340332 651.33806641 467.30680664 650.67613281 466.94970703 649.99414062 C455.53751519 627.93092709 448.68950267 602.88205277 448 578 C447.97953613 577.34676758 447.95907227 576.69353516 447.93798828 576.02050781 C447.4103184 556.92845227 450.15106458 538.65921314 454 520 C452.93193115 519.39079712 452.93193115 519.39079712 451.84228516 518.76928711 C435.60954545 509.50808466 419.39940195 500.2092014 403.21777344 490.85888672 C397.81329355 487.73675395 392.40652588 484.61858796 387 481.5 C384.8333225 480.25001878 382.66665583 479.00001879 380.5 477.75 C378.89125 476.821875 378.89125 476.821875 377.25 475.875 C365.33333333 469 353.41666667 462.125 341.5 455.25 C340.42733887 454.63116943 339.35467773 454.01233887 338.24951172 453.37475586 C336.08442929 452.12564482 333.91939018 450.87645871 331.75439453 449.62719727 C326.31384294 446.48797691 320.87252784 443.35009437 315.4296875 440.21484375 C304.97793801 434.19252671 294.53700452 428.15330663 284.125 422.0625 C275.44737759 416.98724877 266.73394432 411.97741233 258 407 C248.27884383 401.4599827 238.59105342 395.86625191 228.93310547 390.21655273 C218.40915375 384.06233258 207.84619863 377.97630004 197.28222656 371.89111328 C191.85340058 368.76319852 186.42680719 365.63141552 181 362.5 C178.83334417 361.24998121 176.6666775 359.99998122 174.5 358.75 C152.83333333 346.25 131.16666667 333.75 109.5 321.25 C108.42717773 320.63108887 107.35435547 320.01217773 106.24902344 319.37451172 C104.08552524 318.12628966 101.92211357 316.87791761 99.75878906 315.62939453 C94.29434983 312.47594744 88.82836355 309.32523904 83.359375 306.1796875 C71.72234912 299.48238349 60.11239792 292.74693283 48.58691406 285.85888672 C47.73194336 285.34986816 46.87697266 284.84084961 45.99609375 284.31640625 C45.24513428 283.86724854 44.4941748 283.41809082 43.72045898 282.95532227 C42.18227245 281.91909111 42.18227245 281.91909111 41 282 Z M-216 282 C-232.95303526 291.66963688 -249.88364902 301.37652021 -266.78222656 311.14111328 C-272.18670645 314.26324605 -277.59347412 317.38141204 -283 320.5 C-285.1666775 321.74998122 -287.33334417 322.99998121 -289.5 324.25 C-302.5 331.75 -302.5 331.75 -305.75048828 333.62524414 C-307.91557071 334.87435518 -310.08060982 336.12354129 -312.24560547 337.37280273 C-317.68615706 340.51202309 -323.12747216 343.64990563 -328.5703125 346.78515625 C-339.02206199 352.80747329 -349.46299548 358.84669337 -359.875 364.9375 C-369.14499777 370.35921178 -378.45831752 375.70204915 -387.78845215 381.01922607 C-396.9128284 386.22045129 -406.00132774 391.48027878 -415.06689453 396.78344727 C-425.59084625 402.93766742 -436.15380137 409.02369996 -446.71777344 415.10888672 C-452.14659942 418.23680148 -457.57319281 421.36858448 -463 424.5 C-465.16665583 425.75001879 -467.3333225 427.00001878 -469.5 428.25 C-470.5725 428.86875 -471.645 429.4875 -472.75 430.125 C-560.5 480.75 -560.5 480.75 -563.75097656 482.62548828 C-565.91447476 483.87371034 -568.07788643 485.12208239 -570.24121094 486.37060547 C-575.70565017 489.52405256 -581.17163645 492.67476096 -586.640625 495.8203125 C-600.4833929 503.78647208 -614.27150141 511.8384055 -628 520 C-627.85377197 520.78012451 -627.70754395 521.56024902 -627.55688477 522.36401367 C-626.88503634 525.97056851 -626.22372742 529.57898342 -625.5625 533.1875 C-625.33240234 534.41404297 -625.10230469 535.64058594 -624.86523438 536.90429688 C-616.34917835 583.68089448 -626.66568282 632.10523054 -653.4375 671.4375 C-658.77874635 679.05581408 -664.72804255 686.13584056 -671 693 C-671.74765625 693.81984375 -672.4953125 694.6396875 -673.265625 695.484375 C-696.34131093 719.58564697 -725.91851622 732.63950541 -757 743 C-757 900.08 -757 1057.16 -757 1219 C-754.69 1219.66 -752.38 1220.32 -750 1221 C-749.44054687 1219.9790625 -748.88109375 1218.958125 -748.3046875 1217.90625 C-742.85246465 1208.00197797 -737.23743204 1198.20288134 -731.5246582 1188.44677734 C-727.17689843 1181.02161248 -722.85879718 1173.58005904 -718.5625 1166.125 C-717.94028564 1165.04541016 -717.31807129 1163.96582031 -716.67700195 1162.85351562 C-715.41488483 1160.6631748 -714.15292215 1158.47274498 -712.89111328 1156.28222656 C-709.76319852 1150.85340058 -706.63141552 1145.42680719 -703.5 1140 C-702.24998121 1137.83334417 -700.99998122 1135.6666775 -699.75 1133.5 C-667.25 1077.16666667 -634.75 1020.83333333 -602.25 964.5 C-601.63116943 963.42733887 -601.01233887 962.35467773 -600.37475586 961.24951172 C-599.12564482 959.08442929 -597.87645871 956.91939018 -596.62719727 954.75439453 C-593.48797691 949.31384294 -590.35009437 943.87252784 -587.21484375 938.4296875 C-581.19252671 927.97793801 -575.15330663 917.53700452 -569.0625 907.125 C-563.98724877 898.44737759 -558.97741233 889.73394432 -554 881 C-548.4599827 871.27884383 -542.86625191 861.59105342 -537.21655273 851.93310547 C-531.06233258 841.40915375 -524.97630004 830.84619863 -518.89111328 820.28222656 C-515.76319852 814.85340058 -512.63141552 809.42680719 -509.5 804 C-508.24998121 801.83334417 -506.99998122 799.6666775 -505.75 797.5 C-468.25 732.5 -430.75 667.5 -393.25 602.5 C-392.63116943 601.42733887 -392.01233887 600.35467773 -391.37475586 599.24951172 C-390.12564482 597.08442929 -388.87645871 594.91939018 -387.62719727 592.75439453 C-384.48797691 587.31384294 -381.35009437 581.87252784 -378.21484375 576.4296875 C-372.19252671 565.97793801 -366.15330663 555.53700452 -360.0625 545.125 C-354.98724877 536.44737759 -349.97741233 527.73394432 -345 519 C-339.4599827 509.27884383 -333.86625191 499.59105342 -328.21655273 489.93310547 C-322.06233258 479.40915375 -315.97630004 468.84619863 -309.89111328 458.28222656 C-306.76319852 452.85340058 -303.63141552 447.42680719 -300.5 442 C-299.24998121 439.83334417 -297.99998122 437.6666775 -296.75 435.5 C-279.25 405.16666667 -261.75 374.83333333 -244.25 344.5 C-243.63060547 343.42637207 -243.01121094 342.35274414 -242.37304688 341.24658203 C-241.1295949 339.09128689 -239.88610564 336.93601327 -238.64257812 334.78076172 C-235.75537125 329.77662326 -232.8684957 324.7722948 -229.98303223 319.76715088 C-228.97380896 318.01658759 -227.96446164 316.26609589 -226.95507812 314.515625 C-225.6983234 312.33607835 -224.44179414 310.15640168 -223.18554688 307.9765625 C-219.14583558 300.97138717 -215.0806316 293.98141493 -211 287 C-213.475 284.525 -213.475 284.525 -216 282 Z M-137 330 C-146.08931944 345.54233359 -155.12181577 361.11608853 -164.10888672 376.71777344 C-167.23680148 382.14659942 -170.36858448 387.57319281 -173.5 393 C-174.75001879 395.16665583 -176.00001878 397.3333225 -177.25 399.5 C-204.75 447.16666667 -232.25 494.83333333 -259.75 542.5 C-260.36883057 543.57266113 -260.98766113 544.64532227 -261.62524414 545.75048828 C-262.87435518 547.91557071 -264.12354129 550.08060982 -265.37280273 552.24560547 C-268.51202309 557.68615706 -271.64990563 563.12747216 -274.78515625 568.5703125 C-280.80747329 579.02206199 -286.84669337 589.46299548 -292.9375 599.875 C-298.01275123 608.55262241 -303.02258767 617.26605568 -308 626 C-313.5400173 635.72115617 -319.13374809 645.40894658 -324.78344727 655.06689453 C-330.93766742 665.59084625 -337.02369996 676.15380137 -343.10888672 686.71777344 C-346.23680148 692.14659942 -349.36858448 697.57319281 -352.5 703 C-353.75001879 705.16665583 -355.00001878 707.3333225 -356.25 709.5 C-393.75 774.5 -431.25 839.5 -468.75 904.5 C-469.36883057 905.57266113 -469.98766113 906.64532227 -470.62524414 907.75048828 C-471.87435518 909.91557071 -473.12354129 912.08060982 -474.37280273 914.24560547 C-477.51202309 919.68615706 -480.64990563 925.12747216 -483.78515625 930.5703125 C-489.80747329 941.02206199 -495.84669337 951.46299548 -501.9375 961.875 C-507.01275123 970.55262241 -512.02258767 979.26605568 -517 988 C-522.5400173 997.72115617 -528.13374809 1007.40894658 -533.78344727 1017.06689453 C-539.93766742 1027.59084625 -546.02369996 1038.15380137 -552.10888672 1048.71777344 C-555.23680148 1054.14659942 -558.36858448 1059.57319281 -561.5 1065 C-562.75001879 1067.16665583 -564.00001878 1069.3333225 -565.25 1071.5 C-647.75 1214.5 -647.75 1214.5 -649.62817383 1217.75537109 C-650.86774495 1219.90404727 -652.10716756 1222.05280913 -653.34643555 1224.20166016 C-656.27681778 1229.28243093 -659.20872063 1234.3623065 -662.14590454 1239.43914795 C-663.53438027 1241.83930101 -664.92200833 1244.23994361 -666.30957031 1246.640625 C-667.2901883 1248.33641618 -668.27203309 1250.03149776 -669.25390625 1251.7265625 C-670.14335938 1253.26570313 -670.14335938 1253.26570313 -671.05078125 1254.8359375 C-671.83449097 1256.19017822 -671.83449097 1256.19017822 -672.6340332 1257.57177734 C-673.8243116 1259.687686 -674.93850686 1261.81728289 -676 1264 C-675.27296875 1264.680625 -674.5459375 1265.36125 -673.796875 1266.0625 C-649.23430358 1289.54440077 -636.6826625 1317.95201251 -626 1350 C-270.26 1350 85.48 1350 452 1350 C454.64 1342.08 457.28 1334.16 460 1326 C461.67526145 1321.91595867 463.29639162 1318.04676165 465.25 1314.125 C465.70761719 1313.18994629 466.16523437 1312.25489258 466.63671875 1311.29150391 C473.93905795 1296.75361519 483.29094028 1284.17098728 494 1272 C494.680625 1271.14019531 495.36125 1270.28039063 496.0625 1269.39453125 C497.91965546 1267.09929678 499.8985921 1265.06946082 502 1263 C492.33198039 1246.04980018 482.62654099 1229.1221404 472.86328125 1212.2265625 C470.9796495 1208.96475993 469.09877679 1205.70138156 467.21875 1202.4375 C461.19560261 1191.98287049 455.15477555 1181.53951558 449.0625 1171.125 C443.64078822 1161.85500223 438.29795085 1152.54168248 432.98077393 1143.21154785 C427.77954871 1134.0871716 422.51972122 1124.99867226 417.21655273 1115.93310547 C411.06233258 1105.40915375 404.97630004 1094.84619863 398.89111328 1084.28222656 C395.76319852 1078.85340058 392.63141552 1073.42680719 389.5 1068 C388.24998121 1065.83334417 386.99998122 1063.6666775 385.75 1061.5 C385.13125 1060.4275 384.5125 1059.355 383.875 1058.25 C273.25 866.5 273.25 866.5 271.37475586 863.24951172 C270.12564482 861.08442929 268.87645871 858.91939018 267.62719727 856.75439453 C264.48797691 851.31384294 261.35009437 845.87252784 258.21484375 840.4296875 C252.19252671 829.97793801 246.15330663 819.53700452 240.0625 809.125 C234.64078822 799.85500223 229.29795085 790.54168248 223.98077393 781.21154785 C218.77954871 772.0871716 213.51972122 762.99867226 208.21655273 753.93310547 C202.06233258 743.40915375 195.97630004 732.84619863 189.89111328 722.28222656 C186.76319852 716.85340058 183.63141552 711.42680719 180.5 706 C179.24998121 703.83334417 177.99998122 701.6666775 176.75 699.5 C175.821875 697.89125 175.821875 697.89125 174.875 696.25 C79.25 530.49999999 79.25 530.49999999 77.37475586 527.24951172 C76.12564482 525.08442929 74.87645871 522.91939018 73.62719727 520.75439453 C70.48797691 515.31384294 67.35009437 509.87252784 64.21484375 504.4296875 C58.19252671 493.97793801 52.15330663 483.53700452 46.0625 473.125 C40.64078822 463.85500223 35.29795085 454.54168248 29.98077393 445.21154785 C24.77954871 436.0871716 19.51972122 426.99867226 14.21655273 417.93310547 C8.06233258 407.40915375 1.97630004 396.84619863 -4.10888672 386.28222656 C-5.98948106 383.01825673 -7.87140546 379.75505811 -9.75390625 376.4921875 C-10.37289795 375.41880127 -10.99188965 374.34541504 -11.62963867 373.23950195 C-12.86859795 371.09360054 -14.10962036 368.94888887 -15.3527832 366.80541992 C-18.29863794 361.7199403 -21.22066074 356.62440899 -24.06854248 351.48348999 C-25.4188357 349.04909282 -26.78129427 346.62160968 -28.14477539 344.19458008 C-29.1052331 342.47293272 -30.04793818 340.7414199 -30.99023438 339.00976562 C-31.57353516 337.97400391 -32.15683594 336.93824219 -32.7578125 335.87109375 C-33.2645752 334.95255615 -33.77133789 334.03401855 -34.29345703 333.08764648 C-35.84632627 330.81870446 -35.84632627 330.81870446 -38.41625977 330.14916992 C-41.00656907 329.99962074 -43.0530788 330.18888709 -45.58203125 330.7421875 C-46.43216797 330.92136719 -47.28230469 331.10054688 -48.15820312 331.28515625 C-49.03412109 331.47980469 -49.91003906 331.67445313 -50.8125 331.875 C-52.54756876 332.25021994 -54.28324275 332.62265289 -56.01953125 332.9921875 C-56.78370361 333.16089355 -57.54787598 333.32959961 -58.33520508 333.50341797 C-67.52345825 335.21564032 -76.68541663 335.28011953 -86 335.3125 C-86.79635864 335.31611542 -87.59271729 335.31973083 -88.41320801 335.32345581 C-101.47013503 335.34721773 -113.87072748 334.16464665 -126.66992188 331.45751953 C-130.09761402 330.78447939 -133.52894737 330.38343023 -137 330 Z M-626 1436 C-626.33 1438.31 -626.66 1440.62 -627 1443 C-626.02281006 1443.56376343 -626.02281006 1443.56376343 -625.02587891 1444.13891602 C-583.76293945 1467.94445801 -583.76293945 1467.94445801 -542.5 1491.75 C-541.42733887 1492.36883057 -540.35467773 1492.98766113 -539.24951172 1493.62524414 C-537.08442929 1494.87435518 -534.91939018 1496.12354129 -532.75439453 1497.37280273 C-527.31384294 1500.51202309 -521.87252784 1503.64990563 -516.4296875 1506.78515625 C-505.97793801 1512.80747329 -495.53700452 1518.84669337 -485.125 1524.9375 C-476.44737759 1530.01275123 -467.73394432 1535.02258767 -459 1540 C-449.27884383 1545.5400173 -439.59105342 1551.13374809 -429.93310547 1556.78344727 C-419.40915375 1562.93766742 -408.84619863 1569.02369996 -398.28222656 1575.10888672 C-392.85340058 1578.23680148 -387.42680719 1581.36858448 -382 1584.5 C-379.83334417 1585.75001879 -377.6666775 1587.00001878 -375.5 1588.25 C-345.16666667 1605.75 -314.83333333 1623.25 -284.5 1640.75 C-283.42717773 1641.36891113 -282.35435547 1641.98782227 -281.24902344 1642.62548828 C-279.08552524 1643.87371034 -276.92211357 1645.12208239 -274.75878906 1646.37060547 C-269.29434983 1649.52405256 -263.82836355 1652.67476096 -258.359375 1655.8203125 C-256.71702881 1656.76596069 -256.71702881 1656.76596069 -255.04150391 1657.73071289 C-252.86774963 1658.98172605 -250.69296344 1660.23094808 -248.51708984 1661.47827148 C-243.17271644 1664.55126578 -237.86890362 1667.67319339 -232.6171875 1670.90234375 C-231.60688477 1671.51835449 -230.59658203 1672.13436523 -229.55566406 1672.76904297 C-227.64552861 1673.93797458 -225.74333656 1675.12001791 -223.85058594 1676.31689453 C-223.0052832 1676.8323584 -222.15998047 1677.34782227 -221.2890625 1677.87890625 C-220.55381348 1678.3385376 -219.81856445 1678.79816895 -219.06103516 1679.27172852 C-216.98584927 1680.24710173 -216.98584927 1680.24710173 -214.85083008 1679.24584961 C-212.594621 1677.72712715 -210.91573529 1675.99196115 -209.0625 1674 C-198.51141098 1663.27762707 -185.99031456 1655.42098633 -173 1648 C-172.02039307 1647.43901611 -172.02039307 1647.43901611 -171.02099609 1646.86669922 C-131.13311487 1624.46788123 -80.66692509 1621.09530119 -37.05004883 1633.07104492 C-27.33932523 1635.89454588 -18.08059496 1639.56544615 -9 1644 C-8.30277832 1644.33902344 -7.60555664 1644.67804688 -6.88720703 1645.02734375 C3.44870409 1650.11952284 12.88329961 1655.9608091 22 1663 C22.96550781 1663.74121094 23.93101562 1664.48242188 24.92578125 1665.24609375 C28.81021725 1668.328369 32.52771967 1671.45112317 35.94921875 1675.04296875 C36.4388208 1675.55480713 36.92842285 1676.06664551 37.43286133 1676.59399414 C38.80342809 1678.0490177 40.14858946 1679.52784928 41.4921875 1681.0078125 C43.77298575 1683.28726698 43.77298575 1683.28726698 46.32788086 1682.80273438 C49.28007578 1681.91586211 51.60427607 1680.71079721 54.26171875 1679.1484375 C55.28458984 1678.55224609 56.30746094 1677.95605469 57.36132812 1677.34179688 C58.45896484 1676.69275391 59.55660156 1676.04371094 60.6875 1675.375 C61.84916922 1674.69521082 63.01128693 1674.01618752 64.17382812 1673.33789062 C66.58817446 1671.92841697 69.00055922 1670.51567013 71.41162109 1669.10058594 C76.92318583 1665.86944479 82.4629938 1662.68727005 88 1659.5 C90.16679965 1658.25023053 92.3334659 1657.00022976 94.5 1655.75 C263.5 1558.25 263.5 1558.25 266.75048828 1556.37475586 C268.91557071 1555.12564482 271.08060982 1553.87645871 273.24560547 1552.62719727 C278.68615706 1549.48797691 284.12747216 1546.35009437 289.5703125 1543.21484375 C300.02206199 1537.19252671 310.46299548 1531.15330663 320.875 1525.0625 C330.14499777 1519.64078822 339.45831752 1514.29795085 348.78845215 1508.98077393 C357.9128284 1503.77954871 367.00132774 1498.51972122 376.06689453 1493.21655273 C383.32211726 1488.97382727 390.59353319 1484.76001946 397.875 1480.5625 C398.94886963 1479.94342773 400.02273926 1479.32435547 401.12915039 1478.68652344 C405.55350496 1476.13677204 409.97852587 1473.58817919 414.40380859 1471.04003906 C420.96177309 1467.26347535 427.51590189 1463.4804056 434.06640625 1459.69091797 C436.83037955 1458.09776891 439.60149106 1456.51787788 442.375 1454.94140625 C443.93763158 1454.04450004 445.50014134 1453.14738155 447.0625 1452.25 C447.76511963 1451.85578857 448.46773926 1451.46157715 449.19165039 1451.05541992 C453.08595104 1448.90672229 453.08595104 1448.90672229 455 1445 C454.01 1442.03 453.02 1439.06 452 1436 C96.26 1436 -259.48 1436 -626 1436 Z " fill="#E534AB" transform="translate(1111,43)"/>
</svg>
