<?xml version="1.0" encoding="UTF-8"?>
<svg version="1.1" xmlns="http://www.w3.org/2000/svg" width="225" height="225">
<path d="M0 0 C74.25 0 148.5 0 225 0 C225 74.25 225 148.5 225 225 C150.75 225 76.5 225 0 225 C0 150.75 0 76.5 0 0 Z " fill="#655354" transform="translate(0,0)"/>
<path d="M0 0 C74.25 0 148.5 0 225 0 C225 26.07 225 52.14 225 79 C150.75 79 76.5 79 0 79 C0 52.93 0 26.86 0 0 Z " fill="#808080" transform="translate(0,146)"/>
<path d="M0 0 C74.25 0 148.5 0 225 0 C225 22.11 225 44.22 225 67 C150.75 67 76.5 67 0 67 C0 44.89 0 22.78 0 0 Z " fill="#764F51" transform="translate(0,79)"/>
<path d="M0 0 C74.25 0 148.5 0 225 0 C225 7.92 225 15.84 225 24 C150.75 24 76.5 24 0 24 C0 16.08 0 8.16 0 0 Z " fill="#6C5051" transform="translate(0,55)"/>
<path d="M0 0 C74.25 0 148.5 0 225 0 C225 7.26 225 14.52 225 22 C150.75 22 76.5 22 0 22 C0 14.74 0 7.48 0 0 Z " fill="#5E484A" transform="translate(0,0)"/>
<path d="M0 0 C74.25 0 148.5 0 225 0 C225 5.28 225 10.56 225 16 C150.75 16 76.5 16 0 16 C0 10.72 0 5.44 0 0 Z " fill="#7A5F61" transform="translate(0,130)"/>
<path d="M0 0 C74.25 0 148.5 0 225 0 C225 3.63 225 7.26 225 11 C150.75 11 76.5 11 0 11 C0 7.37 0 3.74 0 0 Z " fill="#644849" transform="translate(0,68)"/>
<path d="M0 0 C10.01540729 0.07316702 20.03086253 0.13835135 30.04632735 0.20307851 C50.55656835 0.3357985 71.06673485 0.47787209 91.57686532 0.62664449 C91.57686532 2.93664449 91.57686532 5.24664449 91.57686532 7.62664449 C17.32686532 7.62664449 -56.92313468 7.62664449 -133.42313468 7.62664449 C-133.42313468 5.31664449 -133.42313468 3.00664449 -133.42313468 0.62664449 C-88.94446462 -0.64711039 -44.48954478 -0.32625293 0 0 Z " fill="#7A6A6C" transform="translate(133.42313468456268,14.373355507850647)"/>
<path d="M0 0 C74.25 0 148.5 0 225 0 C225 2.31 225 4.62 225 7 C150.75 7 76.5 7 0 7 C0 4.69 0 2.38 0 0 Z " fill="#7B6D6F" transform="translate(0,22)"/>
<path d="M0 0 C74.25 0 148.5 0 225 0 C225 2.31 225 4.62 225 7 C150.75 7 76.5 7 0 7 C0 4.69 0 2.38 0 0 Z " fill="#765D60" transform="translate(0,8)"/>
<path d="M0 0 C74.25 0 148.5 0 225 0 C225 2.31 225 4.62 225 7 C150.75 7 76.5 7 0 7 C0 4.69 0 2.38 0 0 Z " fill="#7B6364" transform="translate(0,48)"/>
<path d="M0 0 C74.25 0 148.5 0 225 0 C225 1.98 225 3.96 225 6 C150.75 6 76.5 6 0 6 C0 4.02 0 2.04 0 0 Z " fill="#6B5052" transform="translate(0,55)"/>
<path d="M0 0 C74.25 0 148.5 0 225 0 C225 1.65 225 3.3 225 5 C218.98409212 5.14816148 212.96807246 5.29005898 206.9519043 5.42724609 C204.92517545 5.47421438 202.89847902 5.52261339 200.87182617 5.57275391 C159.10856774 6.60187116 117.30615666 5.86623695 75.53611213 5.55461836 C67.27914996 5.49306934 59.02217645 5.43310822 50.76520193 5.37324238 C33.84345532 5.25052036 16.9217231 5.12592235 0 5 C0 3.35 0 1.7 0 0 Z " fill="#634245" transform="translate(0,79)"/>
<path d="M0 0 C74.25 0 148.5 0 225 0 C225 1.65 225 3.3 225 5 C202.60345525 5.15568025 180.20687043 5.30362338 157.81021786 5.4429636 C147.40527164 5.50786793 137.0003512 5.57510743 126.59545898 5.64819336 C36.89693397 6.27585704 36.89693397 6.27585704 0 5 C0 3.35 0 1.7 0 0 Z " fill="#645859" transform="translate(0,29)"/>
<path d="M0 0 C74.25 0 148.5 0 225 0 C225 1.32 225 2.64 225 4 C150.75 4 76.5 4 0 4 C0 2.68 0 1.36 0 0 Z " fill="#7B686A" transform="translate(0,142)"/>
<path d="M0 0 C1.42107811 0 1.42107811 0 2.87086487 0 C41.10679476 0.00650136 79.33305659 0.44290905 117.5625 1.125 C117.5625 2.115 117.5625 3.105 117.5625 4.125 C43.3125 4.125 -30.9375 4.125 -107.4375 4.125 C-107.4375 3.135 -107.4375 2.145 -107.4375 1.125 C-71.62555501 0.36381184 -35.81997246 0 0 0 Z " fill="#665757" transform="translate(107.4375,63.875)"/>
<path d="M0 0 C25.33932284 -0.03656912 50.67695063 0.06284916 76.01585054 0.20192909 C81.2780908 0.23061474 86.54033658 0.25825016 91.80258179 0.28601074 C101.70729948 0.3384149 111.61201207 0.39172407 121.51672304 0.4453826 C132.81838097 0.50656316 144.12004441 0.56669797 155.42170835 0.62675762 C178.6144784 0.75003213 201.80724147 0.87457868 225 1 C225 1.99 225 2.98 225 4 C203.83987433 4.13143593 182.67974267 4.26186817 161.51960373 4.39115143 C151.69145165 4.45122166 141.86330167 4.51160295 132.03515625 4.57275391 C123.45475754 4.62614052 114.87435526 4.67890546 106.29394841 4.73096704 C101.76361769 4.75847538 97.23328914 4.78626557 92.70296478 4.81480408 C76.18680518 4.91864893 59.67082801 5.01874884 43.15429688 5.02734375 C41.49505251 5.02885815 41.49505251 5.02885815 39.80228806 5.03040314 C31.10958834 5.02664168 22.43621998 4.83304678 13.75 4.5 C12.38413062 4.45137048 11.01824497 4.40319575 9.65234375 4.35546875 C6.4347087 4.24136822 3.21730526 4.12298768 0 4 C0 2.68 0 1.36 0 0 Z " fill="#5F4A4B" transform="translate(0,44)"/>
<path d="M0 0 C10.01540729 0.07316702 20.03086253 0.13835135 30.04632735 0.20307851 C50.55656835 0.3357985 71.06673485 0.47787209 91.57686532 0.62664449 C91.57686532 1.61664449 91.57686532 2.60664449 91.57686532 3.62664449 C17.32686532 3.62664449 -56.92313468 3.62664449 -133.42313468 3.62664449 C-133.42313468 2.63664449 -133.42313468 1.64664449 -133.42313468 0.62664449 C-88.94446462 -0.64711039 -44.48954478 -0.32625293 0 0 Z " fill="#544446" transform="translate(133.42313468456268,14.373355507850647)"/>
<path d="M0 0 C74.25 0 148.5 0 225 0 C225 0.99 225 1.98 225 3 C150.75 3 76.5 3 0 3 C0 2.01 0 1.02 0 0 Z " fill="#A38081" transform="translate(0,68)"/>
<path d="M0 0 C74.25 0 148.5 0 225 0 C225 0.99 225 1.98 225 3 C150.75 3 76.5 3 0 3 C0 2.01 0 1.02 0 0 Z " fill="#A69697" transform="translate(0,26)"/>
<path d="M0 0 C74.25 0 148.5 0 225 0 C225 0.99 225 1.98 225 3 C150.75 3 76.5 3 0 3 C0 2.01 0 1.02 0 0 Z " fill="#9E787B" transform="translate(0,0)"/>
<path d="M0 0 C74.25 0 148.5 0 225 0 C225 0.99 225 1.98 225 3 C150.75 3 76.5 3 0 3 C0 2.01 0 1.02 0 0 Z " fill="#A59293" transform="translate(0,34)"/>
<path d="M0 0 C74.25 0 148.5 0 225 0 C225 0.99 225 1.98 225 3 C150.75 3 76.5 3 0 3 C0 2.01 0 1.02 0 0 Z " fill="#9F888A" transform="translate(0,12)"/>
<path d="M0 0 C74.25 0 148.5 0 225 0 C225 0.99 225 1.98 225 3 C150.75 3 76.5 3 0 3 C0 2.01 0 1.02 0 0 Z " fill="#A1898A" transform="translate(0,48)"/>
<path d="M0 0 C74.25 0 148.5 0 225 0 C225 0.99 225 1.98 225 3 C150.75 3 76.5 3 0 3 C0 2.01 0 1.02 0 0 Z " fill="#9D787A" transform="translate(0,76)"/>
<path d="M0 0 C74.25 0 148.5 0 225 0 C225 0.99 225 1.98 225 3 C200.68389949 3.0235193 176.36780071 3.04107153 152.05169106 3.05181217 C140.75743857 3.05693516 129.46319322 3.06390016 118.16894531 3.07543945 C108.30739791 3.08551003 98.44585567 3.09188236 88.58430326 3.09408849 C83.37861004 3.09537495 78.1729316 3.09832586 72.96724319 3.10573006 C48.62460414 3.13904843 24.32722707 2.91273374 0 2 C0 1.34 0 0.68 0 0 Z " fill="#9E8586" transform="translate(0,42)"/>
<path d="M0 0 C1.49707741 0 1.49707741 0 3.0243988 0 C41.20981184 0.00616462 79.38405817 0.40922254 117.5625 1.125 C117.5625 1.785 117.5625 2.445 117.5625 3.125 C43.3125 3.125 -30.9375 3.125 -107.4375 3.125 C-107.4375 2.465 -107.4375 1.805 -107.4375 1.125 C-71.62531874 0.31729919 -35.82075683 0 0 0 Z " fill="#927D7E" transform="translate(107.4375,57.875)"/>
<path d="M0 0 C74.25 0 148.5 0 225 0 C225 0.99 225 1.98 225 3 C213.56251295 3.03303835 202.125028 3.05173369 190.6875 3.0625 C189.78504295 3.06335602 188.88258591 3.06421204 187.95278168 3.06509399 C146.67544455 3.09936431 105.40085812 2.81099688 64.125 2.5 C63.3311375 2.49402628 62.537275 2.48805257 61.71935606 2.48189783 C41.14619178 2.32697316 20.57307457 2.16642445 0 2 C0 1.34 0 0.68 0 0 Z " fill="#836366" transform="translate(0,84)"/>
</svg>
