<?xml version="1.0" encoding="UTF-8"?>
<svg version="1.1" xmlns="http://www.w3.org/2000/svg" width="640" height="703">
<path d="M0 0 C7.95505913 -0.09347111 15.90988152 -0.16414957 23.8653574 -0.20724869 C27.56107304 -0.22795417 31.25640778 -0.25595099 34.9519043 -0.30175781 C38.53109815 -0.34583564 42.1099302 -0.36926444 45.68937492 -0.37950897 C47.69144013 -0.39028866 49.69336364 -0.4214104 51.69520569 -0.45318604 C69.26292516 -0.45739786 84.47368277 4.58508159 97.11328125 16.99609375 C129.32255306 49.90718528 134.51673105 109.81701765 134.23348999 153.30145264 C133.79619532 192.22008639 122.03529858 240.86857051 94.5625 269.9375 C81.69294059 282.0735612 65.93218928 285.18215869 48.79344177 285.12025452 C47.47108673 285.12153615 47.47108673 285.12153615 46.12201744 285.12284368 C43.19257048 285.12447989 40.26318185 285.11900779 37.33374023 285.11352539 C35.22406516 285.11324309 33.11438998 285.11340209 31.00471497 285.1139679 C25.29467757 285.1142542 19.58466128 285.10838441 13.87462878 285.10139394 C7.90088175 285.09513264 1.92713421 285.0945544 -4.0466156 285.09336853 C-15.35109729 285.0902634 -26.65556928 285.08206104 -37.96004671 285.07201904 C-50.83304427 285.0608325 -63.7060423 285.05534105 -76.57904351 285.05032361 C-103.05270104 285.03987774 -129.52634998 285.02229414 -156 285 C-156 290.28 -156 295.56 -156 301 C-109.8 301 -63.6 301 -16 301 C-16 380.66236772 -16 380.66236772 -34.3125 399.75 C-56.25690003 420.44880804 -86.23228133 428.22547458 -115 434 C-115.87575684 434.18079102 -116.75151367 434.36158203 -117.65380859 434.54785156 C-145.38502769 440.03410651 -176.4562569 438.79450503 -204 433 C-205.54445801 432.67854004 -205.54445801 432.67854004 -207.12011719 432.35058594 C-237.10589923 425.90697247 -270.01942497 414.57022585 -288 388 C-295.70179306 374.89813969 -297.30310362 362.55297664 -297.2746582 347.49511719 C-297.27901577 346.0695723 -297.28420236 344.64402975 -297.29014587 343.2184906 C-297.30343716 339.37732143 -297.30412548 335.53625125 -297.30158257 331.69506359 C-297.30050578 328.4724469 -297.30541439 325.24984966 -297.310188 322.02723718 C-297.32124981 314.41446466 -297.32173987 306.80174149 -297.31567383 299.18896484 C-297.3096412 291.37333914 -297.32193462 283.55789379 -297.3432439 275.74229884 C-297.36094424 268.99878707 -297.36684791 262.25533225 -297.36360615 255.51179814 C-297.36180599 251.49899333 -297.36430089 247.4863171 -297.37832069 243.47353363 C-297.39103214 239.69439536 -297.3888314 235.91553495 -297.37590981 232.13640022 C-297.37247224 230.11523313 -297.38362395 228.09405701 -297.39547729 226.07292175 C-297.32777438 214.08882568 -295.80579795 202.08440111 -290.375 191.25 C-290.02872559 190.54101562 -289.68245117 189.83203125 -289.32568359 189.1015625 C-286.0516641 182.65606551 -282.01900447 177.21269089 -277 172 C-276.25234375 171.21238281 -275.5046875 170.42476562 -274.734375 169.61328125 C-260.32437255 155.5611431 -242.126814 150.36389555 -222.40429688 150.48583984 C-220.89786569 150.48036309 -219.39144009 150.47311246 -217.88502502 150.46424866 C-214.67069469 150.44904222 -211.45668287 150.44605466 -208.24232483 150.45301437 C-203.14608566 150.46390876 -198.0501723 150.44629251 -192.95397949 150.42520142 C-184.88564322 150.39506683 -176.81740514 150.38325893 -168.74901724 150.37962496 C-154.31528152 150.3729608 -139.88161485 150.34367659 -125.44796228 150.2945286 C-120.39560454 150.27816291 -115.34338963 150.27258778 -110.291008 150.27611899 C-107.13385714 150.27656009 -103.97675901 150.26893233 -100.81962395 150.25944328 C-99.37096814 150.25679067 -97.92230124 150.25745988 -96.47364998 150.26195335 C-72.20309564 150.33195235 -50.87444097 144.88443052 -32 129 C-31.42121094 128.56558594 -30.84242188 128.13117188 -30.24609375 127.68359375 C-14.33263835 115.3146667 -4.67775402 94.16918825 -1.45594788 74.71482849 C-1.00088503 71.00721074 -0.84127118 67.42187577 -0.79467773 63.68774414 C-0.78477814 62.99421844 -0.77487854 62.30069275 -0.76467896 61.58615112 C-0.73337227 59.31918623 -0.70843008 57.05220046 -0.68359375 54.78515625 C-0.6629975 53.20331818 -0.64200037 51.62148527 -0.62062073 50.03965759 C-0.56567563 45.89529637 -0.51614592 41.75088777 -0.46777344 37.60644531 C-0.41735594 33.36974925 -0.36177603 29.1331212 -0.30664062 24.89648438 C-0.19939666 16.59771391 -0.09787809 8.29888619 0 0 Z M-98 347 C-103.17738898 353.9452779 -104.77751505 361.03905127 -103.66015625 369.60546875 C-101.84160964 377.27189073 -97.35281817 382.99833542 -90.8984375 387.44921875 C-84.88640995 390.56454212 -78.63777461 390.98657928 -72 390 C-63.57608437 387.32235593 -58.91710079 382.42594603 -54.1875 375.25 C-51.2420708 367.18882536 -51.476531 360.35265493 -54.765625 352.4453125 C-58.11250987 345.81509121 -62.98822323 341.8235349 -69.75 338.75 C-80.71127276 336.22047552 -90.07420481 338.8940731 -98 347 Z " fill="#FFDE57" transform="translate(446,149)"/>
<path d="M0 0 C1.81835609 -0.01045349 1.81835609 -0.01045349 3.67344666 -0.02111816 C7.56618757 -0.03842691 11.4587847 -0.04483807 15.3515625 -0.046875 C16.01320278 -0.04746414 16.67484306 -0.04805328 17.35653305 -0.04866028 C37.0734776 -0.06106555 56.45456715 0.19108653 75.9765625 3.203125 C76.98734863 3.34766113 77.99813477 3.49219727 79.03955078 3.64111328 C104.40694713 7.32683475 127.66386152 16.53421721 143.94140625 37.34765625 C155.69304108 53.83603449 158.30251321 71.3513541 158.23535156 91.13647461 C158.24060852 93.09093758 158.24060852 93.09093758 158.24597168 95.08488464 C158.25496837 98.60979077 158.2516047 102.13457778 158.24521351 105.65948558 C158.24008554 109.38086777 158.24486366 113.10224099 158.24798584 116.82362366 C158.25160641 123.06952714 158.24687738 129.31538306 158.23730469 135.5612793 C158.22642863 142.73959926 158.2299473 149.91780548 158.2409575 157.09612268 C158.25009094 163.30385229 158.25128616 169.51154804 158.24608016 175.71928221 C158.24299287 179.40729954 158.24246015 183.09526378 158.24915314 186.78327751 C158.29417488 215.64778572 157.70773006 241.54896947 136.57421875 263.734375 C120.84651335 278.6816078 101.13763503 283.85513475 79.98608398 283.70141602 C78.461278 283.70525266 76.93647567 283.71088304 75.41168213 283.71813965 C72.1635486 283.72996829 68.91573905 283.72969693 65.66760063 283.71954536 C60.51632745 283.70379844 55.36537775 283.71778941 50.21412659 283.73558044 C40.20762029 283.76622154 30.20121619 283.7679086 20.19467163 283.76593018 C7.45484875 283.76453196 -5.28489551 283.77511141 -18.02466148 283.8145079 C-23.13032202 283.82931409 -28.2356882 283.82926826 -33.34135258 283.81703007 C-36.53244081 283.81227402 -39.72341944 283.81990735 -42.91448975 283.83057404 C-44.37724329 283.83295212 -45.84001626 283.83034618 -47.30274773 283.82196617 C-72.94287806 283.68402488 -95.8249618 292.14175698 -114.20703125 310.19921875 C-131.90722196 328.53177628 -138.61983131 351.4261498 -138.6328125 376.390625 C-138.64784037 378.07171178 -138.66457691 379.75278405 -138.68292236 381.43383789 C-138.72609229 385.80005678 -138.74648127 390.16607681 -138.76165771 394.5324707 C-138.78141325 399.01134768 -138.82336057 403.4900154 -138.86328125 407.96875 C-138.9380358 416.71348608 -138.98865587 425.45813885 -139.0234375 434.203125 C-146.47579997 434.2542293 -153.9281165 434.2890268 -161.38061523 434.31298828 C-163.91090585 434.32298752 -166.44118509 434.33659129 -168.97143555 434.35400391 C-172.62812119 434.37852122 -176.28465282 434.38966924 -179.94140625 434.3984375 C-181.05549362 434.40876007 -182.16958099 434.41908264 -183.31742859 434.42971802 C-203.67559581 434.43256519 -221.61460931 429.34039892 -236.6484375 415.140625 C-255.40996525 395.55059673 -262.01220546 369.80052258 -267.2734375 343.953125 C-267.519729 342.74712646 -267.76602051 341.54112793 -268.01977539 340.29858398 C-271.18334482 324.13542148 -272.4371925 308.34446213 -272.3984375 291.890625 C-272.39756134 290.97381958 -272.39668518 290.05701416 -272.39578247 289.11242676 C-272.34582577 273.16984342 -271.21259064 257.86322827 -268.0234375 242.203125 C-267.7661084 240.93452637 -267.5087793 239.66592773 -267.24365234 238.35888672 C-260.63296945 206.3450436 -250.29257241 179.69690977 -221.8984375 161.015625 C-216.93519726 158.06243811 -211.95125826 155.79391932 -206.5234375 153.828125 C-205.8722998 153.58940674 -205.22116211 153.35068848 -204.55029297 153.10473633 C-191.67979977 148.75106448 -178.40982595 148.92243935 -165.00463867 148.97607422 C-163.01259873 148.97663937 -161.02055838 148.97631975 -159.02851868 148.97518921 C-153.65752185 148.97461874 -148.28661555 148.98632324 -142.91563964 149.00033712 C-137.28892341 149.01289577 -131.66220477 149.01401901 -126.03547668 149.01638794 C-115.39693317 149.02258768 -104.75843109 149.03897802 -94.11990577 149.05908692 C-82.00134007 149.08149293 -69.88277231 149.09245115 -57.76419103 149.10247779 C-32.85058283 149.12334565 -7.93701424 149.1588982 16.9765625 149.203125 C16.9765625 143.593125 16.9765625 137.983125 16.9765625 132.203125 C-29.2234375 132.203125 -75.4234375 132.203125 -123.0234375 132.203125 C-123.0234375 44.38785406 -123.0234375 44.38785406 -110.0234375 30.203125 C-109.50007812 29.60113281 -108.97671875 28.99914062 -108.4375 28.37890625 C-84.17260055 2.12041177 -33.18002926 0.12853221 0 0 Z M-81.0234375 52.203125 C-85.87728697 59.1406369 -87.97229849 65.75562644 -87.0234375 74.203125 C-85.07411059 81.24824672 -82.10855984 87.56571268 -75.796875 91.640625 C-68.5191282 95.6062084 -62.16647569 97.18828679 -54.0234375 95.265625 C-46.80337418 92.7802138 -41.01617811 87.78929396 -37.4609375 81.015625 C-34.64725392 73.46036353 -34.7195932 65.18617824 -38.0234375 57.828125 C-42.48889796 50.13552504 -48.08493121 45.91836014 -56.62890625 43.61328125 C-65.85202197 42.03346534 -74.52107237 45.62992801 -81.0234375 52.203125 Z " fill="#3D79AA" transform="translate(272.0234375,-0.203125)"/>
<path d="M0 0 C0.65974823 -0.00058914 1.31949646 -0.00117828 1.99923706 -0.00178528 C123.42857838 -0.07811891 123.42857838 -0.07811891 155.375 27.875 C158.10778373 31.12018068 159.375 32.76053838 159.375 37.0625 C157.26578234 43.78563128 153.31059265 46.96663173 147.30151367 50.28637695 C84.09892021 82.89230555 -11.1174654 76.84480023 -79.625 67.25 C-81.14552979 67.03754639 -81.14552979 67.03754639 -82.69677734 66.82080078 C-138.03232036 58.84267964 -138.03232036 58.84267964 -154.125 42.75 C-155.95953349 39.69244419 -156.625 37.83432914 -156.625 34.25 C-153.9425052 26.87313929 -148.44335899 23.68590319 -141.625 20.25 C-111.7273635 6.88704387 -77.91396542 3.7887412 -45.625 1.25 C-44.39990723 1.15283691 -43.17481445 1.05567383 -41.91259766 0.95556641 C-27.95728791 -0.00871936 -13.98319383 0.00738932 0 0 Z " fill="#8C8C8C" transform="translate(289.625,629.75)"/>
<path d="M0 0 C1.14984375 -0.00128906 2.2996875 -0.00257813 3.484375 -0.00390625 C5.28648437 0.00189453 5.28648437 0.00189453 7.125 0.0078125 C8.32640625 0.00394531 9.5278125 0.00007812 10.765625 -0.00390625 C11.91546875 -0.00261719 13.0653125 -0.00132812 14.25 0 C15.83167969 0.00169189 15.83167969 0.00169189 17.4453125 0.00341797 C20.125 0.1328125 20.125 0.1328125 23.125 1.1328125 C24.53324893 1.21303249 25.94497231 1.24047227 27.35546875 1.23046875 C28.15791016 1.22724609 28.96035156 1.22402344 29.78710938 1.22070312 C30.62048828 1.21232422 31.45386719 1.20394531 32.3125 1.1953125 C33.5799707 1.18854492 33.5799707 1.18854492 34.87304688 1.18164062 C36.95706155 1.16986653 39.04103977 1.1519314 41.125 1.1328125 C41.125 1.7928125 41.125 2.4528125 41.125 3.1328125 C44.755 2.8028125 48.385 2.4728125 52.125 2.1328125 C52.125 2.7928125 52.125 3.4528125 52.125 4.1328125 C56.58 3.6378125 56.58 3.6378125 61.125 3.1328125 C61.125 3.7928125 61.125 4.4528125 61.125 5.1328125 C64.59 4.6378125 64.59 4.6378125 68.125 4.1328125 C68.125 4.7928125 68.125 5.4528125 68.125 6.1328125 C69.1975 5.9471875 70.27 5.7615625 71.375 5.5703125 C74.52891546 5.2023557 76.22318492 5.08815907 79.125 6.1328125 C79.125 6.7928125 79.125 7.4528125 79.125 8.1328125 C80.0325 7.9265625 80.94 7.7203125 81.875 7.5078125 C85.45384309 7.09486907 86.10339276 7.4846631 89.125 9.1328125 C95.68500261 10.29603471 95.68500261 10.29603471 102.125 9.1328125 C104.60546875 9.69140625 104.60546875 9.69140625 107.3125 10.5703125 C108.21355469 10.85777344 109.11460937 11.14523437 110.04296875 11.44140625 C111.07357422 11.78365234 111.07357422 11.78365234 112.125 12.1328125 C112.125 11.8028125 112.125 11.4728125 112.125 11.1328125 C119.96248811 11.47357285 126.1353854 15.2855605 131.75 20.6328125 C133.49759617 23.81026008 133.721169 25.55579852 133.125 29.1328125 C130.07617781 33.86691328 126.41037682 36.06782383 121.5 38.5078125 C120.79157959 38.86214355 120.08315918 39.21647461 119.35327148 39.58154297 C114.32193839 41.93609926 110.41762709 42.8509911 104.84765625 41.828125 C103.125 41.1328125 103.125 41.1328125 102.125 39.1328125 C99.15434491 39.47508822 99.15434491 39.47508822 96.125 40.1328125 C95.795 40.7928125 95.465 41.4528125 95.125 42.1328125 C93.10011372 42.42208197 91.07255984 42.70553404 89.03515625 42.88671875 C87.04247967 43.03688128 87.04247967 43.03688128 85.125 44.1328125 C84.135 43.8028125 83.145 43.4728125 82.125 43.1328125 C82.125 43.7928125 82.125 44.4528125 82.125 45.1328125 C80.475 44.8028125 78.825 44.4728125 77.125 44.1328125 C77.125 44.7928125 77.125 45.4528125 77.125 46.1328125 C74.155 45.6378125 74.155 45.6378125 71.125 45.1328125 C71.125 45.7928125 71.125 46.4528125 71.125 47.1328125 C68.155 46.6378125 68.155 46.6378125 65.125 46.1328125 C65.125 46.7928125 65.125 47.4528125 65.125 48.1328125 C62.485 47.8028125 59.845 47.4728125 57.125 47.1328125 C57.125 48.1228125 57.125 49.1128125 57.125 50.1328125 C57.888125 50.0503125 58.65125 49.9678125 59.4375 49.8828125 C62.125 50.1328125 62.125 50.1328125 63.9375 52.1328125 C64.329375 52.7928125 64.72125 53.4528125 65.125 54.1328125 C63.805 54.4628125 62.485 54.7928125 61.125 55.1328125 C61.785 55.4628125 62.445 55.7928125 63.125 56.1328125 C63.125 56.7928125 63.125 57.4528125 63.125 58.1328125 C64.445 58.4628125 65.765 58.7928125 67.125 59.1328125 C64.155 59.1328125 61.185 59.1328125 58.125 59.1328125 C57.795 58.4728125 57.465 57.8128125 57.125 57.1328125 C56.135 56.8028125 55.145 56.4728125 54.125 56.1328125 C54.125 55.4728125 54.125 54.8128125 54.125 54.1328125 C53.34253906 54.01164063 52.56007813 53.89046875 51.75390625 53.765625 C50.74199219 53.59804688 49.73007812 53.43046875 48.6875 53.2578125 C47.17349609 53.01417969 47.17349609 53.01417969 45.62890625 52.765625 C44.80261719 52.55679688 43.97632813 52.34796875 43.125 52.1328125 C42.795 51.4728125 42.465 50.8128125 42.125 50.1328125 C38.12245544 50.04100116 38.12245544 50.04100116 34.125 50.1328125 C33.795 50.4628125 33.465 50.7928125 33.125 51.1328125 C31.50372577 51.23142848 29.87817632 51.26080017 28.25390625 51.26220703 C27.21613037 51.26535919 26.17835449 51.26851135 25.10913086 51.27175903 C23.41542358 51.26872269 23.41542358 51.26872269 21.6875 51.265625 C19.96188843 51.26706009 19.96188843 51.26706009 18.20141602 51.26852417 C15.76350856 51.26920619 13.3255993 51.2673504 10.88769531 51.26318359 C7.14123482 51.25783567 3.39489423 51.26312789 -0.3515625 51.26953125 C-2.71354193 51.26887047 -5.07552129 51.26758932 -7.4375 51.265625 C-8.56663818 51.26764923 -9.69577637 51.26967346 -10.85913086 51.27175903 C-12.41579468 51.26703079 -12.41579468 51.26703079 -14.00390625 51.26220703 C-14.92244385 51.26141144 -15.84098145 51.26061584 -16.78735352 51.25979614 C-18.875 51.1328125 -18.875 51.1328125 -19.875 50.1328125 C-22.04116582 50.08622829 -24.20866092 50.09513704 -26.375 50.1328125 C-28.54133908 50.17048796 -30.70883418 50.17939671 -32.875 50.1328125 C-33.205 49.8028125 -33.535 49.4728125 -33.875 49.1328125 C-35.39428038 49.06101286 -36.91667482 49.04889243 -38.4375 49.0703125 C-39.26378906 49.07933594 -40.09007812 49.08835937 -40.94140625 49.09765625 C-41.57949219 49.10925781 -42.21757812 49.12085938 -42.875 49.1328125 C-42.875 48.4728125 -42.875 47.8128125 -42.875 47.1328125 C-45.515 47.4628125 -48.155 47.7928125 -50.875 48.1328125 C-50.875 47.4728125 -50.875 46.8128125 -50.875 46.1328125 C-53.845 46.6278125 -53.845 46.6278125 -56.875 47.1328125 C-56.875 46.4728125 -56.875 45.8128125 -56.875 45.1328125 C-57.9475 45.3184375 -59.02 45.5040625 -60.125 45.6953125 C-63.27891546 46.0632693 -64.97318492 46.17746593 -67.875 45.1328125 C-67.875 44.4728125 -67.875 43.8128125 -67.875 43.1328125 C-69.36 42.6378125 -69.36 42.6378125 -70.875 42.1328125 C-70.875 41.4728125 -70.875 40.8128125 -70.875 40.1328125 C-71.48988281 40.00003906 -72.10476562 39.86726562 -72.73828125 39.73046875 C-73.54652344 39.55386719 -74.35476562 39.37726562 -75.1875 39.1953125 C-75.98800781 39.02128906 -76.78851563 38.84726562 -77.61328125 38.66796875 C-81.42188805 37.76679581 -84.19502305 36.40521898 -87.4375 34.2578125 C-88.22253906 33.74476563 -89.00757813 33.23171875 -89.81640625 32.703125 C-92.42068592 30.71655873 -93.69619146 28.98215305 -94.375 25.7578125 C-93.75315914 22.49314798 -92.32497089 21.28167568 -89.7109375 19.32421875 C-83.81469115 15.49793122 -75.97320837 11.1328125 -68.875 11.1328125 C-69.535 9.8128125 -70.195 8.4928125 -70.875 7.1328125 C-67.905 7.6278125 -67.905 7.6278125 -64.875 8.1328125 C-64.875 7.4728125 -64.875 6.8128125 -64.875 6.1328125 C-57.44642857 4.84709821 -57.44642857 4.84709821 -53.875 6.1328125 C-53.875 5.4728125 -53.875 4.8128125 -53.875 4.1328125 C-51.565 4.4628125 -49.255 4.7928125 -46.875 5.1328125 C-46.875 4.4728125 -46.875 3.8128125 -46.875 3.1328125 C-46.27171875 3.14441406 -45.6684375 3.15601563 -45.046875 3.16796875 C-44.24765625 3.17699219 -43.4484375 3.18601562 -42.625 3.1953125 C-41.44164062 3.21271484 -41.44164062 3.21271484 -40.234375 3.23046875 C-37.90145962 3.2163014 -37.90145962 3.2163014 -35.8125 2.6015625 C-32.75018129 1.86067894 -29.93920298 2.60246968 -26.875 3.1328125 C-26.875 2.4728125 -26.875 1.8128125 -26.875 1.1328125 C-24.97814453 1.15021484 -24.97814453 1.15021484 -23.04296875 1.16796875 C-21.38281398 1.17734816 -19.72265761 1.1864482 -18.0625 1.1953125 C-17.22912109 1.20369141 -16.39574219 1.21207031 -15.53710938 1.22070312 C-14.33344727 1.22553711 -14.33344727 1.22553711 -13.10546875 1.23046875 C-12.36707764 1.23570557 -11.62868652 1.24094238 -10.86791992 1.24633789 C-7.12631058 1.03319954 -3.8676194 0.00413712 0 0 Z " fill="#9F9F9F" transform="translate(283.875,639.8671875)"/>
<path d="M0 0 C-0.33 0.99 -0.66 1.98 -1 3 C-0.01 3.99 -0.01 3.99 1 5 C1 5.66 1 6.32 1 7 C-1.4375 6.625 -1.4375 6.625 -4 6 C-4.495 5.01 -4.495 5.01 -5 4 C-9.455 4.495 -9.455 4.495 -14 5 C-13.01 5.66 -12.02 6.32 -11 7 C-10.67 6.34 -10.34 5.68 -10 5 C-9.505 6.485 -9.505 6.485 -9 8 C-6.49552484 9.21869929 -6.49552484 9.21869929 -4 10 C-6.16309652 11.08154826 -8.07351066 11.50313524 -10.4375 12 C-13.04706205 12.55028656 -15.46292828 13.15430943 -18 14 C-17.505 14.99 -17.505 14.99 -17 16 C-22.625 18 -22.625 18 -26 18 C-30.10230188 20.97055972 -30.10230188 20.97055972 -33 25 C-33.04254356 26.99954746 -33.04080783 29.00041636 -33 31 C-33 31.99 -33 32.98 -33 34 C-34.625 31.9375 -34.625 31.9375 -36 29 C-35.3342037 25.72650154 -34.49129279 22.98258558 -33 20 C-36.0580633 22.38911196 -36.93142525 23.52854858 -37.5 27.4375 C-36.92140435 31.55999398 -35.86591086 33.05220598 -33 36 C-32.4225 36.598125 -31.845 37.19625 -31.25 37.8125 C-30.8375 38.204375 -30.425 38.59625 -30 39 C-30.99 39 -31.98 39 -33 39 C-24.93720749 42.47369321 -17.84384224 45.42007592 -9 46 C-8.31808594 46.34289062 -7.63617188 46.68578125 -6.93359375 47.0390625 C-4.32010813 48.33788566 -2.74362993 47.76211942 0 47 C-0.99 47.99 -1.98 48.98 -3 50 C-2.01 50.66 -1.02 51.32 0 52 C-0.495 52.99 -0.495 52.99 -1 54 C0.32 54 1.64 54 3 54 C3 54.66 3 55.32 3 56 C-1.33001302 56.925165 -4.54504943 56.95259822 -8.859375 55.99609375 C-10.52033203 55.63161133 -10.52033203 55.63161133 -12.21484375 55.25976562 C-13.96474609 54.85274414 -13.96474609 54.85274414 -15.75 54.4375 C-16.95269531 54.16228516 -18.15539062 53.88707031 -19.39453125 53.60351562 C-55.33255609 45.16672798 -55.33255609 45.16672798 -63.96875 33.71875 C-65.60452272 30.99246213 -66.1329368 29.19048318 -66 26 C-63.3175052 18.62313929 -57.81835899 15.43590319 -51 12 C-37.54574639 5.98652798 -14.73859315 -3.90139231 0 0 Z " fill="#818181" transform="translate(199,638)"/>
<path d="M0 0 C0 0.66 0 1.32 0 2 C0.63808594 1.91621094 1.27617187 1.83242188 1.93359375 1.74609375 C3.17302734 1.59333984 3.17302734 1.59333984 4.4375 1.4375 C5.67306641 1.28087891 5.67306641 1.28087891 6.93359375 1.12109375 C7.95646484 1.06115234 7.95646484 1.06115234 9 1 C9.495 1.495 9.495 1.495 10 2 C12.16616582 2.04658421 14.33366092 2.03767546 16.5 2 C18.66633908 1.96232454 20.83383418 1.95341579 23 2 C23.495 2.495 23.495 2.495 24 3 C25.62127423 3.09861598 27.24682368 3.12798767 28.87109375 3.12939453 C30.42775757 3.13412277 30.42775757 3.13412277 32.01586914 3.13894653 C33.14500732 3.1369223 34.27414551 3.13489807 35.4375 3.1328125 C36.58790771 3.13376923 37.73831543 3.13472595 38.92358398 3.13571167 C41.36149144 3.13639369 43.7994007 3.1345379 46.23730469 3.13037109 C49.98376518 3.12502317 53.73010577 3.13031539 57.4765625 3.13671875 C59.83854193 3.13605797 62.20052129 3.13477682 64.5625 3.1328125 C66.25620728 3.13584885 66.25620728 3.13584885 67.98413086 3.13894653 C69.02190674 3.13579437 70.05968262 3.13264221 71.12890625 3.12939453 C72.04744385 3.12859894 72.96598145 3.12780334 73.91235352 3.12698364 C75.98878122 3.23217579 75.98878122 3.23217579 77 2 C79.67058851 1.85884839 82.32432238 1.95752893 85 2 C85.495 3.485 85.495 3.485 86 5 C86.62648438 5.06058594 87.25296875 5.12117187 87.8984375 5.18359375 C88.71570313 5.26738281 89.53296875 5.35117187 90.375 5.4375 C91.59316406 5.55931641 91.59316406 5.55931641 92.8359375 5.68359375 C95 6 95 6 97 7 C97 7.66 97 8.32 97 9 C98.98 9.495 98.98 9.495 101 10 C101 10.66 101 11.32 101 12 C101.99 12.33 102.98 12.66 104 13 C56.45478581 15.70453866 9.23220649 15.95565453 -38 9 C-37.34 8.67 -36.68 8.34 -36 8 C-36 7.34 -36 6.68 -36 6 C-35.38125 5.71125 -34.7625 5.4225 -34.125 5.125 C-31.86674235 4.06279958 -31.86674235 4.06279958 -30 2 C-30 2.66 -30 3.32 -30 4 C-28.2709226 4.02725341 -26.54171824 4.04650987 -24.8125 4.0625 C-23.36810547 4.07990234 -23.36810547 4.07990234 -21.89453125 4.09765625 C-19.14423487 4.00486622 -16.67520409 3.62111685 -14 3 C-14.33 3.66 -14.66 4.32 -15 5 C-13.02 5 -11.04 5 -9 5 C-9 4.34 -9 3.68 -9 3 C-8.34 3 -7.68 3 -7 3 C-7 2.34 -7 1.68 -7 1 C-4 0 -4 0 0 0 Z " fill="#8E8E8E" transform="translate(241,687)"/>
<path d="M0 0 C8.60986547 1.14798206 8.60986547 1.14798206 11.9375 3.1875 C12.618125 3.455625 13.29875 3.72375 14 4 C14.70125 3.649375 15.4025 3.29875 16.125 2.9375 C20.71144468 1.44192021 24.58901104 3.40690496 29 5 C29 4.67 29 4.34 29 4 C36.83748811 4.34076035 43.0103854 8.152748 48.625 13.5 C50.37259617 16.67744758 50.596169 18.42298602 50 22 C46.95117781 26.73410078 43.28537682 28.93501133 38.375 31.375 C37.31236938 31.90649658 37.31236938 31.90649658 36.22827148 32.44873047 C31.19693839 34.80328676 27.29262709 35.7181786 21.72265625 34.6953125 C20 34 20 34 19 32 C16.02934491 32.34227572 16.02934491 32.34227572 13 33 C12.67 33.66 12.34 34.32 12 35 C8.35526801 35.89093449 5.57257469 36.23666047 2 35 C2 34.34 2 33.68 2 33 C2.88042969 32.66226563 3.76085937 32.32453125 4.66796875 31.9765625 C5.82941406 31.53054688 6.99085938 31.08453125 8.1875 30.625 C9.33605469 30.18414063 10.48460937 29.74328125 11.66796875 29.2890625 C13.31732422 28.65097656 13.31732422 28.65097656 15 28 C15.9178125 27.66355469 16.835625 27.32710937 17.78125 26.98046875 C20.89279469 25.60547277 22.20660863 23.8561418 24 21 C24.37955141 17.81176817 24.02200151 16.06600453 23 13 C20.60931266 11.89363605 20.60931266 11.89363605 18 11 C17.01 10.34 16.02 9.68 15 9 C14.01 9 13.02 9 12 9 C11.34 8.34 10.68 7.68 10 7 C8.68 7 7.36 7 6 7 C6 6.34 6 5.68 6 5 C5.01 5.33 4.02 5.66 3 6 C3 5.34 3 4.68 3 4 C2.01 4 1.02 4 0 4 C-0.33 3.01 -0.66 2.02 -1 1 C-0.67 0.67 -0.34 0.34 0 0 Z " fill="#8A8A8A" transform="translate(367,647)"/>
<path d="M0 0 C-0.33 0.99 -0.66 1.98 -1 3 C-0.01 3.99 -0.01 3.99 1 5 C1 5.66 1 6.32 1 7 C-1.4375 6.625 -1.4375 6.625 -4 6 C-4.495 5.01 -4.495 5.01 -5 4 C-7.1621672 4.23523578 -9.32362683 4.47464585 -11.484375 4.72265625 C-13.05526008 4.89584389 -14.62818102 5.05234842 -16.203125 5.18359375 C-20.64581276 5.59903593 -23.28043097 6.64124891 -27 9 C-29.96609949 10.11103049 -32.97274627 11.07005931 -36 12 C-35.67 12.66 -35.34 13.32 -35 14 C-40.625 16 -40.625 16 -44 16 C-45.80866318 16.97346276 -45.80866318 16.97346276 -47.5625 18.3125 C-48.16191406 18.74175781 -48.76132813 19.17101562 -49.37890625 19.61328125 C-52.13681721 21.97245809 -52.96484555 23.73383061 -53.4375 27.3125 C-52.87614185 32.04394726 -51.4142399 33.73420532 -48 37 C-44.96588893 38.97806411 -44.96588893 38.97806411 -42 40 C-41.01 39.505 -41.01 39.505 -40 39 C-37.96855359 39.93446535 -35.96466413 40.93224776 -34 42 C-34 42.66 -34 43.32 -34 44 C-33.175 43.773125 -32.35 43.54625 -31.5 43.3125 C-26.85887407 42.89811376 -24.25275335 44.16691666 -20 46 C-20 46.66 -20 47.32 -20 48 C-20.99 48.33 -21.98 48.66 -23 49 C-23.33 49.33 -23.66 49.66 -24 50 C-24 50.66 -24 51.32 -24 52 C-37.79328623 49.04691611 -54.59410716 45.39866675 -64 34 C-65.74441072 31.10211899 -66.00134907 30.07419911 -65.9375 26.5625 C-64.78127734 22.1688539 -63.51464255 20.85564707 -60 18 C-59.45085937 17.53980469 -58.90171875 17.07960938 -58.3359375 16.60546875 C-45.59824559 6.9887651 -15.79407143 -4.18078361 0 0 Z " fill="#7E7E7E" transform="translate(199,638)"/>
<path d="M0 0 C4.91547923 2.77668292 8.88808477 5.44331868 12.1875 10.0625 C13.1908985 13.69017149 13.24005413 15.42572632 12 19 C4.04514173 32.01704081 -14.89501988 35.99433361 -28.71142578 39.48388672 C-31.79744027 40.17983665 -34.85920335 40.6292411 -38 41 C-37.67 40.01 -37.34 39.02 -37 38 C-35.35 38 -33.7 38 -32 38 C-32.33 36.68 -32.66 35.36 -33 34 C-30.66705225 33.95758277 -28.33297433 33.95907063 -26 34 C-25.67 34.33 -25.34 34.66 -25 35 C-23.02 34.34 -21.04 33.68 -19 33 C-19 32.34 -19 31.68 -19 31 C-17.515 30.505 -17.515 30.505 -16 30 C-17.485 29.505 -17.485 29.505 -19 29 C-16.1875 27.4375 -16.1875 27.4375 -13 26 C-11.515 26.495 -11.515 26.495 -10 27 C-7.93807152 25.90648582 -7.93807152 25.90648582 -5.9375 24.25 C-5.24527344 23.71890625 -4.55304688 23.1878125 -3.83984375 22.640625 C-0.98921979 20.09866732 -0.04858948 18.43730529 0.375 14.625 C-0.07540024 10.27113104 -0.8052387 8.9551542 -4 6 C-6.56369141 4.4040261 -9.12910232 2.95696589 -12 2 C-12.99 2.495 -12.99 2.495 -14 3 C-15.32 2.01 -16.64 1.02 -18 0 C-17.67 -0.33 -17.34 -0.66 -17 -1 C-17.85464844 -1.25394531 -18.70929688 -1.50789062 -19.58984375 -1.76953125 C-20.69457031 -2.11371094 -21.79929687 -2.45789063 -22.9375 -2.8125 C-24.59072266 -3.31716797 -24.59072266 -3.31716797 -26.27734375 -3.83203125 C-27.17582031 -4.21746094 -28.07429688 -4.60289062 -29 -5 C-29.33 -5.99 -29.66 -6.98 -30 -8 C-21.1046967 -10.9651011 -8.22568036 -3.85185032 0 0 Z " fill="#828282" transform="translate(436,651)"/>
<path d="M0 0 C2.2969535 0.00315682 4.59260879 -0.02039862 6.8894043 -0.0456543 C17.37942489 -0.08805264 27.23666175 1.16570042 37.49682617 3.31567383 C37.99182617 4.80067383 37.99182617 4.80067383 38.49682617 6.31567383 C40.51190975 7.04891179 40.51190975 7.04891179 42.49682617 7.31567383 C15.77864133 8.57837336 -10.78498899 8.57837336 -37.50317383 7.31567383 C-36.51317383 6.65567383 -35.52317383 5.99567383 -34.50317383 5.31567383 C-33.74415771 4.80351318 -32.9851416 4.29135254 -32.203125 3.76367188 C-23.10859377 -1.11377317 -10.12719632 -0.02895016 0 0 Z " fill="#949494" transform="translate(288.503173828125,693.684326171875)"/>
<path d="M0 0 C0 0.66 0 1.32 0 2 C0.63808594 1.91621094 1.27617187 1.83242188 1.93359375 1.74609375 C3.17302734 1.59333984 3.17302734 1.59333984 4.4375 1.4375 C5.67306641 1.28087891 5.67306641 1.28087891 6.93359375 1.12109375 C7.95646484 1.06115234 7.95646484 1.06115234 9 1 C9.495 1.495 9.495 1.495 10 2 C13.33640206 1.99092135 16.66211279 1.86661709 19.99609375 1.7421875 C20.98738281 1.82726562 21.97867188 1.91234375 23 2 C23.66 2.99 24.32 3.98 25 5 C22.36 5 19.72 5 17 5 C17 6.32 17 7.64 17 9 C16.41992188 9.03738281 15.83984375 9.07476563 15.2421875 9.11328125 C14.46101563 9.17902344 13.67984375 9.24476563 12.875 9.3125 C11.72644531 9.39951172 11.72644531 9.39951172 10.5546875 9.48828125 C7.85233954 9.89779718 7.85233954 9.89779718 5.16015625 11.55078125 C1.26640185 13.3364214 -1.17995482 13.20412639 -5.4375 12.875 C-6.14962646 12.822229 -6.86175293 12.76945801 -7.59545898 12.71508789 C-17.77050061 11.88559494 -27.89439052 10.42413667 -38 9 C-37.34 8.67 -36.68 8.34 -36 8 C-36 7.34 -36 6.68 -36 6 C-35.38125 5.71125 -34.7625 5.4225 -34.125 5.125 C-31.86674235 4.06279958 -31.86674235 4.06279958 -30 2 C-30 2.66 -30 3.32 -30 4 C-28.2709226 4.02725341 -26.54171824 4.04650987 -24.8125 4.0625 C-23.36810547 4.07990234 -23.36810547 4.07990234 -21.89453125 4.09765625 C-19.14423487 4.00486622 -16.67520409 3.62111685 -14 3 C-14.33 3.66 -14.66 4.32 -15 5 C-13.02 5 -11.04 5 -9 5 C-9 4.34 -9 3.68 -9 3 C-8.34 3 -7.68 3 -7 3 C-7 2.34 -7 1.68 -7 1 C-4 0 -4 0 0 0 Z " fill="#929292" transform="translate(241,687)"/>
<path d="M0 0 C8.25842697 1.1011236 8.25842697 1.1011236 11.9375 3 C13.9668536 4.10050928 13.9668536 4.10050928 16.25390625 4.39453125 C22.66169321 5.80734345 29.78189616 9.16310181 34.3125 14 C36 17 36 17 36.1875 20.0625 C33.85434836 25.83398036 28.49531015 28.62653654 23.09765625 31.2265625 C20.88302483 32.04313051 18.90591446 32.38185503 16.5625 32.625 C15.386875 32.74875 14.21125 32.8725 13 33 C12.67 33.66 12.34 34.32 12 35 C8.35526801 35.89093449 5.57257469 36.23666047 2 35 C2 34.34 2 33.68 2 33 C2.88042969 32.66226563 3.76085937 32.32453125 4.66796875 31.9765625 C5.82941406 31.53054688 6.99085938 31.08453125 8.1875 30.625 C9.33605469 30.18414063 10.48460937 29.74328125 11.66796875 29.2890625 C13.31732422 28.65097656 13.31732422 28.65097656 15 28 C15.9178125 27.66355469 16.835625 27.32710937 17.78125 26.98046875 C20.89279469 25.60547277 22.20660863 23.8561418 24 21 C24.37955141 17.81176817 24.02200151 16.06600453 23 13 C20.60931266 11.89363605 20.60931266 11.89363605 18 11 C17.01 10.34 16.02 9.68 15 9 C14.01 9 13.02 9 12 9 C11.34 8.34 10.68 7.68 10 7 C8.68 7 7.36 7 6 7 C6 6.34 6 5.68 6 5 C5.01 5.33 4.02 5.66 3 6 C3 5.34 3 4.68 3 4 C2.01 4 1.02 4 0 4 C-0.33 3.01 -0.66 2.02 -1 1 C-0.67 0.67 -0.34 0.34 0 0 Z " fill="#959595" transform="translate(367,647)"/>
<path d="M0 0 C0 0.66 0 1.32 0 2 C-0.99 2 -1.98 2 -3 2 C-3.33 2.66 -3.66 3.32 -4 4 C-4.66 3.67 -5.32 3.34 -6 3 C-6.33 3.66 -6.66 4.32 -7 5 C-7.99 5 -8.98 5 -10 5 C-10.474375 5.474375 -10.94875 5.94875 -11.4375 6.4375 C-13.2752023 8.2752023 -14.51405771 8.43865819 -17 9 C-17.66 9.66 -18.32 10.32 -19 11 C-19.66 11 -20.32 11 -21 11 C-22.83115894 11.99515224 -22.83115894 11.99515224 -24 14 C-24.47658177 17.43524752 -24.47658177 17.43524752 -23 21 C-19.15370028 24.47482611 -15.07426082 26.91265839 -10 28 C-8.59592397 28.43242416 -7.19962114 28.89093896 -5.8125 29.375 C-5.11769531 29.60960937 -4.42289063 29.84421875 -3.70703125 30.0859375 C-2 31 -2 31 -1 34 C-10.33516558 34 -22.49722974 28.45085365 -29.6796875 22.58984375 C-31.95827716 19.84609821 -32 17.50229482 -32 14 C-32.87754191 16.20438833 -32.87754191 16.20438833 -33 19 C-31.16682624 22.29248108 -31.16682624 22.29248108 -29 25 C-32.34861059 23.61436803 -34.29014301 22.23972904 -36 19 C-36.13702696 15.84837986 -35.76145781 13.93992448 -33.75 11.45703125 C-27.18206289 5.31537852 -18.86950452 1.90505148 -10 1 C-9.319375 0.62875 -8.63875 0.2575 -7.9375 -0.125 C-5.10595852 -1.40376067 -2.95479761 -0.67154491 0 0 Z " fill="#959595" transform="translate(215,649)"/>
<path d="M0 0 C1.71899506 -0.00472824 1.71899506 -0.00472824 3.47271729 -0.009552 C4.70600769 -0.00752777 5.9392981 -0.00550354 7.20996094 -0.00341797 C8.49433044 -0.00437469 9.77869995 -0.00533142 11.10198975 -0.00631714 C13.82549236 -0.00779028 16.54896215 -0.00565608 19.27246094 -0.00097656 C22.71156228 0.00465307 26.15058507 0.00139706 29.58968353 -0.00442886 C43.48725306 -0.0242847 57.33465965 0.00307134 71.19433594 1.12939453 C68.24573121 4.25208662 66.80046536 5.62315162 62.44433594 5.87939453 C61.64511719 5.93611328 60.84589844 5.99283203 60.02246094 6.05126953 C59.41917969 6.07705078 58.81589844 6.10283203 58.19433594 6.12939453 C58.52433594 5.13939453 58.85433594 4.14939453 59.19433594 3.12939453 C58.42734375 3.27086914 57.66035156 3.41234375 56.87011719 3.55810547 C46.86322064 5.21139355 37.08486654 5.43678177 26.96289062 5.39013672 C24.19867017 5.37941135 21.43509936 5.39009378 18.67089844 5.40283203 C8.65337772 5.409557 -0.92750079 4.9514591 -10.80566406 3.12939453 C-10.80566406 2.46939453 -10.80566406 1.80939453 -10.80566406 1.12939453 C-7.14141293 0.28598365 -3.75679829 0.00297841 0 0 Z " fill="#7B7B7B" transform="translate(266.8056640625,629.87060546875)"/>
<path d="M0 0 C1.21236328 0.01353516 1.21236328 0.01353516 2.44921875 0.02734375 C3.37154297 0.04474609 3.37154297 0.04474609 4.3125 0.0625 C3.6525 1.3825 2.9925 2.7025 2.3125 4.0625 C2.90417969 4.18367187 3.49585938 4.30484375 4.10546875 4.4296875 C8.35053585 5.32994643 12.33689661 6.26706621 16.3125 8.0625 C15.9825 8.7225 15.6525 9.3825 15.3125 10.0625 C16.3025 10.0625 17.2925 10.0625 18.3125 10.0625 C24.6155623 11.60324856 28.70390157 14.64960235 32.3125 20.0625 C32.84184386 23.50323509 33.00564451 25.93121397 31.14453125 28.96875 C28.32651155 32.38804383 25.434751 35.27990497 21.3125 37.0625 C19.8275 36.5675 19.8275 36.5675 18.3125 36.0625 C17.3225 36.7225 16.3325 37.3825 15.3125 38.0625 C15.9725 38.3925 16.6325 38.7225 17.3125 39.0625 C16.3225 40.0525 15.3325 41.0425 14.3125 42.0625 C14.3125 41.4025 14.3125 40.7425 14.3125 40.0625 C13.6525 40.0625 12.9925 40.0625 12.3125 40.0625 C12.6425 41.0525 12.9725 42.0425 13.3125 43.0625 C11.3325 43.5575 11.3325 43.5575 9.3125 44.0625 C9.3125 43.4025 9.3125 42.7425 9.3125 42.0625 C8.6525 41.7325 7.9925 41.4025 7.3125 41.0625 C8.3025 40.5675 8.3025 40.5675 9.3125 40.0625 C9.3125 39.4025 9.3125 38.7425 9.3125 38.0625 C9.90417969 37.75957031 10.49585938 37.45664062 11.10546875 37.14453125 C19.65559865 32.68701287 19.65559865 32.68701287 24.4375 24.625 C24.27934846 20.11768114 22.46089782 18.05013073 19.3125 15.0625 C16.20296869 13.01386761 16.20296869 13.01386761 12.75 11.4375 C12.14518799 11.14391602 11.54037598 10.85033203 10.91723633 10.54785156 C5.94146574 8.19668468 0.84379831 6.46888737 -4.45703125 4.984375 C-5.19308594 4.68015625 -5.92914063 4.3759375 -6.6875 4.0625 C-7.0175 3.0725 -7.3475 2.0825 -7.6875 1.0625 C-4.80538698 0.10179566 -2.98899956 -0.04331883 0 0 Z " fill="#929292" transform="translate(404.6875,641.9375)"/>
<path d="M0 0 C0 0.99 0 1.98 0 3 C0.66 3.33 1.32 3.66 2 4 C1.67 4.66 1.34 5.32 1 6 C0.21625 6.144375 -0.5675 6.28875 -1.375 6.4375 C-4.02049078 6.73861668 -4.02049078 6.73861668 -5.33300781 8.45996094 C-7.5616899 10.51891328 -9.32029766 10.70482992 -12.296875 11.203125 C-13.3384375 11.3784375 -14.38 11.55375 -15.453125 11.734375 C-17.08507812 11.98960937 -17.08507812 11.98960937 -18.75 12.25 C-19.8225 12.435625 -20.895 12.62125 -22 12.8125 C-27.63610152 13.72871355 -32.40646873 14.2465584 -38 13 C-38 12.34 -38 11.68 -38 11 C-39.32 10.34 -40.64 9.68 -42 9 C-41.34 8.67 -40.68 8.34 -40 8 C-40.33 7.34 -40.66 6.68 -41 6 C-38.69 6.33 -36.38 6.66 -34 7 C-34.33 6.34 -34.66 5.68 -35 5 C-32.69 5.33 -30.38 5.66 -28 6 C-28.66 5.34 -29.32 4.68 -30 4 C-28.39125 4.2784375 -28.39125 4.2784375 -26.75 4.5625 C-23.59608454 4.9304568 -21.90181508 5.04465343 -19 4 C-19.33 3.34 -19.66 2.68 -20 2 C-19.2575 2.20625 -18.515 2.4125 -17.75 2.625 C-14.52812759 3.06434624 -13.81855612 2.41447835 -11 1 C-8.7109375 0.5859375 -8.7109375 0.5859375 -6.375 0.375 C-5.59898437 0.30023437 -4.82296875 0.22546875 -4.0234375 0.1484375 C-2 0 -2 0 0 0 Z " fill="#828282" transform="translate(403,683)"/>
<path d="M0 0 C2.31 0.66 4.62 1.32 7 2 C4.21002214 3.85998524 1.64644108 4.90368129 -1.49731445 6.00439453 C-14.48953119 10.49703066 -14.48953119 10.49703066 -24 20 C-24 24.14251048 -23.52178202 26.3151611 -21 29.625 C-17.24055624 32.60122631 -13.2588798 34.81952777 -9 37 C-9.33 37.99 -9.66 38.98 -10 40 C-11.65 39.67 -13.3 39.34 -15 39 C-14.67 38.34 -14.34 37.68 -14 37 C-16.39068734 35.89363605 -16.39068734 35.89363605 -19 35 C-19.99 35.495 -19.99 35.495 -21 36 C-22.27609323 35.09066991 -23.54565553 34.17217147 -24.8125 33.25 C-25.87404297 32.48429688 -25.87404297 32.48429688 -26.95703125 31.703125 C-30.31145302 28.90670455 -31.85353475 26.98864046 -32.5 22.625 C-31.89046264 18.20585412 -30.2842944 15.8502106 -27 13 C-24.69135095 11.32281951 -22.62383325 10.21473762 -20 9 C-19.01 9.33 -18.02 9.66 -17 10 C-16.34 9.67 -15.68 9.34 -15 9 C-15.33 8.34 -15.66 7.68 -16 7 C-15.01257813 6.66226563 -14.02515625 6.32453125 -13.0078125 5.9765625 C-11.71343623 5.52634467 -10.41917113 5.07580716 -9.125 4.625 C-8.47402344 4.40328125 -7.82304687 4.1815625 -7.15234375 3.953125 C-4.23449455 2.93037374 -2.21443349 2.21443349 0 0 Z " fill="#929292" transform="translate(177,643)"/>
<path d="M0 0 C0.99386719 0.19464844 1.98773438 0.38929688 3.01171875 0.58984375 C4.15060547 0.82380859 4.15060547 0.82380859 5.3125 1.0625 C2.69308783 2.80877478 1.27425123 3.44972388 -1.6875 4.0625 C-0.054765 7.32796999 3.52509959 7.68710687 6.8125 8.8125 C14.82674762 11.69034346 24.0660073 15.1485818 28.3125 23.0625 C28.38809775 27.29597407 27.87277472 29.34942308 25.25 32.6875 C19.60600926 37.25072656 14.41803731 40.4341477 7.3125 42.0625 C7.3125 41.4025 7.3125 40.7425 7.3125 40.0625 C7.97636719 39.75957031 8.64023437 39.45664062 9.32421875 39.14453125 C16.64873344 35.70886533 16.64873344 35.70886533 22.3125 30.0625 C23.6434316 26.66280189 23.6434316 26.66280189 23.3125 23.0625 C19.69030151 16.48888053 13.08487224 13.76433879 6.3125 11.0625 C3.61286872 10.33992211 1.09793139 10.1604062 -1.6875 10.0625 C-4.02115485 9.87904505 -6.35447292 9.69127299 -8.6875 9.5 C-10.68736175 9.35228294 -12.6873173 9.20580577 -14.6875 9.0625 C-14.6875 8.0725 -14.6875 7.0825 -14.6875 6.0625 C-12.0475 4.7425 -9.4075 3.4225 -6.6875 2.0625 C-7.3475 1.4025 -8.0075 0.7425 -8.6875 0.0625 C-5.21237282 -1.09587573 -3.55079714 -0.71015943 0 0 Z " fill="#7F7F7F" transform="translate(401.6875,639.9375)"/>
<path d="M0 0 C2.3243602 0.69730806 4.65673706 1.36912152 7 2 C7 2.99 7 3.98 7 5 C-4.52164009 5.18451025 -4.52164009 5.18451025 -10 4 C-7.53721199 6.46278801 -5.29323018 6.99771255 -2 8 C-2 8.66 -2 9.32 -2 10 C-4.64 10 -7.28 10 -10 10 C-10.33 9.01 -10.66 8.02 -11 7 C-16.445 6.505 -16.445 6.505 -22 6 C-21.67 6.66 -21.34 7.32 -21 8 C-22.65 7.67 -24.3 7.34 -26 7 C-26.33 6.01 -26.66 5.02 -27 4 C-28.62332967 2.61423077 -30.28724465 1.27358732 -32 0 C-28.46042297 -0.53574161 -24.91814195 -1.05091141 -21.375 -1.5625 C-20.37597656 -1.71396484 -19.37695312 -1.86542969 -18.34765625 -2.02148438 C-11.4608141 -3.00206124 -6.29102143 -3.24082922 0 0 Z " fill="#868686" transform="translate(232,636)"/>
<path d="M0 0 C2.2969535 0.00315682 4.59260879 -0.02039862 6.8894043 -0.0456543 C17.37942489 -0.08805264 27.23666175 1.16570042 37.49682617 3.31567383 C37.99182617 4.80067383 37.99182617 4.80067383 38.49682617 6.31567383 C40.51190975 7.04891179 40.51190975 7.04891179 42.49682617 7.31567383 C41.14375155 7.39851513 39.78910206 7.45567751 38.43432617 7.50317383 C37.68022461 7.53797852 36.92612305 7.5727832 36.14916992 7.60864258 C33.49682617 7.31567383 33.49682617 7.31567383 30.51464844 5.82226562 C25.63655585 3.68522783 20.80864188 3.88509701 15.55932617 3.91723633 C14.52042236 3.91436615 13.48151855 3.91149597 12.41113281 3.90853882 C10.2225693 3.90650446 8.03398734 3.91199021 5.84545898 3.92456055 C2.50747783 3.94062257 -0.82929256 3.92468986 -4.16723633 3.90551758 C-6.30005148 3.90750012 -8.43286589 3.91134402 -10.56567383 3.91723633 C-11.55752686 3.91116364 -12.54937988 3.90509094 -13.57128906 3.89883423 C-19.36939765 3.95729596 -23.32090408 4.72050854 -28.50317383 7.31567383 C-31.15551758 7.60864258 -31.15551758 7.60864258 -33.44067383 7.50317383 C-34.21282227 7.47610352 -34.9849707 7.4490332 -35.78051758 7.42114258 C-36.34899414 7.38633789 -36.9174707 7.3515332 -37.50317383 7.31567383 C-36.51317383 6.65567383 -35.52317383 5.99567383 -34.50317383 5.31567383 C-33.74415771 4.80351318 -32.9851416 4.29135254 -32.203125 3.76367188 C-23.10859377 -1.11377317 -10.12719632 -0.02895016 0 0 Z " fill="#7F7F7F" transform="translate(288.503173828125,693.684326171875)"/>
<path d="M0 0 C13.55675676 6.0972973 13.55675676 6.0972973 17 12 C17.67712544 15.68657183 17.47800265 17.25334776 15.45703125 20.41015625 C12.3526493 23.68234263 9.1408046 25.40762417 5.125 27.375 C4.43019531 27.74238281 3.73539062 28.10976563 3.01953125 28.48828125 C-1.37561742 30.68171703 -4.08497432 31.43290717 -9 30 C-5.89902436 26.89902436 -1.90357377 25.54426661 2.0546875 23.73046875 C5.26521637 21.84417659 6.97542591 20.10759927 9 17 C9.08686323 12.83056514 8.30519484 11.35214789 5.5625 8.1875 C3.21880622 6.00916013 3.21880622 6.00916013 1 5 C0.375 2.4375 0.375 2.4375 0 0 Z " fill="#919191" transform="translate(400,651)"/>
<path d="M0 0 C0 0.99 0 1.98 0 3 C-0.60328125 3.31453125 -1.2065625 3.6290625 -1.828125 3.953125 C-9.56484832 7.8557098 -9.56484832 7.8557098 -14 14.9375 C-14.27142332 18.09662916 -14.27142332 18.09662916 -12.3125 20.6875 C-10.11478005 23.00796162 -10.11478005 23.00796162 -7.75 24.625 C-7.1725 25.07875 -6.595 25.5325 -6 26 C-6 26.99 -6 27.98 -6 29 C-5.34 29.33 -4.68 29.66 -4 30 C-7.92511991 29.416156 -10.73512799 28.23489976 -14.125 26.1875 C-14.97320312 25.68605469 -15.82140625 25.18460938 -16.6953125 24.66796875 C-20.07156633 22.22447657 -21.78139253 20.25699294 -22.5 16.125 C-21.66559923 10.90999518 -18.50840588 8.1133472 -14.375 5.0625 C-12 4 -12 4 -9 5 C-8.67 4.01 -8.34 3.02 -8 2 C-5.10441559 0.5522078 -3.25811062 0 0 0 Z " fill="#929292" transform="translate(187,650)"/>
<path d="M0 0 C3.3 0 6.6 0 10 0 C6.99586308 2.91025764 4.86129036 4.23309642 0.75 4.625 C-0.4875 4.74875 -1.725 4.8725 -3 5 C-3.33 5.66 -3.66 6.32 -4 7 C-1.69 7.66 0.62 8.32 3 9 C3 9.66 3 10.32 3 11 C-1.29 11 -5.58 11 -10 11 C-10 10.34 -10 9.68 -10 9 C-10.928125 9.165 -11.85625 9.33 -12.8125 9.5 C-19.97589522 10.5046225 -27.25029636 10.91879076 -34 8 C-34 7.67 -34 7.34 -34 7 C-28.06 6.505 -28.06 6.505 -22 6 C-21.67 5.01 -21.34 4.02 -21 3 C-14.4 3 -7.8 3 -1 3 C-0.67 2.01 -0.34 1.02 0 0 Z " fill="#8C8C8C" transform="translate(335,632)"/>
<path d="M0 0 C0.6587915 0.05792725 1.31758301 0.11585449 1.99633789 0.17553711 C3.91594534 0.34893467 5.83309109 0.54895348 7.75 0.75 C8.73355469 0.84925781 9.71710938 0.94851563 10.73046875 1.05078125 C12.73910748 1.264738 14.74506049 1.50377936 16.75 1.75 C10.07845567 8.19915952 1.81497666 9.10312724 -7.09765625 8.953125 C-9.25 8.75 -9.25 8.75 -10.25 7.75 C-12.54581781 7.67811529 -14.82517069 7.75353568 -17.12109375 7.8125 C-19.25 7.75 -19.25 7.75 -21.25 6.75 C-20.92 5.76 -20.59 4.77 -20.25 3.75 C-17.36914062 3.50585938 -17.36914062 3.50585938 -14.48828125 3.26171875 C-12.11387309 2.85991809 -12.11387309 2.85991809 -9.93359375 1.19140625 C-6.35903759 -0.72855186 -4.0107238 -0.37961583 0 0 Z " fill="#898989" transform="translate(352.25,632.25)"/>
<path d="M0 0 C0 0.66 0 1.32 0 2 C-1 3 -2 4 -3 5 C-4.17574711 7.09989652 -4.17574711 7.09989652 -5 9 C-5.66 9 -6.32 9 -7 9 C-7.56597501 14.07854023 -7.56597501 14.07854023 -5.9921875 18.76171875 C-4.20161857 20.89002972 -2.2213126 22.79395034 -0.1875 24.6875 C1 26 1 26 1 29 C-4.91812267 27.6684224 -8.92926746 24.34578204 -13 20 C-14.78145972 17.10583043 -15.00156336 16.08598497 -14.9375 12.5625 C-13.81026946 8.27902396 -12.35765758 6.82348478 -9 4 C-8.154375 3.236875 -7.30875 2.47375 -6.4375 1.6875 C-4 0 -4 0 0 0 Z " fill="#666666" transform="translate(148,652)"/>
<path d="M0 0 C4.9632241 0.45120219 8.40145365 2.70280975 12 6 C14.17611137 9.19616357 14.98045176 11.08123252 15.0625 14.9375 C12.58736837 22.07170292 7.39585061 25.74375477 0.953125 29.25 C0.30859375 29.4975 -0.3359375 29.745 -1 30 C-1.66 29.67 -2.32 29.34 -3 29 C-0.67126065 24.4718957 2.1045846 22.13326891 6 19 C7.41564834 16.16870331 7.24224495 14.14918438 7 11 C5.33193769 6.74644111 3.72397841 4.56826097 0 2 C0 1.34 0 0.68 0 0 Z " fill="#636363" transform="translate(434,652)"/>
<path d="M0 0 C3.79639764 -0.22778386 6.33640676 -0.34687829 9.75 1.4375 C14.37121441 3.6592377 18.93067921 3.73841583 24 4 C24.33 4.99 24.66 5.98 25 7 C28.96 7.33 32.92 7.66 37 8 C33.24351819 10.50432121 30.74050981 11.12573573 26.33203125 11.09765625 C25.43935547 11.09443359 24.54667969 11.09121094 23.62695312 11.08789062 C22.23379883 11.07532227 22.23379883 11.07532227 20.8125 11.0625 C19.87212891 11.05798828 18.93175781 11.05347656 17.96289062 11.04882812 C15.64186288 11.03704626 13.32096356 11.02059558 11 11 C10.67 9.68 10.34 8.36 10 7 C9.34 7 8.68 7 8 7 C7.67 6.34 7.34 5.68 7 5 C6.01 4.67 5.02 4.34 4 4 C3.67 3.34 3.34 2.68 3 2 C2.01 1.34 1.02 0.68 0 0 Z " fill="#8B8B8B" transform="translate(244,631)"/>
<path d="M0 0 C-0.33 0.99 -0.66 1.98 -1 3 C-0.34 3.66 0.32 4.32 1 5 C1 5.66 1 6.32 1 7 C-1.4375 6.625 -1.4375 6.625 -4 6 C-4.495 5.01 -4.495 5.01 -5 4 C-7.1621672 4.23523578 -9.32362683 4.47464585 -11.484375 4.72265625 C-13.05526008 4.89584389 -14.62818102 5.05234842 -16.203125 5.18359375 C-20.58838842 5.59366609 -23.36054001 6.57369334 -27 9 C-29.92936343 9.97645448 -31.79173005 10 -35 10 C-35.639375 10.185625 -36.27875 10.37125 -36.9375 10.5625 C-39.52824823 11.11205265 -41.4549151 10.63627122 -44 10 C-41.33205564 8.22137042 -39.64293741 7.46404682 -36.640625 6.59765625 C-35.77888672 6.34830322 -34.91714844 6.0989502 -34.02929688 5.84204102 C-32.65354492 5.45616821 -32.65354492 5.45616821 -31.25 5.0625 C-30.31220703 4.79816162 -29.37441406 4.53382324 -28.40820312 4.26147461 C-6.590854 -1.78297356 -6.590854 -1.78297356 0 0 Z " fill="#6A6A6A" transform="translate(199,638)"/>
<path d="M0 0 C1.093125 0.185625 2.18625 0.37125 3.3125 0.5625 C6.93624133 1.2578068 6.93624133 1.2578068 10 0 C12.1875 0.9375 12.1875 0.9375 14 2 C9.25 4 9.25 4 7 4 C8.65 5.32 10.3 6.64 12 8 C9.41765641 8.36332974 6.83460218 8.71594867 4.25 9.0625 C3.15558594 9.2181543 3.15558594 9.2181543 2.0390625 9.37695312 C-1.6107296 9.85806208 -4.47672914 10.04532842 -8 9 C-8 8.34 -8 7.68 -8 7 C-9.32 6.34 -10.64 5.68 -12 5 C-11.34 4.67 -10.68 4.34 -10 4 C-10.33 3.34 -10.66 2.68 -11 2 C-8.69 2.33 -6.38 2.66 -4 3 C-4.33 2.34 -4.66 1.68 -5 1 C-2.69 1.33 -0.38 1.66 2 2 C1.34 1.34 0.68 0.68 0 0 Z " fill="#808080" transform="translate(373,687)"/>
<path d="M0 0 C1.27875 -0.061875 2.5575 -0.12375 3.875 -0.1875 C4.95394531 -0.23970703 4.95394531 -0.23970703 6.0546875 -0.29296875 C6.69664062 -0.19628906 7.33859375 -0.09960938 8 0 C8.66 0.99 9.32 1.98 10 3 C7.36 3 4.72 3 2 3 C2 4.32 2 5.64 2 7 C1.41992188 7.03738281 0.83984375 7.07476563 0.2421875 7.11328125 C-4.91007362 7.54688738 -8.36105166 8.62898196 -13 11 C-16.25 11.3125 -16.25 11.3125 -19 11 C-19.66 10.34 -20.32 9.68 -21 9 C-20.03558469 6.58896173 -19.31202953 5.22595242 -17.1875 3.6875 C-15 3 -15 3 -12.8125 3.4375 C-8.77803987 4.24439203 -5.0431999 3.57256643 -1 3 C-0.67 2.01 -0.34 1.02 0 0 Z " fill="#8B8B8B" transform="translate(256,689)"/>
<path d="M0 0 C0.33 0.66 0.66 1.32 1 2 C2.7290774 2.02725341 4.45828176 2.04650987 6.1875 2.0625 C7.63189453 2.07990234 7.63189453 2.07990234 9.10546875 2.09765625 C11.85576513 2.00486622 14.32479591 1.62111685 17 1 C16.67 1.66 16.34 2.32 16 3 C20.455 2.505 20.455 2.505 25 2 C23 5 23 5 21.0546875 5.51171875 C20.33539063 5.56972656 19.61609375 5.62773438 18.875 5.6875 C17.59625 5.790625 16.3175 5.89375 15 6 C15 6.66 15 7.32 15 8 C7.43287011 9.51342598 0.54893619 8.28289506 -7 7 C-6.34 6.67 -5.68 6.34 -5 6 C-5 5.34 -5 4.68 -5 4 C-4.360625 3.71125 -3.72125 3.4225 -3.0625 3.125 C-0.84793921 2.17176549 -0.84793921 2.17176549 0 0 Z " fill="#7D7D7D" transform="translate(210,689)"/>
<path d="M0 0 C2.6444322 0.15712433 5.13935627 0.42183915 7.75 0.8125 C8.45382812 0.90853516 9.15765625 1.00457031 9.8828125 1.10351562 C13.93401989 1.66450996 17.96880802 2.30911961 22 3 C21.38125 3.45375 20.7625 3.9075 20.125 4.375 C17.94080167 5.97108919 17.94080167 5.97108919 16 8 C15.01 8.66 14.02 9.32 13 10 C11.66158328 9.68770276 10.32860925 9.35169068 9 9 C6.31850007 9.38567131 6.31850007 9.38567131 4 10 C4 9.34 4 8.68 4 8 C2.35 8.33 0.7 8.66 -1 9 C-0.01 7.35 0.98 5.7 2 4 C0.68 3.34 -0.64 2.68 -2 2 C-1.34 1.34 -0.68 0.68 0 0 Z " fill="#7F7F7F" transform="translate(372,635)"/>
<path d="M0 0 C2.31 0.33 4.62 0.66 7 1 C7 1.66 7 2.32 7 3 C7.66 3 8.32 3 9 3 C9 3.66 9 4.32 9 5 C9.69867188 5.13277344 10.39734375 5.26554688 11.1171875 5.40234375 C12.02726562 5.57894531 12.93734375 5.75554688 13.875 5.9375 C14.77992188 6.11152344 15.68484375 6.28554688 16.6171875 6.46484375 C19 7 19 7 21 8 C21 8.66 21 9.32 21 10 C21.99 10.33 22.98 10.66 24 11 C21.75067773 11.1954625 19.50049858 11.38108226 17.25 11.5625 C15.37054688 11.71912109 15.37054688 11.71912109 13.453125 11.87890625 C10.60547636 11.97876723 8.65713933 11.90584295 6 11 C6 10.34 6 9.68 6 9 C5.01 8.67 4.02 8.34 3 8 C4.32 7.34 5.64 6.68 7 6 C4.64046906 3.64046906 3.22104383 3.50858587 0 3 C0 2.01 0 1.02 0 0 Z " fill="#868686" transform="translate(341,687)"/>
<path d="M0 0 C0.66 0.33 1.32 0.66 2 1 C2 1.99 2 2.98 2 4 C-24.21359223 13 -24.21359223 13 -31 13 C-30.67 12.01 -30.34 11.02 -30 10 C-28.35 10 -26.7 10 -25 10 C-25.33 8.68 -25.66 7.36 -26 6 C-23.66705225 5.95758277 -21.33297433 5.95907063 -19 6 C-18.67 6.33 -18.34 6.66 -18 7 C-16.02 6.34 -14.04 5.68 -12 5 C-12 4.34 -12 3.68 -12 3 C-10.35 2.67 -8.7 2.34 -7 2 C-7 2.66 -7 3.32 -7 4 C-5.35 3.67 -3.7 3.34 -2 3 C-2 2.34 -2 1.68 -2 1 C-1.34 0.67 -0.68 0.34 0 0 Z " fill="#707070" transform="translate(429,679)"/>
<path d="M0 0 C1.9453125 -0.29296875 1.9453125 -0.29296875 4.125 -0.1875 C5.40375 -0.125625 6.6825 -0.06375 8 0 C8.33 0.99 8.66 1.98 9 3 C9.62648438 3.06058594 10.25296875 3.12117187 10.8984375 3.18359375 C11.71570313 3.26738281 12.53296875 3.35117187 13.375 3.4375 C14.18710937 3.51871094 14.99921875 3.59992187 15.8359375 3.68359375 C18 4 18 4 20 5 C20 5.66 20 6.32 20 7 C21.32 7.33 22.64 7.66 24 8 C24 8.66 24 9.32 24 10 C24.99 10.33 25.98 10.66 27 11 C23.46697478 11.25235894 21.37816676 11.19328523 18.1875 9.5625 C14.14059811 7.57872456 10.45021908 7.2867919 6 7 C5.67 6.01 5.34 5.02 5 4 C2.69 3.67 0.38 3.34 -2 3 C-1.34 2.01 -0.68 1.02 0 0 Z " fill="#8B8B8B" transform="translate(318,689)"/>
<path d="M0 0 C0 0.66 0 1.32 0 2 C-0.99 2.33 -1.98 2.66 -3 3 C-3.33 3.33 -3.66 3.66 -4 4 C-4 4.66 -4 5.32 -4 6 C-6.60607392 5.38221953 -9.20965697 4.75612789 -11.8125 4.125 C-12.55048828 3.95097656 -13.28847656 3.77695312 -14.04882812 3.59765625 C-17.49717037 2.75507489 -20.01928362 1.98714425 -23 0 C-22.67 -0.66 -22.34 -1.32 -22 -2 C-20.02 -1.34 -18.04 -0.68 -16 0 C-16 -0.66 -16 -1.32 -16 -2 C-10.02124328 -3.53739459 -5.71656533 -1.9941507 0 0 Z " fill="#898989" transform="translate(179,684)"/>
<path d="M0 0 C1.423125 0.2784375 1.423125 0.2784375 2.875 0.5625 C5.89868793 1.28686632 5.89868793 1.28686632 8 0 C8.99 0.33 9.98 0.66 11 1 C13.01997634 0.71143195 15.0399008 0.42241333 17.05859375 0.125 C19.52555981 -0.03383886 20.99668881 0.58098791 23 2 C22.67 2.66 22.34 3.32 22 4 C23.32 4 24.64 4 26 4 C26 4.66 26 5.32 26 6 C20.36162382 7.43958541 15.7437741 6.46136029 10.1875 5.25 C9.31673828 5.07984375 8.44597656 4.9096875 7.54882812 4.734375 C6.72189453 4.5590625 5.89496094 4.38375 5.04296875 4.203125 C4.29039795 4.04489258 3.53782715 3.88666016 2.76245117 3.72363281 C2.18084229 3.48483398 1.5992334 3.24603516 1 3 C0.67 2.01 0.34 1.02 0 0 Z " fill="#919191" transform="translate(176,688)"/>
<path d="M0 0 C5.21047642 0.43999579 10.15918951 0.87476613 15 3 C15.99 4.485 15.99 4.485 17 6 C15.68 6.33 14.36 6.66 13 7 C13.66 7.33 14.32 7.66 15 8 C15 8.66 15 9.32 15 10 C16.32 10.33 17.64 10.66 19 11 C16.03 11 13.06 11 10 11 C9.67 10.34 9.34 9.68 9 9 C8.01 8.67 7.02 8.34 6 8 C5.67 6.35 5.34 4.7 5 3 C3.02 3 1.04 3 -1 3 C-0.67 2.01 -0.34 1.02 0 0 Z " fill="#8A8A8A" transform="translate(332,688)"/>
<path d="M0 0 C0 0.66 0 1.32 0 2 C3.63 2 7.26 2 11 2 C11 2.33 11 2.66 11 3 C-19.5392995 3.20638953 -19.5392995 3.20638953 -31 2 C-27.90832918 0.217532 -25.52440167 -0.2947664 -21.97265625 -0.44921875 C-20.53696289 -0.51399414 -20.53696289 -0.51399414 -19.07226562 -0.58007812 C-17.58243164 -0.63325195 -17.58243164 -0.63325195 -16.0625 -0.6875 C-15.07314453 -0.73455078 -14.08378906 -0.78160156 -13.06445312 -0.83007812 C-8.49572786 -1.01749725 -4.47911446 -1.0350325 0 0 Z " fill="#555555" transform="translate(294,699)"/>
<path d="M0 0 C0.99386719 0.19464844 1.98773438 0.38929688 3.01171875 0.58984375 C4.15060547 0.82380859 4.15060547 0.82380859 5.3125 1.0625 C1.6683226 3.4919516 -0.39991272 3.22429575 -4.6875 3.0625 C-5.0175 4.3825 -5.3475 5.7025 -5.6875 7.0625 C-3.3775 7.3925 -1.0675 7.7225 1.3125 8.0625 C-2.42715964 10.55560643 -3.97820641 10.1228261 -8.375 9.6875 C-9.55449219 9.57664062 -10.73398437 9.46578125 -11.94921875 9.3515625 C-12.85285156 9.25617187 -13.75648438 9.16078125 -14.6875 9.0625 C-14.6875 8.0725 -14.6875 7.0825 -14.6875 6.0625 C-12.0475 4.7425 -9.4075 3.4225 -6.6875 2.0625 C-7.3475 1.4025 -8.0075 0.7425 -8.6875 0.0625 C-5.21237282 -1.09587573 -3.55079714 -0.71015943 0 0 Z " fill="#888888" transform="translate(401.6875,639.9375)"/>
<path d="M0 0 C-3.26750417 2.8283235 -5.96600542 4.62330736 -10.125 5.8125 C-10.97320312 6.06644531 -11.82140625 6.32039062 -12.6953125 6.58203125 C-15 7 -15 7 -18 6 C-17.67 5.67 -17.34 5.34 -17 5 C-18.32 4.34 -19.64 3.68 -21 3 C-13.83517359 -1.63606415 -8.30027547 -1.16406302 0 0 Z " fill="#6C6C6C" transform="translate(369,634)"/>
<path d="M0 0 C0.61746094 0.0721875 1.23492187 0.144375 1.87109375 0.21875 C6.93389273 0.77357729 11.85914314 1.04107789 16.94921875 0.96875 C19.69555084 1.01059887 22.31407843 1.44904173 25 2 C25 2.99 25 3.98 25 5 C22.03 4.67 19.06 4.34 16 4 C16 4.66 16 5.32 16 6 C11.08570273 5.49162442 6.58430352 4.96470151 2 3 C1.34 2.01 0.68 1.02 0 0 Z " fill="#8E8E8E" transform="translate(221,639)"/>
<path d="M0 0 C5.28 0.33 10.56 0.66 16 1 C16 2.32 16 3.64 16 5 C16.87011719 4.94779297 16.87011719 4.94779297 17.7578125 4.89453125 C23.009134 4.71255476 26.39511219 5.16622289 31 8 C31 8.33 31 8.66 31 9 C27.04 9 23.08 9 19 9 C18.67 8.34 18.34 7.68 18 7 C17.01 6.67 16.02 6.34 15 6 C14.67 5.34 14.34 4.68 14 4 C11.66255706 3.53193355 9.30260921 3.17330206 6.9375 2.875 C5.64714844 2.70742188 4.35679687 2.53984375 3.02734375 2.3671875 C2.02832031 2.24601563 1.02929688 2.12484375 0 2 C0 1.34 0 0.68 0 0 Z " fill="#939393" transform="translate(308,691)"/>
<path d="M0 0 C0.66 0.33 1.32 0.66 2 1 C1.45730469 1.38671875 0.91460937 1.7734375 0.35546875 2.171875 C-0.71767578 2.95304688 -0.71767578 2.95304688 -1.8125 3.75 C-2.52019531 4.26046875 -3.22789062 4.7709375 -3.95703125 5.296875 C-6.07191946 7.05995581 -7.55719483 8.65601053 -9 11 C-9 15.35649522 -8.5491492 17.36179958 -5.6875 20.6875 C-4.800625 21.450625 -3.91375 22.21375 -3 23 C-1.66666667 24.33333333 -0.33333333 25.66666667 1 27 C-3.91427279 25.51082643 -7.40319126 22.55813338 -11 19 C-12.57455739 15.85088521 -12.34799118 13.47991184 -12 10 C-8.78937321 5.03812224 -5.32130037 2.51004734 0 0 Z " fill="#999999" transform="translate(157,652)"/>
<path d="M0 0 C6.32614095 1.65684644 10.34872677 4.52309016 14 10 C14.52934386 13.44073509 14.69314451 15.86871397 12.83203125 18.90625 C10.00653965 22.33460999 7.11414795 25.1714898 3 27 C2.34 26.67 1.68 26.34 1 26 C1.55429687 25.61328125 2.10859375 25.2265625 2.6796875 24.828125 C3.40414063 24.30734375 4.12859375 23.7865625 4.875 23.25 C5.59429687 22.73953125 6.31359375 22.2290625 7.0546875 21.703125 C9.13078184 19.88550023 10.04438609 18.57165209 11 16 C11.06604674 12.43347593 10.93748165 10.03099005 8.47265625 7.3203125 C7.27226003 6.30010261 6.04485263 5.31056923 4.7890625 4.359375 C3.0316082 3.02401671 1.52564595 1.59116449 0 0 Z " fill="#999999" transform="translate(423,652)"/>
<path d="M0 0 C0 0.66 0 1.32 0 2 C1.32 2.33 2.64 2.66 4 3 C4 3.66 4 4.32 4 5 C-0.18831424 7.39332242 -3.15250576 8.55085162 -8 8 C-8.66 7.34 -9.32 6.68 -10 6 C-9.01958581 3.54896452 -8.3486182 2.23241214 -6.125 0.75 C-4 0 -4 0 0 0 Z " fill="#878787" transform="translate(245,692)"/>
<path d="M0 0 C4.48556947 1.18735662 7.04816929 3.54264027 9.890625 7.06640625 C11 9 11 9 11.125 12.625 C9.90691096 16.27926713 8.7566168 18.31995589 6 21 C3.25 22.3125 3.25 22.3125 1 23 C1.63228516 22.34644531 1.63228516 22.34644531 2.27734375 21.6796875 C4.88457436 18.84547446 6.78539915 16.58419121 8.125 12.9375 C7.88525056 7.30338822 3.95932695 3.67651788 0 0 Z " fill="#808080" transform="translate(424,654)"/>
<path d="M0 0 C0.66 0.33 1.32 0.66 2 1 C1.05125 1.7425 0.1025 2.485 -0.875 3.25 C-4.22481111 6.07109924 -4.22481111 6.07109924 -6 10 C-5.67231698 13.2112936 -5.02051744 15.93844769 -4 19 C-2.68352881 19.69937532 -1.34977849 20.36729133 0 21 C0.33 21.66 0.66 22.32 1 23 C-3.42734904 21.6471989 -5.55040063 19.93685614 -8 16 C-9.1875 12.6875 -9.1875 12.6875 -9 9 C-6.64666951 5.41244999 -3.88338368 1.94169184 0 0 Z " fill="#808080" transform="translate(156,654)"/>
<path d="M0 0 C3 2 3 2 3.9375 5.25 C4.01423811 9.85428675 2.78145251 11.42384677 0 15 C-0.350625 15.721875 -0.70125 16.44375 -1.0625 17.1875 C-2.13758178 19.26599145 -3.17913824 20.52930396 -5 22 C-7.1875 22.6875 -7.1875 22.6875 -9 23 C-6.80784484 17.76318489 -4.35268 15.40644522 0 12 C1.89679663 8.20640675 1.21724428 3.95604392 0 0 Z " fill="#555555" transform="translate(440,659)"/>
<path d="M0 0 C0 0.66 0 1.32 0 2 C-1.65 2 -3.3 2 -5 2 C-4.34 3.65 -3.68 5.3 -3 7 C-4.65 6.67 -6.3 6.34 -8 6 C-8.33 5.01 -8.66 4.02 -9 3 C-10.62332967 1.61423077 -12.28724465 0.27358732 -14 -1 C-9.01785011 -2.06760355 -4.66040125 -2.33020062 0 0 Z " fill="#6B6B6B" transform="translate(214,637)"/>
<path d="M0 0 C0.33 0.66 0.66 1.32 1 2 C0.67 2.66 0.34 3.32 0 4 C-0.57819271 8.24007989 -0.24681989 9.6597888 2.3125 13.1875 C3.77803065 14.72119486 5.25991842 16.24199301 6.8125 17.6875 C8 19 8 19 8 22 C5.97954558 21.39816251 3.97888961 20.72693904 2 20 C1.67 19.34 1.34 18.68 1 18 C1.66 17.67 2.32 17.34 3 17 C2.195625 16.13375 1.39125 15.2675 0.5625 14.375 C-1.96137076 11.31903113 -3 9.06480711 -3 5 C-1.5625 2.125 -1.5625 2.125 0 0 Z " fill="#555555" transform="translate(141,659)"/>
<path d="M0 0 C0.66 0.33 1.32 0.66 2 1 C1.21625 1.5775 0.4325 2.155 -0.375 2.75 C-3.47873748 5.39360816 -3.47873748 5.39360816 -5 9 C-4.87906587 14.56296986 -2.62943513 17.09137755 1 21 C-2.46825232 20.03659658 -3.95927135 19.04608768 -6.375 16.3125 C-8.42610301 12.13140541 -8.49495896 10.40619483 -7 6 C-4.8719703 3.69463449 -2.55103994 1.81836529 0 0 Z " fill="#8E8E8E" transform="translate(164,655)"/>
<path d="M0 0 C4.87442507 1.39269288 7.27944235 3.75913073 10 8 C10.15980727 12.55450711 9.49349235 14.38962788 6.625 17.9375 C4 20 4 20 1 20 C1.804375 19.29875 2.60875 18.5975 3.4375 17.875 C6.30829846 14.65410417 7.08745867 13.2854747 7 9 C5.09362145 5.52766764 2.94520383 2.65068345 0 0 Z " fill="#8E8E8E" transform="translate(416,655)"/>
<path d="M0 0 C2.8125 1 2.8125 1 5 2 C5 2.66 5 3.32 5 4 C1.7 4.66 -1.6 5.32 -5 6 C-5 5.34 -5 4.68 -5 4 C-6.32 3.67 -7.64 3.34 -9 3 C-8.34 3 -7.68 3 -7 3 C-7 2.34 -7 1.68 -7 1 C-4.44744228 -0.27627886 -2.84227731 -0.19829842 0 0 Z " fill="#8A8A8A" transform="translate(250,688)"/>
<path d="M0 0 C0.53625 0.185625 1.0725 0.37125 1.625 0.5625 C4.07544599 1.16553707 4.07544599 1.16553707 6.8125 0.4375 C10.68218239 -0.09363288 13.33651732 0.75441589 17 2 C15.68 3.32 14.36 4.64 13 6 C13 5.34 13 4.68 13 4 C12.195625 4.309375 12.195625 4.309375 11.375 4.625 C8.16732692 5.1314747 5.98682934 4.15400225 3 3 C2.67 3.66 2.34 4.32 2 5 C1.67 4.34 1.34 3.68 1 3 C1.33 2.34 1.66 1.68 2 1 C1.34 0.67 0.68 0.34 0 0 Z " fill="#909090" transform="translate(173,685)"/>
<path d="M0 0 C8.57142857 -0.28571429 8.57142857 -0.28571429 12 2 C12 2.66 12 3.32 12 4 C13.32 4.33 14.64 4.66 16 5 C9.80112515 5.37952295 5.5522888 4.8352113 0 2 C0 1.34 0 0.68 0 0 Z " fill="#5E5E5E" transform="translate(315,696)"/>
<path d="M0 0 C1.5778125 0.39638672 1.5778125 0.39638672 3.1875 0.80078125 C6 1.6875 6 1.6875 9 3.6875 C3.62628627 5.03092843 0.20691466 4.13860736 -5 2.6875 C-5.99 2.6875 -6.98 2.6875 -8 2.6875 C-8.33 1.6975 -8.66 0.7075 -9 -0.3125 C-5.34329569 -1.53140144 -3.69664856 -0.95587359 0 0 Z " fill="#6C6C6C" transform="translate(415,643.3125)"/>
<path d="M0 0 C0 0.66 0 1.32 0 2 C-5.5522888 4.8352113 -9.80112515 5.37952295 -16 5 C-15.01 4.34 -14.02 3.68 -13 3 C-12.278125 2.46375 -11.55625 1.9275 -10.8125 1.375 C-6.98148982 -0.49793831 -4.23500498 -0.21533924 0 0 Z " fill="#5D5D5D" transform="translate(267,696)"/>
<path d="M0 0 C0.33 0.66 0.66 1.32 1 2 C-0.65 2.66 -2.3 3.32 -4 4 C-3.67 4.66 -3.34 5.32 -3 6 C-8.625 8 -8.625 8 -12 8 C-12.66 7.67 -13.32 7.34 -14 7 C-13.01 6.01 -12.02 5.02 -11 4 C-11.33 3.34 -11.66 2.68 -12 2 C-11.07767578 1.90912109 -11.07767578 1.90912109 -10.13671875 1.81640625 C-9.32847656 1.73261719 -8.52023438 1.64882813 -7.6875 1.5625 C-6.88699219 1.48128906 -6.08648437 1.40007813 -5.26171875 1.31640625 C-2.83912821 1.04734307 -2.83912821 1.04734307 0 0 Z " fill="#838383" transform="translate(167,646)"/>
<path d="M0 0 C2.3828125 0.0234375 2.3828125 0.0234375 5.125 0.375 C6.03507812 0.48585938 6.94515625 0.59671875 7.8828125 0.7109375 C8.93082031 0.85402344 8.93082031 0.85402344 10 1 C7.9927092 4.0109362 7.16115776 4.63016497 4 6 C4 6.66 4 7.32 4 8 C2.35 8.33 0.7 8.66 -1 9 C-0.01 7.35 0.98 5.7 2 4 C0.68 3.34 -0.64 2.68 -2 2 C-1.34 1.34 -0.68 0.68 0 0 Z " fill="#696969" transform="translate(372,635)"/>
<path d="M0 0 C3.3 0 6.6 0 10 0 C5.73688282 4.12989477 2.71241466 4.61271765 -3 5 C-3.33 5.99 -3.66 6.98 -4 8 C-4.99 8 -5.98 8 -7 8 C-7 7.34 -7 6.68 -7 6 C-6.34 6 -5.68 6 -5 6 C-4.67 5.01 -4.34 4.02 -4 3 C-3.01 3 -2.02 3 -1 3 C-0.67 2.01 -0.34 1.02 0 0 Z " fill="#949494" transform="translate(335,632)"/>
<path d="M0 0 C3.3 0 6.6 0 10 0 C10.33 0.99 10.66 1.98 11 3 C13.01508358 3.73323796 13.01508358 3.73323796 15 4 C15 4.66 15 5.32 15 6 C15.66 6 16.32 6 17 6 C17 6.66 17 7.32 17 8 C16.01 8 15.02 8 14 8 C13.67 7.01 13.34 6.02 13 5 C11.783125 4.9175 10.56625 4.835 9.3125 4.75 C5.21534129 4.26241628 2.99860092 2.90489464 0 0 Z " fill="#949494" transform="translate(237,632)"/>
<path d="M0 0 C2.31 0 4.62 0 7 0 C6.67 1.65 6.34 3.3 6 5 C2.37 5.66 -1.26 6.32 -5 7 C-4.67 6.01 -4.34 5.02 -4 4 C-2.35 4 -0.7 4 1 4 C0.67 2.68 0.34 1.36 0 0 Z " fill="#747474" transform="translate(403,685)"/>
<path d="M0 0 C1.423125 0.2784375 1.423125 0.2784375 2.875 0.5625 C5.89868793 1.28686632 5.89868793 1.28686632 8 0 C10.3494053 0.60760482 12.68529088 1.27129528 15 2 C15 2.66 15 3.32 15 4 C10.30177726 5.51555572 5.5304116 4.83462949 1 3 C0.67 2.01 0.34 1.02 0 0 Z " fill="#616161" transform="translate(176,688)"/>
<path d="M0 0 C1.49080078 0.29197266 1.49080078 0.29197266 3.01171875 0.58984375 C4.15060547 0.82380859 4.15060547 0.82380859 5.3125 1.0625 C2.02758627 3.25244248 0.48154361 3.41527339 -3.375 3.6875 C-4.86580078 3.79964844 -4.86580078 3.79964844 -6.38671875 3.9140625 C-7.14597656 3.96304688 -7.90523438 4.01203125 -8.6875 4.0625 C-8.0275 3.4025 -7.3675 2.7425 -6.6875 2.0625 C-7.3475 1.4025 -8.0075 0.7425 -8.6875 0.0625 C-5.21237282 -1.09587573 -3.55079714 -0.71015943 0 0 Z " fill="#626262" transform="translate(401.6875,639.9375)"/>
<path d="M0 0 C6.11774896 -0.49940808 9.02495953 0.75099398 14 4 C14 4.33 14 4.66 14 5 C7.375 5.125 7.375 5.125 4 4 C3.67 3.34 3.34 2.68 3 2 C2.01 1.34 1.02 0.68 0 0 Z " fill="#5F5F5F" transform="translate(244,631)"/>
<path d="M0 0 C-1.82748903 2.46313739 -3.22976216 3.83428618 -6.26953125 4.48828125 C-8.51479346 4.72518293 -10.74455578 4.90361349 -13 5 C-8.49251112 0.34226149 -6.53321609 -0.12098548 0 0 Z " fill="#5D5D5D" transform="translate(338,631)"/>
<path d="M0 0 C2.97 0.33 5.94 0.66 9 1 C9.33 1.99 9.66 2.98 10 4 C10.99 4.33 11.98 4.66 13 5 C7.36529617 5.5497272 4.61012242 3.95047835 0 1 C0 0.67 0 0.34 0 0 Z " fill="#606060" transform="translate(332,695)"/>
<path d="M0 0 C2.0625 0.4375 2.0625 0.4375 4 1 C3.34 2.32 2.68 3.64 2 5 C3.32 6.32 4.64 7.64 6 9 C2.62537285 8.45276317 0.91765 7.9451 -2 6 C-1.125 1.125 -1.125 1.125 0 0 Z " fill="#A5A5A5" transform="translate(241,662)"/>
<path d="M0 0 C0.80824219 0.28746094 1.61648438 0.57492187 2.44921875 0.87109375 C3.06410156 1.09925781 3.67898438 1.32742188 4.3125 1.5625 C3.3225 2.0575 3.3225 2.0575 2.3125 2.5625 C2.3125 3.2225 2.3125 3.8825 2.3125 4.5625 C-1.59961733 3.40664715 -4.5620041 2.20715038 -7.6875 -0.4375 C-4.20878379 -1.59707207 -3.34530355 -1.21206651 0 0 Z " fill="#5E5E5E" transform="translate(431.6875,649.4375)"/>
<path d="M0 0 C-3.1254959 2.64465038 -6.08788267 3.84414715 -10 5 C-10 4.34 -10 3.68 -10 3 C-10.66 2.67 -11.32 2.34 -12 2 C-4.71428571 -1.57142857 -4.71428571 -1.57142857 0 0 Z " fill="#5E5E5E" transform="translate(158,649)"/>
<path d="M0 0 C-0.33 0.99 -0.66 1.98 -1 3 C-0.34 3.66 0.32 4.32 1 5 C1 5.66 1 6.32 1 7 C-0.65 6.67 -2.3 6.34 -4 6 C-4.33 4.35 -4.66 2.7 -5 1 C-5.99 0.67 -6.98 0.34 -8 0 C-4.71023192 -1.09658936 -3.28696233 -0.79953138 0 0 Z " fill="#747474" transform="translate(199,638)"/>
<path d="M0 0 C2.97 0.495 2.97 0.495 6 1 C5.34 1.66 4.68 2.32 4 3 C4.33 3.66 4.66 4.32 5 5 C0.55129785 5.39253254 -2.14243493 4.15305957 -6 2 C-6 1.67 -6 1.34 -6 1 C-4.02 1 -2.04 1 0 1 C0 0.67 0 0.34 0 0 Z " fill="#939393" transform="translate(383,689)"/>
<path d="M0 0 C1.32 0.99 2.64 1.98 4 3 C3.75 5.375 3.75 5.375 3 8 C1.125 9.375 1.125 9.375 -1 10 C-1.99 9.67 -2.98 9.34 -4 9 C-2.68 8.01 -1.36 7.02 0 6 C-0.2784375 4.7934375 -0.2784375 4.7934375 -0.5625 3.5625 C-0.706875 2.716875 -0.85125 1.87125 -1 1 C-0.67 0.67 -0.34 0.34 0 0 Z " fill="#A5A5A5" transform="translate(339,661)"/>
<path d="M0 0 C0 0.66 0 1.32 0 2 C-4.22949995 4.41685712 -7.12335991 5.34833144 -12 5 C-7.65430977 1.45483165 -5.6329135 -0.14823457 0 0 Z " fill="#5D5D5D" transform="translate(249,695)"/>
<path d="M0 0 C-2.74953946 2.74953946 -5.2350197 3.17042807 -9 4 C-11.9375 3.625 -11.9375 3.625 -14 3 C-9.2903051 -0.1397966 -5.55597581 -1.63411053 0 0 Z " fill="#656565" transform="translate(169,645)"/>
<path d="M0 0 C0.8971875 0.4021875 0.8971875 0.4021875 1.8125 0.8125 C2.1425 1.8025 2.4725 2.7925 2.8125 3.8125 C-1.20554691 4.65348656 -4.20553543 4.86654945 -8.1875 3.8125 C-5.63813656 1.26313656 -3.70715789 -0.31775639 0 0 Z " fill="#909090" transform="translate(383.1875,637.1875)"/>
<path d="M0 0 C3.60296594 -0.41176754 4.78402067 -0.1535853 7.8125 2 C8.534375 2.66 9.25625 3.32 10 4 C8.54364629 4.22174933 7.08477044 4.42698698 5.625 4.625 C4.81289062 4.74101563 4.00078125 4.85703125 3.1640625 4.9765625 C2.44992188 4.98429688 1.73578125 4.99203125 1 5 C0.34 4.34 -0.32 3.68 -1 3 C-0.01 3 0.98 3 2 3 C2 2.34 2 1.68 2 1 C1.34 0.67 0.68 0.34 0 0 Z " fill="#909090" transform="translate(197,637)"/>
<path d="M0 0 C3.63 0 7.26 0 11 0 C8.13700494 2.86299506 6.34147716 2.99421225 2.3125 3.0625 C1.219375 3.041875 0.12625 3.02125 -1 3 C-0.67 2.01 -0.34 1.02 0 0 Z " fill="#7F7F7F" transform="translate(314,635)"/>
<path d="M0 0 C6.75 0.875 6.75 0.875 9 2 C9 2.66 9 3.32 9 4 C9.99 4.33 10.98 4.66 12 5 C9.03 4.67 6.06 4.34 3 4 C3 3.34 3 2.68 3 2 C2.01 1.67 1.02 1.34 0 1 C0 0.67 0 0.34 0 0 Z " fill="#666666" transform="translate(344,694)"/>
<path d="M0 0 C0.33 0.33 0.66 0.66 1 1 C2.32594105 1.36162029 3.65938457 1.69728039 5 2 C3.35 2.33 1.7 2.66 0 3 C0 3.66 0 4.32 0 5 C-1.65 5 -3.3 5 -5 5 C-4.34 4.67 -3.68 4.34 -3 4 C-3 3.34 -3 2.68 -3 2 C-4.32 1.67 -5.64 1.34 -7 1 C-4.51588385 -0.24205807 -2.74800896 -0.14092354 0 0 Z " fill="#939393" transform="translate(205,690)"/>
<path d="M0 0 C1.98 0.66 3.96 1.32 6 2 C6 1.34 6 0.68 6 0 C6.66 0 7.32 0 8 0 C8 0.66 8 1.32 8 2 C8.66 2.66 9.32 3.32 10 4 C5.70700357 5.26264601 3.12168689 4.62950412 -1 3 C-0.67 2.01 -0.34 1.02 0 0 Z " fill="#555555" transform="translate(157,682)"/>
<path d="M0 0 C0 0.99 0 1.98 0 3 C-2.97 3 -5.94 3 -9 3 C-9 2.01 -9 1.02 -9 0 C-5.62182575 -0.84454356 -3.32534757 -1.10844919 0 0 Z " fill="#8A8A8A" transform="translate(354,642)"/>
<path d="M0 0 C7.75 -0.125 7.75 -0.125 10 1 C10 1.66 10 2.32 10 3 C10.66 3.33 11.32 3.66 12 4 C7.12335991 4.34833144 4.22949995 3.41685712 0 1 C0 0.67 0 0.34 0 0 Z " fill="#959595" transform="translate(226,633)"/>
<path d="M0 0 C6.75 -0.125 6.75 -0.125 9 1 C9 1.66 9 2.32 9 3 C10.32 3.33 11.64 3.66 13 4 C10.03 4 7.06 4 4 4 C3.67 3.34 3.34 2.68 3 2 C2.01 1.34 1.02 0.68 0 0 Z " fill="#939393" transform="translate(338,695)"/>
<path d="M0 0 C3.3 0 6.6 0 10 0 C10.33 0.99 10.66 1.98 11 3 C3.57142857 3.28571429 3.57142857 3.28571429 0 1 C0 0.67 0 0.34 0 0 Z " fill="#7F7F7F" transform="translate(258,635)"/>
<path d="M0 0 C-3.07999946 3.67230705 -5.2482602 4.56802365 -10 5 C-9 2 -9 2 -7.25 0.8125 C-4.70039426 -0.10819096 -2.69076919 -0.14948718 0 0 Z " fill="#5F5F5F" transform="translate(350,632)"/>
<path d="M0 0 C3.82097239 0.53069061 6.06171403 1.49701566 9 4 C2.9453125 4.9765625 2.9453125 4.9765625 1 5 C0.34 4.34 -0.32 3.68 -1 3 C-0.67 2.01 -0.34 1.02 0 0 Z " fill="#5F5F5F" transform="translate(387,689)"/>
<path d="M0 0 C0.33 0.66 0.66 1.32 1 2 C3.02463255 2.65213292 3.02463255 2.65213292 5 3 C3.35 3.33 1.7 3.66 0 4 C0 4.66 0 5.32 0 6 C-2.31 6.33 -4.62 6.66 -7 7 C-6.34 6.67 -5.68 6.34 -5 6 C-5 5.34 -5 4.68 -5 4 C-4.360625 3.71125 -3.72125 3.4225 -3.0625 3.125 C-0.84793921 2.17176549 -0.84793921 2.17176549 0 0 Z " fill="#6F6F6F" transform="translate(210,689)"/>
<path d="M0 0 C-3.69172595 3.53790403 -7.09390595 3.59115883 -12 4 C-4.75 -1.69642857 -4.75 -1.69642857 0 0 Z " fill="#656565" transform="translate(360,634)"/>
<path d="M0 0 C6.4 0.49230769 6.4 0.49230769 9.4375 3.0625 C10.2109375 4.0215625 10.2109375 4.0215625 11 5 C8.69 4.67 6.38 4.34 4 4 C4 3.34 4 2.68 4 2 C2.68 1.34 1.36 0.68 0 0 Z " fill="#5E5E5E" transform="translate(232,632)"/>
<path d="M0 0 C0 0.66 0 1.32 0 2 C-4.01804691 2.84098656 -7.01803543 3.05404945 -11 2 C-7.49890112 -1.50109888 -4.63591413 -1.15897853 0 0 Z " fill="#565656" transform="translate(202,692)"/>
<path d="M0 0 C2.97 0.495 2.97 0.495 6 1 C5.01 1.495 5.01 1.495 4 2 C4 2.66 4 3.32 4 4 C4.66 4.33 5.32 4.66 6 5 C2.0507432 4.44894091 -1.34920174 3.61064629 -5 2 C-1.125 1 -1.125 1 0 1 C0 0.67 0 0.34 0 0 Z " fill="#939393" transform="translate(392,687)"/>
<path d="M0 0 C6.75 -0.125 6.75 -0.125 9 1 C9 1.66 9 2.32 9 3 C9.99 3.33 10.98 3.66 12 4 C7.12335991 4.34833144 4.22949995 3.41685712 0 1 C0 0.67 0 0.34 0 0 Z " fill="#969696" transform="translate(217,634)"/>
<path d="M0 0 C-4.33542505 3.32382587 -6.47141274 4.12018668 -12 4 C-7.99899414 0.12023674 -5.51903037 -0.43286513 0 0 Z " fill="#979797" transform="translate(356,633)"/>
<path d="M0 0 C5.75 -0.125 5.75 -0.125 8 1 C8 1.66 8 2.32 8 3 C9.32 3.33 10.64 3.66 12 4 C9.36 4 6.72 4 4 4 C4 3.34 4 2.68 4 2 C2.68 1.34 1.36 0.68 0 0 Z " fill="#959595" transform="translate(349,694)"/>
<path d="M0 0 C0 0.66 0 1.32 0 2 C-3.3 2.66 -6.6 3.32 -10 4 C-9.67 3.01 -9.34 2.02 -9 1 C-6.03421164 -0.16513114 -3.15436364 -0.08762121 0 0 Z " fill="#565656" transform="translate(420,685)"/>
<path d="M0 0 C2.91517292 1.07401108 4.77810176 1.77810176 7 4 C2.545 4.495 2.545 4.495 -2 5 C-1.34 3.35 -0.68 1.7 0 0 Z " fill="#606060" transform="translate(378,691)"/>
<path d="M0 0 C4.56454251 0.54339792 7.9728176 1.79463821 12 4 C12 4.33 12 4.66 12 5 C9.36 4.67 6.72 4.34 4 4 C4 3.34 4 2.68 4 2 C2.68 1.34 1.36 0.68 0 0 Z " fill="#626262" transform="translate(222,633)"/>
<path d="M0 0 C4.75 0.875 4.75 0.875 7 2 C7 2.66 7 3.32 7 4 C7.99 4.33 8.98 4.66 10 5 C7.36 4.67 4.72 4.34 2 4 C2 3.34 2 2.68 2 2 C1.34 2 0.68 2 0 2 C0 1.34 0 0.68 0 0 Z " fill="#626262" transform="translate(355,693)"/>
<path d="M0 0 C0 0.66 0 1.32 0 2 C-3.3 2.66 -6.6 3.32 -10 4 C-10 3.01 -10 2.02 -10 1 C-6.56484998 0.37542727 -3.50935186 0 0 0 Z " fill="#939393" transform="translate(255,690)"/>
<path d="M0 0 C3.3 0.33 6.6 0.66 10 1 C9.67 1.99 9.34 2.98 9 4 C4.545 3.01 4.545 3.01 0 2 C0 1.34 0 0.68 0 0 Z " fill="#939393" transform="translate(327,690)"/>
<path d="M0 0 C1.32 0.33 2.64 0.66 4 1 C1.20091867 3.79908133 -1.13081763 3.72362983 -5 4 C-5.66 3.34 -6.32 2.68 -7 2 C-3.535 1.505 -3.535 1.505 0 1 C0 0.67 0 0.34 0 0 Z " fill="#939393" transform="translate(194,647)"/>
<path d="M0 0 C-4.33542505 3.32382587 -6.47141274 4.12018668 -12 4 C-7.47239812 0.98159875 -5.47631692 -0.24339186 0 0 Z " fill="#999999" transform="translate(365,634)"/>
<path d="M0 0 C5.53846154 -0.36923077 5.53846154 -0.36923077 7.875 1.5 C8.24625 1.995 8.6175 2.49 9 3 C6.36 3 3.72 3 1 3 C0.67 2.01 0.34 1.02 0 0 Z " fill="#7F7F7F" transform="translate(323,693)"/>
<path d="M0 0 C0 0.99 0 1.98 0 3 C-2.97 3 -5.94 3 -9 3 C-5.92807025 0.26939578 -4.09590633 -0.34132553 0 0 Z " fill="#7F7F7F" transform="translate(258,693)"/>
<path d="M0 0 C3.12290635 0.48578543 5.99580359 0.9986012 9 2 C9 2.66 9 3.32 9 4 C9.66 4.33 10.32 4.66 11 5 C8.69 4.67 6.38 4.34 4 4 C4 3.34 4 2.68 4 2 C2.68 1.34 1.36 0.68 0 0 Z " fill="#6B6B6B" transform="translate(361,692)"/>
<path d="M0 0 C4.84659077 0.59104765 8.60748167 1.97944157 13 4 C13 4.33 13 4.66 13 5 C7.28758534 4.61271765 4.26311718 4.12989477 0 0 Z " fill="#616161" transform="translate(213,634)"/>
<path d="M0 0 C3.93774177 -0.36630156 5.56539771 -0.30233203 8.875 2 C9.926875 2.99 9.926875 2.99 11 4 C7.06225823 4.36630156 5.43460229 4.30233203 2.125 2 C1.42375 1.34 0.7225 0.68 0 0 Z " fill="#939393" transform="translate(210,635)"/>
<path d="M0 0 C2.31 0.33 4.62 0.66 7 1 C7 1.66 7 2.32 7 3 C8.32 3.33 9.64 3.66 11 4 C8.69 4 6.38 4 4 4 C4 3.34 4 2.68 4 2 C2.68 1.34 1.36 0.68 0 0 Z " fill="#979797" transform="translate(358,693)"/>
<path d="M0 0 C4.55737263 0.43820891 7.57653445 0.85041169 11 4 C9.02 4 7.04 4 5 4 C5 3.34 5 2.68 5 2 C3.35 1.67 1.7 1.34 0 1 C0 0.67 0 0.34 0 0 Z " fill="#959595" transform="translate(365,692)"/>
<path d="M0 0 C0.66 0.33 1.32 0.66 2 1 C2 1.99 2 2.98 2 4 C-2.625 6.125 -2.625 6.125 -6 5 C-5.34 5 -4.68 5 -4 5 C-4 4.34 -4 3.68 -4 3 C-3.34 3 -2.68 3 -2 3 C-2 2.34 -2 1.68 -2 1 C-1.34 0.67 -0.68 0.34 0 0 Z " fill="#4A4A4A" transform="translate(429,679)"/>
<path d="M0 0 C1.22589844 0.15275391 1.22589844 0.15275391 2.4765625 0.30859375 C3.41628906 0.43427734 3.41628906 0.43427734 4.375 0.5625 C0.92254176 2.86413882 -0.57238713 2.90740322 -4.625 2.5625 C-5.285 1.9025 -5.945 1.2425 -6.625 0.5625 C-4.10446405 -0.69776798 -2.7707902 -0.35624445 0 0 Z " fill="#555555" transform="translate(389.625,637.4375)"/>
<path d="M0 0 C2.64 0 5.28 0 8 0 C5.23776722 2.76223278 2.79293383 2.57856291 -1 3 C-0.67 2.01 -0.34 1.02 0 0 Z " fill="#7F7F7F" transform="translate(332,636)"/>
<path d="M0 0 C2.31 0.33 4.62 0.66 7 1 C5 3 5 3 2.375 3.125 C1.59125 3.08375 0.8075 3.0425 0 3 C0 2.01 0 1.02 0 0 Z " fill="#555555" transform="translate(226,696)"/>
<path d="M0 0 C0.928125 0.20625 1.85625 0.4125 2.8125 0.625 C3.1425 1.615 3.4725 2.605 3.8125 3.625 C0.5125 2.965 -2.7875 2.305 -6.1875 1.625 C-3.1875 -0.375 -3.1875 -0.375 0 0 Z " fill="#525252" transform="translate(171.1875,686.375)"/>
<path d="M0 0 C0 1.32 0 2.64 0 4 C-2.02045442 3.39816251 -4.02111039 2.72693904 -6 2 C-6.33 1.34 -6.66 0.68 -7 0 C-3.86650268 -1.04449911 -3.01031744 -0.93423645 0 0 Z " fill="#4E4E4E" transform="translate(149,677)"/>
<path d="M0 0 C-2.91765 1.9451 -4.62537285 2.45276317 -8 3 C-8.33 2.01 -8.66 1.02 -9 0 C-5.52176885 -1.15941038 -3.54104422 -0.70820884 0 0 Z " fill="#575757" transform="translate(415,643)"/>
<path d="M0 0 C-2.87164566 2.70272533 -4.30991841 3.94791837 -8.3125 4.25 C-9.199375 4.1675 -10.08625 4.085 -11 4 C-4.625 -0.25 -4.625 -0.25 0 0 Z " fill="#959595" transform="translate(372,635)"/>
<path d="M0 0 C2.31 0 4.62 0 7 0 C7.33 0.99 7.66 1.98 8 3 C5.6568787 2.74438677 3.32156597 2.40729228 1 2 C0.67 1.34 0.34 0.68 0 0 Z " fill="#7F7F7F" transform="translate(243,636)"/>
<path d="M0 0 C-0.33 0.99 -0.66 1.98 -1 3 C-3.31 3 -5.62 3 -8 3 C-4.93882432 0.37613513 -4.26826873 0 0 0 Z " fill="#7F7F7F" transform="translate(245,692)"/>
<path d="M0 0 C2.64 0 5.28 0 8 0 C7.67 0.66 7.34 1.32 7 2 C4.67843403 2.40729228 2.3431213 2.74438677 0 3 C0 2.01 0 1.02 0 0 Z " fill="#5A5A5A" transform="translate(398,689)"/>
<path d="M0 0 C-2.75924185 1.80411967 -3.88972103 2.0127245 -7.25 1.625 C-8.1575 1.41875 -9.065 1.2125 -10 1 C-6.1496895 -1.56687367 -4.41430237 -0.83288724 0 0 Z " fill="#909090" transform="translate(192,643)"/>
</svg>
