<?xml version="1.0" encoding="UTF-8"?>
<svg version="1.1" xmlns="http://www.w3.org/2000/svg" width="225" height="225">
<path d="M0 0 C74.25 0 148.5 0 225 0 C225 74.25 225 148.5 225 225 C150.75 225 76.5 225 0 225 C0 150.75 0 76.5 0 0 Z " fill="#576A4B" transform="translate(0,0)"/>
<path d="M0 0 C74.25 0 148.5 0 225 0 C225 28.05 225 56.1 225 85 C150.75 85 76.5 85 0 85 C0 56.95 0 28.9 0 0 Z " fill="#6C7367" transform="translate(0,0)"/>
<path d="M0 0 C74.25 0 148.5 0 225 0 C225 21.78 225 43.56 225 66 C150.75 66 76.5 66 0 66 C0 44.22 0 22.44 0 0 Z " fill="#505B49" transform="translate(0,85)"/>
<path d="M0 0 C74.25 0 148.5 0 225 0 C225 6.93 225 13.86 225 21 C150.75 21 76.5 21 0 21 C0 14.07 0 7.14 0 0 Z " fill="#677360" transform="translate(0,130)"/>
<path d="M0 0 C74.25 0 148.5 0 225 0 C225 4.29 225 8.58 225 13 C150.75 13 76.5 13 0 13 C0 8.71 0 4.42 0 0 Z " fill="#6A7463" transform="translate(0,212)"/>
<path d="M0 0 C74.25 0 148.5 0 225 0 C225 4.29 225 8.58 225 13 C150.75 13 76.5 13 0 13 C0 8.71 0 4.42 0 0 Z " fill="#626A5D" transform="translate(0,72)"/>
<path d="M0 0 C74.25 0 148.5 0 225 0 C225 3.63 225 7.26 225 11 C210.94525219 11.79544999 196.96455083 12.12196324 182.8894043 12.02172852 C180.87648245 12.01154906 178.86355807 12.00185959 176.85063171 11.99261475 C171.45944969 11.96649994 166.06832851 11.93365209 160.67719245 11.89946485 C155.01583927 11.86475253 149.35445399 11.83641336 143.69306946 11.80735779 C133.00520206 11.75155739 122.31737485 11.69014124 111.62955076 11.62663645 C99.44794041 11.55453464 87.26629819 11.48880143 75.08464944 11.42356598 C50.05639159 11.28939333 25.02818353 11.14734381 0 11 C0 7.37 0 3.74 0 0 Z " fill="#586A4D" transform="translate(0,119)"/>
<path d="M0 0 C74.25 0 148.5 0 225 0 C225 3.63 225 7.26 225 11 C150.75 11 76.5 11 0 11 C0 7.37 0 3.74 0 0 Z " fill="#585E53" transform="translate(0,61)"/>
<path d="M0 0 C74.25 0 148.5 0 225 0 C225 3.63 225 7.26 225 11 C150.75 11 76.5 11 0 11 C0 7.37 0 3.74 0 0 Z " fill="#595F55" transform="translate(0,27)"/>
<path d="M0 0 C74.25 0 148.5 0 225 0 C225 2.97 225 5.94 225 9 C150.75 9 76.5 9 0 9 C0 6.03 0 3.06 0 0 Z " fill="#46503F" transform="translate(0,110)"/>
<path d="M0 0 C74.25 0 148.5 0 225 0 C225 2.64 225 5.28 225 8 C113.625 7.505 113.625 7.505 0 7 C0 4.69 0 2.38 0 0 Z " fill="#5C6557" transform="translate(0,85)"/>
<path d="M0 0 C74.25 0 148.5 0 225 0 C225 2.31 225 4.62 225 7 C150.75 7 76.5 7 0 7 C0 4.69 0 2.38 0 0 Z " fill="#697462" transform="translate(0,144)"/>
<path d="M0 0 C74.25 0 148.5 0 225 0 C225 2.31 225 4.62 225 7 C150.75 7 76.5 7 0 7 C0 4.69 0 2.38 0 0 Z " fill="#6F7769" transform="translate(0,38)"/>
<path d="M0 0 C74.25 0 148.5 0 225 0 C225 2.31 225 4.62 225 7 C150.75 7 76.5 7 0 7 C0 4.69 0 2.38 0 0 Z " fill="#6F7769" transform="translate(0,0)"/>
<path d="M0 0 C74.25 0 148.5 0 225 0 C225 2.31 225 4.62 225 7 C150.75 7 76.5 7 0 7 C0 4.69 0 2.38 0 0 Z " fill="#6F776A" transform="translate(0,20)"/>
<path d="M0 0 C74.25 0 148.5 0 225 0 C225 2.31 225 4.62 225 7 C150.75 7 76.5 7 0 7 C0 4.69 0 2.38 0 0 Z " fill="#5F6F55" transform="translate(0,130)"/>
<path d="M0 0 C26.67857329 -0.02341593 53.35714503 -0.04102175 80.03572655 -0.05181217 C92.42453735 -0.05695671 104.81334175 -0.06396412 117.20214844 -0.07543945 C128.0069608 -0.08544277 138.81176851 -0.09186681 149.61658537 -0.09408849 C155.33149708 -0.09538605 161.04639552 -0.09841092 166.76130295 -0.10573006 C172.15386116 -0.1125796 177.54640079 -0.11459901 182.93896294 -0.11310768 C184.90517338 -0.11338003 186.87138453 -0.11533166 188.83759117 -0.11920547 C200.92901061 -0.14183468 212.93470772 0.18967022 225 1 C225 2.98 225 4.96 225 7 C150.75 7 76.5 7 0 7 C0 4.69 0 2.38 0 0 Z " fill="#687361" transform="translate(0,92)"/>
<path d="M0 0 C74.25 0 148.5 0 225 0 C225 1.65 225 3.3 225 5 C150.75 5 76.5 5 0 5 C0 3.35 0 1.7 0 0 Z " fill="#8C9288" transform="translate(0,220)"/>
<path d="M0 0 C74.25 0 148.5 0 225 0 C225 1.65 225 3.3 225 5 C150.75 5 76.5 5 0 5 C0 3.35 0 1.7 0 0 Z " fill="#45553B" transform="translate(0,151)"/>
<path d="M0 0 C74.25 0 148.5 0 225 0 C225 1.65 225 3.3 225 5 C150.75 5 76.5 5 0 5 C0 3.35 0 1.7 0 0 Z " fill="#595F55" transform="translate(0,7)"/>
<path d="M0 0 C74.25 0 148.5 0 225 0 C225 1.32 225 2.64 225 4 C210.94525219 4.79544999 196.96455083 5.12196324 182.8894043 5.02172852 C180.87648245 5.01154906 178.86355807 5.00185959 176.85063171 4.99261475 C171.45944969 4.96649994 166.06832851 4.93365209 160.67719245 4.89946485 C155.01583927 4.86475253 149.35445399 4.83641336 143.69306946 4.80735779 C133.00520206 4.75155739 122.31737485 4.69014124 111.62955076 4.62663645 C99.44794041 4.55453464 87.26629819 4.48880143 75.08464944 4.42356598 C50.05639159 4.28939333 25.02818353 4.14734381 0 4 C0 2.68 0 1.36 0 0 Z " fill="#5D6E53" transform="translate(0,126)"/>
<path d="M0 0 C74.25 0 148.5 0 225 0 C225 1.32 225 2.64 225 4 C150.75 4 76.5 4 0 4 C0 2.68 0 1.36 0 0 Z " fill="#6C7565" transform="translate(0,81)"/>
<path d="M0 0 C74.25 0 148.5 0 225 0 C225 1.32 225 2.64 225 4 C150.75 4 76.5 4 0 4 C0 2.68 0 1.36 0 0 Z " fill="#596253" transform="translate(0,45)"/>
<path d="M0 0 C74.25 0 148.5 0 225 0 C225 1.32 225 2.64 225 4 C150.75 4 76.5 4 0 4 C0 2.68 0 1.36 0 0 Z " fill="#576051" transform="translate(0,27)"/>
<path d="M0 0 C74.25 0 148.5 0 225 0 C225 1.32 225 2.64 225 4 C200.26037885 4.03872095 175.5222916 3.93200797 150.78307915 3.79807091 C145.4594339 3.76943214 140.13578358 3.74176825 134.81213379 3.71398926 C124.78693552 3.66153526 114.76174194 3.60823808 104.73654985 3.5546174 C93.2995113 3.49348793 81.86246769 3.43332975 70.42542362 3.37324238 C46.95027675 3.24988862 23.47513629 3.12535014 0 3 C0 2.01 0 1.02 0 0 Z " fill="#444F3C" transform="translate(0,119)"/>
<path d="M0 0 C74.25 0 148.5 0 225 0 C225 0.99 225 1.98 225 3 C210.60713047 3.78154238 196.27975967 4.12509885 181.86767578 4.02172852 C179.86445855 4.01154665 177.86123876 4.00185747 175.85801697 3.99261475 C170.49788447 3.96652396 165.13781362 3.93367211 159.7777276 3.89946485 C154.14707702 3.8647278 148.51639396 3.83640487 142.88571167 3.80735779 C132.2580844 3.75158069 121.63049779 3.69016075 111.00291431 3.62663645 C98.88899438 3.55450838 86.77504223 3.48878822 74.66108346 3.42356598 C49.7740138 3.28943114 24.8869945 3.14738026 0 3 C0 2.01 0 1.02 0 0 Z " fill="#454E3F" transform="translate(0,99)"/>
<path d="M0 0 C74.25 0 148.5 0 225 0 C225 0.99 225 1.98 225 3 C150.75 3 76.5 3 0 3 C0 2.01 0 1.02 0 0 Z " fill="#8D9B84" transform="translate(0,148)"/>
<path d="M0 0 C74.25 0 148.5 0 225 0 C225 0.99 225 1.98 225 3 C150.75 3 76.5 3 0 3 C0 2.01 0 1.02 0 0 Z " fill="#434C3E" transform="translate(0,137)"/>
<path d="M0 0 C74.25 0 148.5 0 225 0 C225 0.99 225 1.98 225 3 C150.75 3 76.5 3 0 3 C0 2.01 0 1.02 0 0 Z " fill="#494E45" transform="translate(0,69)"/>
<path d="M0 0 C74.25 0 148.5 0 225 0 C225 0.99 225 1.98 225 3 C150.75 3 76.5 3 0 3 C0 2.01 0 1.02 0 0 Z " fill="#929D8B" transform="translate(0,66)"/>
<path d="M0 0 C74.25 0 148.5 0 225 0 C225 0.99 225 1.98 225 3 C150.75 3 76.5 3 0 3 C0 2.01 0 1.02 0 0 Z " fill="#939E8C" transform="translate(0,58)"/>
<path d="M0 0 C74.25 0 148.5 0 225 0 C225 0.99 225 1.98 225 3 C150.75 3 76.5 3 0 3 C0 2.01 0 1.02 0 0 Z " fill="#494F46" transform="translate(0,55)"/>
<path d="M0 0 C74.25 0 148.5 0 225 0 C225 0.99 225 1.98 225 3 C150.75 3 76.5 3 0 3 C0 2.01 0 1.02 0 0 Z " fill="#939E8C" transform="translate(0,52)"/>
<path d="M0 0 C74.25 0 148.5 0 225 0 C225 0.99 225 1.98 225 3 C150.75 3 76.5 3 0 3 C0 2.01 0 1.02 0 0 Z " fill="#959E8E" transform="translate(0,20)"/>
<path d="M0 0 C74.25 0 148.5 0 225 0 C225 0.99 225 1.98 225 3 C150.75 3 76.5 3 0 3 C0 2.01 0 1.02 0 0 Z " fill="#88987E" transform="translate(0,102)"/>
<path d="M0 0 C74.25 0 148.5 0 225 0 C225 0.99 225 1.98 225 3 C150.75 3 76.5 3 0 3 C0 2.01 0 1.02 0 0 Z " fill="#849578" transform="translate(0,110)"/>
<path d="M0 0 C28.59808239 -0.02334505 57.19616335 -0.04098709 85.79425335 -0.05181217 C99.07239284 -0.0569717 112.35052642 -0.06400791 125.62866211 -0.07543945 C137.19987724 -0.08539672 148.77108809 -0.09185592 160.34230739 -0.09408849 C166.47095921 -0.09539382 172.59959879 -0.09846849 178.72824669 -0.10573006 C184.49421704 -0.11250669 190.26017007 -0.11461359 196.02614403 -0.11310768 C198.14455764 -0.11338327 200.26297182 -0.11537866 202.38138199 -0.11920547 C205.26983496 -0.12416832 208.15822219 -0.12298864 211.04667664 -0.12025452 C211.88812105 -0.12316736 212.72956547 -0.1260802 213.5965082 -0.12908131 C217.53360321 -0.11898351 221.15584825 0.02434203 225 1 C225 1.66 225 2.32 225 3 C150.75 3 76.5 3 0 3 C0 2.01 0 1.02 0 0 Z " fill="#959E8E" transform="translate(0,4)"/>
<path d="M0 0 C74.25 0 148.5 0 225 0 C225 0.99 225 1.98 225 3 C150.75 3 76.5 3 0 3 C0 2.01 0 1.02 0 0 Z " fill="#959E8E" transform="translate(0,42)"/>
<path d="M0 0 C27.26919148 -0.02339301 54.53838145 -0.04101059 81.80758095 -0.05181217 C94.47003134 -0.05696154 107.13247549 -0.06397829 119.79492188 -0.07543945 C130.83555047 -0.08542787 141.87617454 -0.09186331 152.91680753 -0.09408849 C158.75902388 -0.09538855 164.60122729 -0.0984296 170.44343948 -0.10573006 C175.95089374 -0.11255594 181.45832981 -0.11460368 186.96578789 -0.11310768 C188.97883007 -0.11338107 190.99187292 -0.115347 193.00491142 -0.11920547 C203.72262558 -0.13872768 214.31868758 0.01366107 225 1 C225 1.66 225 2.32 225 3 C150.75 3 76.5 3 0 3 C0 2.01 0 1.02 0 0 Z " fill="#909B88" transform="translate(0,78)"/>
<path d="M0 0 C26.67857329 -0.02341593 53.35714503 -0.04102175 80.03572655 -0.05181217 C92.42453735 -0.05695671 104.81334175 -0.06396412 117.20214844 -0.07543945 C128.0069608 -0.08544277 138.81176851 -0.09186681 149.61658537 -0.09408849 C155.33149708 -0.09538605 161.04639552 -0.09841092 166.76130295 -0.10573006 C172.15386116 -0.1125796 177.54640079 -0.11459901 182.93896294 -0.11310768 C184.90517338 -0.11338003 186.87138453 -0.11533166 188.83759117 -0.11920547 C200.92901061 -0.14183468 212.93470772 0.18967022 225 1 C225 1.66 225 2.32 225 3 C150.75 3 76.5 3 0 3 C0 2.01 0 1.02 0 0 Z " fill="#8B9983" transform="translate(0,92)"/>
<path d="M0 0 C74.25 0 148.5 0 225 0 C225 0.99 225 1.98 225 3 C150.75 3 76.5 3 0 3 C0 2.01 0 1.02 0 0 Z " fill="#839478" transform="translate(0,134)"/>
<path d="M0 0 C25.05437326 -0.0234848 50.10874485 -0.04105502 75.16312695 -0.05181217 C86.7994289 -0.05694231 98.43572396 -0.06392152 110.07202148 -0.07543945 C120.22833919 -0.08548757 130.3846519 -0.09187721 140.54097444 -0.09408849 C145.90579842 -0.09537862 151.27060813 -0.0983544 156.63542747 -0.10573006 C179.44599655 -0.13591782 202.20956574 -0.06195535 225 1 C225 1.66 225 2.32 225 3 C150.75 3 76.5 3 0 3 C0 2.01 0 1.02 0 0 Z " fill="#7C906F" transform="translate(0,116)"/>
<path d="M0 0 C4.94145591 0.00372545 9.88289155 0.00244979 14.82434666 -0.00180268 C54.59348753 -0.03522011 94.3387508 0.33798137 134.10046971 1.12856841 C134.10046971 1.78856841 134.10046971 2.44856841 134.10046971 3.12856841 C59.85046971 3.12856841 -14.39953029 3.12856841 -90.89953029 3.12856841 C-90.89953029 2.46856841 -90.89953029 1.80856841 -90.89953029 1.12856841 C-60.61210854 -0.15674557 -30.30786287 -0.02548977 0 0 Z " fill="#8F958B" transform="translate(90.89953029155731,29.871431589126587)"/>
<path d="M0 0 C74.25 0 148.5 0 225 0 C225 0.99 225 1.98 225 3 C212.43751256 3.03254205 199.87502424 3.05159653 187.3125 3.0625 C186.33364334 3.06335602 185.35478668 3.06421204 184.3462677 3.06509399 C143.14575832 3.09668479 101.94890161 2.82624247 60.75 2.5 C59.61678778 2.49103943 59.61678778 2.49103943 58.46068239 2.48189783 C38.97373403 2.3276822 19.48684148 2.16720452 0 2 C0 1.34 0 0.68 0 0 Z " fill="#7E8977" transform="translate(0,72)"/>
</svg>
